<svg width="15" height="13" viewBox="0 0 15 13" fill="none" xmlns="http://www.w3.org/2000/svg">
<g id="camera-01">
<g id="Icon">
<path d="M1.25 4.53734C1.25 4.34758 1.25 4.2527 1.25914 4.17279C1.34725 3.40203 2.05079 2.79229 2.94013 2.71593C3.03234 2.70801 3.14772 2.70801 3.37849 2.70801C3.46741 2.70801 3.51187 2.70801 3.54962 2.70603C4.03163 2.68073 4.45372 2.41707 4.63384 2.02876C4.64795 1.99835 4.66113 1.96407 4.6875 1.89551C4.71387 1.82695 4.72705 1.79267 4.74116 1.76226C4.92128 1.37395 5.34337 1.11029 5.82538 1.08499C5.86313 1.08301 5.90483 1.08301 5.98821 1.08301H9.01179C9.09517 1.08301 9.13687 1.08301 9.17462 1.08499C9.65663 1.11029 10.0787 1.37395 10.2588 1.76226C10.2729 1.79267 10.2861 1.82695 10.3125 1.89551C10.3389 1.96407 10.3521 1.99835 10.3662 2.02876C10.5463 2.41707 10.9684 2.68073 11.4504 2.70603C11.4881 2.70801 11.5326 2.70801 11.6215 2.70801C11.8523 2.70801 11.9677 2.70801 12.0599 2.71593C12.9492 2.79229 13.6527 3.40203 13.7409 4.17279C13.75 4.2527 13.75 4.34758 13.75 4.53734V8.77467C13.75 9.68476 13.75 10.1398 13.5456 10.4874C13.3659 10.7932 13.079 11.0418 12.7262 11.1976C12.3251 11.3747 11.8001 11.3747 10.75 11.3747H4.25C3.1999 11.3747 2.67485 11.3747 2.27377 11.1976C1.92096 11.0418 1.63413 10.7932 1.45436 10.4874C1.25 10.1398 1.25 9.68476 1.25 8.77467V4.53734Z" stroke="#676767" stroke-linecap="round" stroke-linejoin="round"/>
<path d="M7.5 8.93717C8.88071 8.93717 10 7.96712 10 6.77051C10 5.57389 8.88071 4.60384 7.5 4.60384C6.11929 4.60384 5 5.57389 5 6.77051C5 7.96712 6.11929 8.93717 7.5 8.93717Z" stroke="#676767" stroke-linecap="round" stroke-linejoin="round"/>
</g>
</g>
</svg>
