<svg width="36" height="34" viewBox="0 0 36 34" fill="none" xmlns="http://www.w3.org/2000/svg">
<g id="camera">
<g id="Icon">
<path d="M3.11063 11.8677C3.11063 11.3714 3.11063 11.1232 3.13194 10.9142C3.33754 8.89838 4.97914 7.30369 7.05427 7.10396C7.26942 7.08325 7.53865 7.08325 8.0771 7.08325C8.28458 7.08325 8.38832 7.08325 8.4764 7.07807C9.6011 7.0119 10.586 6.32233 11.0063 5.30675C11.0392 5.22722 11.0699 5.13756 11.1315 4.95825C11.193 4.77894 11.2238 4.68929 11.2567 4.60975C11.6769 3.59418 12.6618 2.9046 13.7865 2.83843C13.8746 2.83325 13.9719 2.83325 14.1665 2.83325H21.2215C21.416 2.83325 21.5133 2.83325 21.6014 2.83843C22.7261 2.9046 23.711 3.59418 24.1313 4.60975C24.1642 4.68929 24.1949 4.77894 24.2565 4.95825C24.318 5.13756 24.3488 5.22722 24.3817 5.30675C24.8019 6.32233 25.7868 7.0119 26.9115 7.07807C26.9996 7.08325 27.1033 7.08325 27.3108 7.08325C27.8493 7.08325 28.1185 7.08325 28.3337 7.10396C30.4088 7.30369 32.0504 8.89838 32.256 10.9142C32.2773 11.1232 32.2773 11.3714 32.2773 11.8677V22.9499C32.2773 25.3301 32.2773 26.5203 31.8004 27.4294C31.381 28.2291 30.7117 28.8792 29.8885 29.2867C28.9526 29.7499 27.7275 29.7499 25.2773 29.7499H10.1106C7.6604 29.7499 6.43528 29.7499 5.49942 29.2867C4.67621 28.8792 4.00692 28.2291 3.58747 27.4294C3.11063 26.5203 3.11063 25.3301 3.11063 22.9499V11.8677Z" fill="#F9FBF9"/>
<path d="M17.694 23.3749C20.9156 23.3749 23.5273 20.8379 23.5273 17.7083C23.5273 14.5786 20.9156 12.0416 17.694 12.0416C14.4723 12.0416 11.8606 14.5786 11.8606 17.7083C11.8606 20.8379 14.4723 23.3749 17.694 23.3749Z" fill="#F9FBF9"/>
<path d="M3.11063 11.8677C3.11063 11.3714 3.11063 11.1232 3.13194 10.9142C3.33754 8.89838 4.97914 7.30369 7.05427 7.10396C7.26942 7.08325 7.53865 7.08325 8.0771 7.08325C8.28458 7.08325 8.38832 7.08325 8.4764 7.07807C9.6011 7.0119 10.586 6.32233 11.0063 5.30675C11.0392 5.22722 11.0699 5.13756 11.1315 4.95825C11.193 4.77894 11.2238 4.68929 11.2567 4.60975C11.6769 3.59418 12.6618 2.9046 13.7865 2.83843C13.8746 2.83325 13.9719 2.83325 14.1665 2.83325H21.2215C21.416 2.83325 21.5133 2.83325 21.6014 2.83843C22.7261 2.9046 23.711 3.59418 24.1313 4.60975C24.1642 4.68929 24.1949 4.77894 24.2565 4.95825C24.318 5.13756 24.3488 5.22722 24.3817 5.30675C24.8019 6.32233 25.7868 7.0119 26.9115 7.07807C26.9996 7.08325 27.1033 7.08325 27.3108 7.08325C27.8493 7.08325 28.1185 7.08325 28.3337 7.10396C30.4088 7.30369 32.0504 8.89838 32.256 10.9142C32.2773 11.1232 32.2773 11.3714 32.2773 11.8677V22.9499C32.2773 25.3301 32.2773 26.5203 31.8004 27.4294C31.381 28.2291 30.7117 28.8792 29.8885 29.2867C28.9526 29.7499 27.7275 29.7499 25.2773 29.7499H10.1106C7.6604 29.7499 6.43528 29.7499 5.49942 29.2867C4.67621 28.8792 4.00692 28.2291 3.58747 27.4294C3.11063 26.5203 3.11063 25.3301 3.11063 22.9499V11.8677Z" stroke="#BEBEBE" stroke-width="2" stroke-linecap="round" stroke-linejoin="round"/>
<path d="M17.694 23.3749C20.9156 23.3749 23.5273 20.8379 23.5273 17.7083C23.5273 14.5786 20.9156 12.0416 17.694 12.0416C14.4723 12.0416 11.8606 14.5786 11.8606 17.7083C11.8606 20.8379 14.4723 23.3749 17.694 23.3749Z" stroke="#BEBEBE" stroke-width="2" stroke-linecap="round" stroke-linejoin="round"/>
</g>
</g>
</svg>
