<svg width="31" height="28" viewBox="0 0 31 28" fill="none" xmlns="http://www.w3.org/2000/svg">
<g id="tap_camera">
<path id="Union (Stroke)" fill-rule="evenodd" clip-rule="evenodd" d="M18.6137 1.99161H12.3863C10.9119 1.99161 9.71669 3.17794 9.71669 4.64134C9.71669 5.18785 9.5435 5.72489 9.28436 6.15054C9.07123 6.50064 8.41741 7.3713 7.20214 7.3713H4.01313C2.90493 7.3713 2.00656 8.26298 2.00656 9.36291V24.0168C2.00656 25.1167 2.90493 26.0084 4.01313 26.0084H26.9869C28.0951 26.0084 28.9934 25.1167 28.9934 24.0168V9.36291C28.9934 8.26298 28.0951 7.3713 26.9869 7.3713H23.7978C22.5826 7.3713 21.9288 6.50064 21.7156 6.15054C21.4565 5.72489 21.2833 5.18784 21.2833 4.64134C21.2833 3.17794 20.0881 1.99161 18.6137 1.99161ZM18.6137 0C21.1963 0 23.2899 2.078 23.2899 4.64134C23.2899 4.93474 23.5022 5.37969 23.7978 5.37969H26.9869C29.2033 5.37969 31 7.16304 31 9.36291V24.0168C31 26.2166 29.2033 28 26.9869 28H4.01313C1.79674 28 0 26.2166 0 24.0168V9.36291C0 7.16304 1.79674 5.37969 4.01313 5.37969H7.20214C7.49774 5.37969 7.71013 4.93474 7.71013 4.64134C7.71013 2.078 9.80373 0 12.3863 0H18.6137Z" fill="#C0C0C0"/>
<path id="Ellipse 40 (Stroke)" fill-rule="evenodd" clip-rule="evenodd" d="M15.5 20.9463C18.2318 20.9463 20.4463 18.7318 20.4463 16C20.4463 13.2682 18.2318 11.0537 15.5 11.0537C12.7682 11.0537 10.5537 13.2682 10.5537 16C10.5537 18.7318 12.7682 20.9463 15.5 20.9463ZM15.5 23C19.366 23 22.5 19.866 22.5 16C22.5 12.134 19.366 9 15.5 9C11.634 9 8.5 12.134 8.5 16C8.5 19.866 11.634 23 15.5 23Z" fill="#C0C0C0"/>
</g>
</svg>
