<svg width="16" height="15" viewBox="0 0 16 15" fill="none" xmlns="http://www.w3.org/2000/svg">
<path d="M4.05656 11.8659C3.65642 11.8659 3.68769 11.4867 3.41874 11.2463C3.07763 10.9442 2.72187 10.5001 2.78091 10.007V8.14804C2.82683 7.77201 3.13667 7.17998 3.41874 6.90875L9.15918 1.95158C10.5039 0.613917 11.5627 0.0682436 12.9861 1.33193C14.4096 2.59562 14.3309 4.33179 12.9861 5.66945L7.88353 10.6266C7.60801 10.904 7.00802 11.1846 6.60787 11.2463L4.69439 11.8659C4.58287 11.8721 4.16152 11.8659 4.05656 11.8659ZM11.0727 1.33193C10.5676 1.33193 10.2431 2.12739 9.79701 2.57123L4.05656 7.52839C3.92537 7.65784 4.0828 7.96927 4.05656 8.14804V10.6266C3.93849 10.5218 4.03033 10.83 4.05656 10.6266C4.17464 10.7314 4.47792 10.6574 4.69439 10.6266H6.60787C6.79811 10.5958 7.1145 10.1364 7.2457 10.007L12.3483 5.04981C13.1617 4.23612 13.5356 3.61916 12.3483 2.57123C11.8235 2.09657 11.4794 1.33193 11.0727 1.33193Z" fill="#C0C0C0"/>
<path d="M11.5238 6.86865C11.5112 6.86865 11.5364 6.86865 11.5238 6.86865C9.56187 6.66477 8.07874 5.15978 7.77691 3.12101C7.73918 2.85136 8.14357 2.54244 8.40139 2.4964C8.65921 2.45694 8.98186 2.85136 9.02587 3.12101C9.26483 4.71257 9.98947 5.4616 11.5238 5.61944C11.7816 5.64574 12.1734 5.9744 12.1483 6.24404C12.1168 6.49396 11.7628 6.86865 11.5238 6.86865Z" fill="#C0C0C0"/>
</svg>
