<svg width="24" height="24" viewBox="0 0 24 24" fill="none" xmlns="http://www.w3.org/2000/svg">
<g id="vuesax/outline/edit-2">
<g id="edit-2">
<g id="Vector">
<path d="M5.00001 19C4.37264 19 4.42168 18.388 4.00001 18C3.4652 17.5125 2.90744 16.7958 3.00001 16V13C3.072 12.3932 3.55777 11.4377 4.00001 11L13 2.99999C15.1084 0.841235 16.7682 -0.0393865 19 1.99999C21.2318 4.03936 21.1084 6.84124 19 8.99999L11 17C10.5681 17.4477 9.62737 17.9005 9.00001 18L6.00001 19C5.82517 19.0099 5.16456 19 5.00001 19ZM16 1.99999C15.2081 1.99999 14.6994 3.28372 14 3.99999L5.00001 12C4.79431 12.2089 5.04114 12.7115 5.00001 13V17C4.81488 16.8309 4.95887 17.3283 5.00001 17C5.18513 17.1691 5.66061 17.0497 6.00001 17H9.00001C9.29826 16.9502 9.79431 16.2089 10 16L18 7.99999C19.2753 6.68683 19.8615 5.69118 18 3.99999C17.1772 3.23398 16.6377 1.99999 16 1.99999Z" fill="#C0C0C0"/>
</g>
<g id="Vector_2">
<path d="M17 11C16.9799 11 17.0202 11 17 11C13.8583 10.6736 11.4834 8.2641 11 5C10.9396 4.5683 11.5872 4.07371 12 4C12.4129 3.93683 12.9296 4.5683 13 5C13.3827 7.5481 14.5431 8.7473 17 9C17.4129 9.04212 18.0403 9.5683 18 10C17.9497 10.4001 17.3827 11 17 11Z" fill="#C0C0C0"/>
</g>
</g>
</g>
</svg>
