<svg width="110" height="126" viewBox="0 0 110 126" fill="none" xmlns="http://www.w3.org/2000/svg">
<rect width="110" height="126" rx="20" fill="#F9FBF9"/>
<rect x="17" y="92" width="76" height="21" rx="10.5" fill="#27C841"/>
<path fill-rule="evenodd" clip-rule="evenodd" d="M32.6611 96.1439C32.4287 96.0556 32.1721 96.1778 32.0801 96.4205L31.6029 97.6785L34.1574 98.6458L34.5492 97.3616C34.6255 97.1116 34.5007 96.8426 34.2673 96.754L32.6611 96.1439ZM34.1964 99.2806L31.4126 98.2264L30.3496 101.595C30.0322 102.601 29.8703 103.655 29.8703 104.715V107.245C29.8703 107.748 30.0804 108.226 30.444 108.549C30.7334 108.806 31.099 108.947 31.4767 108.947H35.9684C36.2705 108.947 36.5644 108.843 36.8055 108.65C36.9833 108.508 37.1096 108.305 37.1633 108.076L37.1857 107.98C37.2461 107.722 37.2112 107.45 37.088 107.218L36.1957 105.54L37.6509 103.585C37.7686 103.399 37.9701 102.715 37.2345 101.843L34.1964 99.2806ZM34.653 98.9194L35.0735 97.5412C35.2413 96.9912 34.9667 96.3994 34.4532 96.2044L32.847 95.5943C32.3358 95.4001 31.7713 95.6689 31.5688 96.2027L30.9818 97.7504L29.827 101.41C29.4908 102.476 29.3193 103.592 29.3193 104.715V107.245C29.3193 107.921 29.6014 108.562 30.0898 108.996C30.4784 109.342 30.9694 109.531 31.4767 109.531H35.9684C36.3904 109.531 36.8009 109.385 37.1376 109.116C37.4162 108.893 37.614 108.576 37.6981 108.217L37.7205 108.121C37.8148 107.718 37.7603 107.293 37.568 106.931L36.857 105.595L38.0939 103.932L38.0984 103.926C38.3795 103.501 38.5428 102.503 37.6281 101.433L37.613 101.416L34.653 98.9194ZM33.4668 100.279C33.5605 100.152 33.7336 100.129 33.8535 100.229L36.297 102.251C36.4169 102.35 36.4382 102.534 36.3446 102.661C36.2509 102.788 36.0778 102.81 35.9578 102.711L33.5144 100.689C33.3944 100.59 33.3732 100.406 33.4668 100.279Z" fill="white"/>
<path fill-rule="evenodd" clip-rule="evenodd" d="M64.9436 95.5312L66.8015 96.4961L68.9109 101.316V107.85L67.5235 109.531H61.5215L60.3236 107.789L61.1478 105.007L58.9109 100.149L59.3805 98.198L64.9436 95.5312ZM61.7007 105.299L61.0738 107.415H68.2997V101.454L66.4153 97.1476L59.6453 100.273L61.6676 104.665H63.1048V105.299H61.7007ZM59.6824 99.5609L65.8522 96.7128L64.933 96.2355L59.9024 98.647L59.6824 99.5609ZM67.9409 108.05H61.2539L61.836 108.896H67.2424L67.9409 108.05Z" fill="white"/>
<path d="M46.7598 106.648C44.8965 106.648 43.5605 105.623 43.5254 104.141H45.3066C45.3359 104.773 45.9512 105.189 46.7715 105.195C47.6152 105.189 48.2188 104.721 48.2129 104.035C48.2188 103.344 47.6035 102.857 46.6074 102.852H45.8223V101.551H46.6074C47.4453 101.551 48.0312 101.094 48.0254 100.426C48.0312 99.7754 47.5332 99.3301 46.7832 99.3359C46.0332 99.3301 45.418 99.752 45.3887 100.402H43.7012C43.7305 98.9434 45.043 97.9297 46.7832 97.9297C48.5527 97.9297 49.7305 98.9785 49.7246 100.32C49.7305 101.27 49.0684 101.943 48.1191 102.113V102.184C49.3672 102.336 50.0527 103.092 50.041 104.152C50.0527 105.605 48.6758 106.648 46.7598 106.648Z" fill="white"/>
<path d="M78.2227 98.0469V106.531H76.4531V99.7227H76.4062L74.4609 100.941V99.3828L76.5586 98.0469H78.2227Z" fill="white"/>
<rect x="29.5753" y="30" width="52.8533" height="52.8985" fill="#FFFAE9"/>
<path d="M52.8022 48.3736C52.5471 48.3736 52.2977 48.2977 52.0855 48.1554C51.8734 48.0131 51.708 47.8108 51.6104 47.5742C51.5128 47.3376 51.4872 47.0772 51.537 46.826C51.5868 46.5748 51.7096 46.3441 51.89 46.163C52.0704 45.9819 52.3003 45.8585 52.5505 45.8086C52.8008 45.7586 53.0601 45.7842 53.2959 45.8823C53.5316 45.9803 53.7331 46.1463 53.8748 46.3592C54.0165 46.5722 54.0922 46.8225 54.0922 47.0787C54.0915 47.4219 53.9554 47.7509 53.7136 47.9936C53.4718 48.2363 53.1441 48.3729 52.8022 48.3736ZM52.8022 46.8506C52.7573 46.8506 52.7133 46.864 52.676 46.889C52.6386 46.9141 52.6095 46.9497 52.5923 46.9914C52.5751 47.0331 52.5706 47.0789 52.5794 47.1231C52.5882 47.1674 52.6098 47.208 52.6416 47.2399C52.6733 47.2718 52.7138 47.2935 52.7579 47.3023C52.802 47.3111 52.8476 47.3066 52.8891 47.2894C52.9307 47.2721 52.9661 47.2429 52.9911 47.2053C53.0161 47.1678 53.0294 47.1238 53.0294 47.0787C53.0294 47.0182 53.0054 46.9602 52.9628 46.9174C52.9202 46.8746 52.8625 46.8506 52.8022 46.8506Z" fill="#D04A45"/>
<path d="M76.534 39.0401C76.2789 39.0401 76.0295 38.9642 75.8173 38.8219C75.6052 38.6796 75.4399 38.4773 75.3422 38.2407C75.2446 38.0041 75.219 37.7437 75.2688 37.4925C75.3186 37.2413 75.4414 37.0106 75.6219 36.8295C75.8023 36.6484 76.0321 36.525 76.2824 36.4751C76.5326 36.4251 76.792 36.4508 77.0277 36.5488C77.2634 36.6468 77.4649 36.8128 77.6066 37.0257C77.7484 37.2387 77.824 37.489 77.824 37.7452C77.8233 38.0884 77.6872 38.4174 77.4454 38.6601C77.2036 38.9028 76.8759 39.0394 76.534 39.0401ZM76.534 37.5171C76.4891 37.5171 76.4452 37.5305 76.4078 37.5555C76.3704 37.5806 76.3413 37.6162 76.3241 37.6579C76.3069 37.6996 76.3024 37.7454 76.3112 37.7896C76.32 37.8339 76.3416 37.8745 76.3734 37.9064C76.4052 37.9383 76.4456 37.96 76.4897 37.9688C76.5338 37.9776 76.5794 37.9731 76.621 37.9559C76.6625 37.9386 76.698 37.9094 76.7229 37.8719C76.7479 37.8344 76.7612 37.7903 76.7612 37.7452C76.7612 37.6847 76.7373 37.6267 76.6947 37.5839C76.6521 37.5411 76.5943 37.5171 76.534 37.5171Z" fill="#D04A45"/>
<path d="M34.4632 75.4479C34.2301 75.4479 34.0023 75.3785 33.8085 75.2485C33.6147 75.1186 33.4637 74.9338 33.3745 74.7176C33.2853 74.5015 33.262 74.2637 33.3074 74.0342C33.3529 73.8047 33.4651 73.5939 33.6299 73.4285C33.7947 73.2631 34.0047 73.1504 34.2333 73.1048C34.4619 73.0591 34.6988 73.0825 34.9141 73.1721C35.1295 73.2616 35.3135 73.4132 35.443 73.6078C35.5725 73.8023 35.6416 74.031 35.6416 74.265C35.6416 74.5787 35.5174 74.8796 35.2964 75.1014C35.0755 75.3233 34.7757 75.4479 34.4632 75.4479ZM34.4632 74.1489C34.4403 74.1489 34.418 74.1557 34.399 74.1685C34.38 74.1812 34.3652 74.1994 34.3564 74.2206C34.3477 74.2418 34.3454 74.2651 34.3498 74.2876C34.3543 74.3101 34.3653 74.3308 34.3815 74.347C34.3976 74.3632 34.4182 74.3743 34.4406 74.3788C34.4631 74.3832 34.4863 74.3809 34.5074 74.3722C34.5285 74.3634 34.5466 74.3485 34.5593 74.3294C34.572 74.3103 34.5788 74.2879 34.5788 74.265C34.5771 74.2354 34.5642 74.2075 34.5427 74.1872C34.5212 74.1669 34.4927 74.1556 34.4632 74.1556V74.1489Z" fill="#D04A45"/>
<path d="M46.2069 73.2873C45.7203 73.3244 45.2309 73.2916 44.7535 73.1899L44.6897 73.1726C44.3559 73.0871 44.0052 73.0935 43.6747 73.1913C43.4234 73.2789 43.1658 73.3471 42.9042 73.3953C41.9197 73.5713 40.5288 73.6847 39.4859 73.2326C39.3773 73.1951 39.2712 73.1505 39.1684 73.0992C39.1219 73.0766 39.0621 73.0499 38.9917 73.0192C38.5147 72.8072 37.6286 72.4151 36.9989 71.6856C36.6003 71.2735 31.5665 65.9509 33.744 59.9389C34.29 58.4292 35.4007 57.2623 36.7903 56.7381C36.8966 56.6972 37.0082 56.6586 37.1251 56.6221C37.9707 56.3664 38.8621 56.3012 39.7356 56.4314C41.2887 56.6434 42.495 56.7755 43.0676 56.7955C43.8677 56.6709 44.6529 56.4645 45.4111 56.1793C46.4097 55.7959 47.4854 55.6587 48.5478 55.7792C49.9467 55.9526 51.072 56.5794 51.8 57.5717C51.8359 57.6197 51.8757 57.6677 51.9142 57.7144C51.982 57.797 52.0471 57.8784 52.1056 57.9611C53.3012 59.6695 53.6108 62.2847 53.0355 65.7362C53.0103 65.8856 52.4018 69.3517 49.7979 71.6936C48.8186 72.5981 47.5705 73.1547 46.2454 73.2779L46.2069 73.2873ZM45.1002 71.7189C45.4399 71.7872 45.7874 71.8069 46.1325 71.7776C47.1247 71.6785 48.0576 71.2571 48.7896 70.5773C50.9922 68.5969 51.5409 65.5255 51.5462 65.4948C51.8917 63.4037 52.0524 60.547 50.8621 58.8386C50.8275 58.7879 50.785 58.7373 50.7425 58.6866C50.7 58.6359 50.6269 58.5532 50.5751 58.4745C50.0902 57.8077 49.3436 57.4076 48.3525 57.2889C47.5264 57.2 46.6911 57.3102 45.9159 57.6103C45.0326 57.9485 44.1141 58.1856 43.1779 58.3172H43.1287H43.0809C42.297 58.2985 40.7161 58.0998 39.5271 57.9371C38.8716 57.8361 38.202 57.8816 37.5662 58.0704C37.4798 58.0971 37.3974 58.1251 37.3164 58.1558C36.3373 58.5266 35.5495 59.3667 35.1536 60.4603C33.2644 65.6815 38.0311 70.596 38.0763 70.6427L38.1095 70.6787C38.5267 71.1601 39.1976 71.4575 39.5975 71.6349C39.6852 71.6736 39.7609 71.7069 39.8193 71.7362C39.8567 71.7545 39.8954 71.7701 39.9349 71.7829C39.9801 71.8003 40.0239 71.8149 40.0797 71.8389C40.6191 72.0737 41.5504 72.095 42.6385 71.9016C42.8262 71.8664 43.0109 71.8169 43.1911 71.7536C43.8111 71.5588 44.4737 71.5468 45.1002 71.7189Z" fill="#D04A45"/>
<path d="M40.8937 64.6839C41.3943 64.649 41.7676 64.149 41.7273 63.5671C41.6871 62.9851 41.2486 62.5416 40.748 62.5765C40.2473 62.6114 39.874 63.1114 39.9143 63.6934C39.9545 64.2753 40.393 64.7188 40.8937 64.6839Z" fill="#D04A45"/>
<path d="M43.6442 67.9846C41.6514 68.118 40.1249 66.9177 40.1023 66.899C40.0061 66.8128 39.9466 66.6927 39.9362 66.5637C39.9258 66.4346 39.9652 66.3065 40.0464 66.2059C40.1275 66.1052 40.2441 66.0398 40.372 66.0231C40.4999 66.0064 40.6293 66.0397 40.7334 66.1162C40.8582 66.2149 43.5087 68.274 46.1803 65.7161C46.2767 65.6238 46.4056 65.5737 46.5388 65.5768C46.672 65.5799 46.7985 65.636 46.8904 65.7328C46.9824 65.8295 47.0323 65.9589 47.0292 66.0926C47.0261 66.2263 46.9702 66.3533 46.8738 66.4456C45.7632 67.5085 44.6445 67.9193 43.6442 67.9846Z" fill="#D04A45"/>
<path d="M42.9587 57.5931C42.7894 57.6048 42.6211 57.5584 42.4816 57.4614C42.3421 57.3645 42.2395 57.2228 42.1908 57.0596C42.1483 56.9263 41.1864 53.6002 45.0338 50.0447C45.1815 49.9138 45.3745 49.8463 45.5712 49.8565C45.768 49.8667 45.9529 49.9539 46.0864 50.0994C46.2198 50.2449 46.2912 50.4371 46.2852 50.6348C46.2791 50.8325 46.1962 51.0199 46.0541 51.1569C42.944 54.0309 43.603 56.5182 43.6322 56.6249C43.6863 56.8165 43.6631 57.0219 43.5676 57.1965C43.4722 57.3712 43.3121 57.5012 43.1221 57.5584C43.0691 57.5764 43.0143 57.588 42.9587 57.5931Z" fill="#D04A45"/>
<path d="M42.8722 53.7587C42.8722 53.7587 38.4668 53.4 38.8202 48.911C38.8216 48.911 42.3036 48.4015 42.8722 53.7587Z" fill="#D04A45"/>
<path d="M40.6137 73.1763C40.6137 73.1763 40.3666 76.4037 38.7325 80.3499L40.6137 73.1763Z" fill="#EBCE3E"/>
<path d="M38.5811 81.1369C38.5273 81.1266 38.4747 81.1105 38.4244 81.0889C38.2294 81.0072 38.0748 80.8513 37.9943 80.6552C37.9138 80.4592 37.9142 80.2391 37.9952 80.0433C39.5616 76.2584 39.8153 73.1457 39.818 73.1084C39.8342 72.8962 39.9337 72.6991 40.0947 72.5605C40.2556 72.422 40.4648 72.3533 40.6762 72.3695C40.8876 72.3858 41.0839 72.4857 41.222 72.6473C41.36 72.8089 41.4284 73.0188 41.4122 73.2311C41.4016 73.3644 41.1346 76.6332 39.4712 80.6514C39.4019 80.8234 39.2752 80.9658 39.1129 81.0543C38.9505 81.1429 38.7626 81.1721 38.5811 81.1369Z" fill="#D04A45"/>
<path d="M46.3849 72.939C46.3849 72.939 46.0209 76.1557 46.8831 80.3407L46.3849 72.939Z" fill="#EBCE3E"/>
<path d="M46.8817 81.141C46.9361 81.1409 46.9904 81.1355 47.0438 81.125C47.2508 81.082 47.4323 80.9582 47.5484 80.7809C47.6645 80.6036 47.7057 80.3872 47.6629 80.1794C46.8366 76.1652 47.1727 73.0604 47.1767 73.0298C47.1884 72.9253 47.1796 72.8195 47.1506 72.7185C47.1217 72.6175 47.0732 72.5231 47.008 72.4409C46.9427 72.3587 46.8619 72.2901 46.7703 72.2392C46.6787 72.1883 46.5779 72.1561 46.4739 72.1442C46.3698 72.1324 46.2644 72.1413 46.1638 72.1703C46.0631 72.1994 45.9692 72.2481 45.8872 72.3136C45.8053 72.3791 45.7371 72.4602 45.6864 72.5521C45.6357 72.6441 45.6035 72.7453 45.5917 72.8497C45.5771 72.9831 45.2237 76.2412 46.1019 80.5035C46.1391 80.6835 46.237 80.8452 46.379 80.9613C46.521 81.0774 46.6986 81.1408 46.8817 81.141Z" fill="#D04A45"/>
<path d="M47.6953 65.1284C48.1498 65.0968 48.504 64.8638 48.4863 64.6081C48.4686 64.3524 48.0858 64.1708 47.6313 64.2024C47.1767 64.2341 46.8226 64.4671 46.8402 64.7228C46.8579 64.9785 47.2407 65.1601 47.6953 65.1284Z" fill="#F2985C"/>
<path d="M39.5727 66.2609C40.0284 66.2288 40.3833 65.9951 40.3654 65.7388C40.3475 65.4825 39.9636 65.3006 39.508 65.3327C39.0524 65.3647 38.6975 65.5984 38.7153 65.8547C38.7332 66.111 39.1171 66.2929 39.5727 66.2609Z" fill="#F2985C"/>
<path d="M46.527 64.1852C46.4638 64.1894 46.4005 64.1784 46.3424 64.1532L44.4824 63.353L45.8428 61.9073C45.916 61.8328 46.0154 61.79 46.1196 61.7881C46.2238 61.7863 46.3246 61.8255 46.4004 61.8974C46.4762 61.9692 46.5209 62.0681 46.5249 62.1726C46.529 62.2772 46.4921 62.3792 46.4221 62.4568L45.8468 63.0676L46.6506 63.413C46.7329 63.4485 46.8009 63.5109 46.8436 63.59C46.8862 63.6692 46.9011 63.7604 46.8857 63.8491C46.8704 63.9377 46.8257 64.0186 46.7589 64.0786C46.6922 64.1386 46.6072 64.1743 46.5177 64.1798L46.527 64.1852Z" fill="#D04A45"/>
<path d="M36.4315 39.3394C36.1763 39.3394 35.9269 39.2635 35.7148 39.1212C35.5027 38.9789 35.3373 38.7767 35.2397 38.54C35.142 38.3034 35.1165 38.043 35.1663 37.7918C35.216 37.5406 35.3389 37.3099 35.5193 37.1288C35.6997 36.9477 35.9296 36.8244 36.1798 36.7744C36.43 36.7244 36.6894 36.7501 36.9251 36.8481C37.1609 36.9461 37.3623 37.1121 37.5041 37.325C37.6458 37.538 37.7215 37.7884 37.7215 38.0445C37.7208 38.3877 37.5846 38.7167 37.3429 38.9594C37.1011 39.2021 36.7734 39.3387 36.4315 39.3394ZM36.4315 37.8164C36.3865 37.8164 36.3426 37.8298 36.3053 37.8549C36.2679 37.8799 36.2388 37.9155 36.2216 37.9572C36.2044 37.9989 36.1999 38.0447 36.2087 38.089C36.2174 38.1332 36.2391 38.1738 36.2708 38.2057C36.3026 38.2376 36.3431 38.2593 36.3872 38.2681C36.4312 38.2769 36.4769 38.2724 36.5184 38.2552C36.5599 38.2379 36.5954 38.2087 36.6204 38.1712C36.6453 38.1337 36.6587 38.0896 36.6587 38.0445C36.6587 37.984 36.6347 37.926 36.5921 37.8832C36.5495 37.8404 36.4917 37.8164 36.4315 37.8164Z" fill="#D04A45"/>
<path d="M73.0827 70.586C72.3969 70.7317 71.6939 70.7788 70.9949 70.726L70.901 70.7142C70.4099 70.6569 69.9123 70.7331 69.4607 70.9349C69.1199 71.1069 68.7665 71.2525 68.4034 71.3706C67.0369 71.8076 65.0767 72.2366 63.508 71.7949C63.3475 71.7635 63.1889 71.7228 63.0332 71.6729C62.962 71.6486 62.8713 71.6245 62.7657 71.5937C62.0469 71.3837 60.7119 70.999 59.6686 70.0913C59.0193 69.5848 50.852 63.0152 52.8075 54.077C53.297 51.836 54.6562 49.9705 56.5336 48.9593C56.6772 48.8811 56.8291 48.8051 56.9873 48.7316C58.1423 48.2078 59.3984 47.9445 60.6665 47.9604C62.9143 47.9645 64.655 47.9173 65.474 47.8381C66.5891 47.5091 67.6672 47.066 68.6915 46.516C70.0401 45.7823 71.5445 45.3811 73.0792 45.346C75.1006 45.3188 76.8189 45.9865 78.0466 47.261C78.1042 47.3231 78.1711 47.3832 78.2357 47.4419C78.3466 47.5455 78.4574 47.6492 78.5571 47.7648C80.5654 49.9565 81.5186 53.5989 81.3677 58.5953C81.3595 58.811 81.1545 63.8379 77.8928 67.6537C76.6709 69.1219 75.0011 70.1492 73.1395 70.5782L73.0827 70.586ZM71.2089 68.5748C71.7051 68.6089 72.2037 68.5718 72.6894 68.4645C74.0852 68.1357 75.3351 67.3589 76.2478 66.2531C79.005 63.0237 79.2032 58.5702 79.206 58.5268C79.2979 55.498 78.9857 51.4219 76.9674 49.2284C76.9076 49.1649 76.8381 49.1014 76.7685 49.0379C76.699 48.9743 76.5784 48.8611 76.4893 48.7685C75.6748 47.9226 74.5345 47.4997 73.1036 47.52C71.9116 47.5529 70.7445 47.8693 69.699 48.4429C68.5017 49.0914 67.2354 49.6034 65.9238 49.9694L65.8547 49.9836L65.7856 49.9979C64.668 50.121 62.381 50.1444 60.6591 50.141C59.7069 50.1248 58.7628 50.3192 57.8944 50.7103C57.7773 50.7656 57.6642 50.8219 57.5572 50.879C56.2336 51.5913 55.2726 52.9312 54.9175 54.557C53.2228 62.3013 60.9375 68.3454 61.0152 68.4014L61.0712 68.4463C61.7557 69.0486 62.766 69.3406 63.3686 69.5161L63.7046 69.6162C63.7606 69.6354 63.8178 69.6509 63.8758 69.6627C63.9447 69.6757 64.008 69.6899 64.0926 69.7134C64.9035 69.9355 66.2335 69.7939 67.7464 69.3112C68.0064 69.2256 68.2595 69.1202 68.5033 68.9958C69.3471 68.6013 70.2859 68.4559 71.2093 68.5767L71.2089 68.5748Z" fill="#49AF59"/>
<path d="M63.9062 59.4109C64.6118 59.2656 65.0478 58.4859 64.88 57.6694C64.7122 56.8529 64.004 56.3089 63.2984 56.4542C62.5927 56.5995 62.1567 57.3792 62.3245 58.1956C62.4924 59.0121 63.2005 59.5562 63.9062 59.4109Z" fill="#49AF59"/>
<path d="M70.5956 58.0335C71.3013 57.8881 71.7373 57.1085 71.5695 56.292C71.4016 55.4755 70.6935 54.9314 69.9878 55.0767C69.2821 55.222 68.8461 56.0017 69.014 56.8182C69.1818 57.6347 69.89 58.1788 70.5956 58.0335Z" fill="#49AF59"/>
<path d="M68.429 63.5674C65.6139 64.1471 63.2196 62.7296 63.1884 62.701C63.0312 62.5989 62.9201 62.4396 62.8786 62.2569C62.8371 62.0742 62.8684 61.8825 62.966 61.7224C63.0635 61.5624 63.2196 61.4465 63.4011 61.3995C63.5826 61.3525 63.7753 61.378 63.9382 61.4706C64.1337 61.588 68.2969 63.9954 71.6086 59.8639C71.6664 59.7863 71.7392 59.7211 71.8227 59.6722C71.9062 59.6233 71.9987 59.5917 72.0947 59.5793C72.1907 59.5669 72.2882 59.5739 72.3813 59.5999C72.4745 59.626 72.5615 59.6705 72.637 59.7309C72.7126 59.7912 72.7752 59.8662 72.8212 59.9513C72.8671 60.0363 72.8955 60.1298 72.9045 60.2261C72.9135 60.3224 72.9031 60.4195 72.8737 60.5117C72.8444 60.6038 72.7968 60.6892 72.7338 60.7626C71.3518 62.4889 69.8375 63.2774 68.429 63.5674Z" fill="#49AF59"/>
<path d="M65.4773 48.9816C65.2396 49.0314 64.992 48.9991 64.7751 48.89C64.5582 48.781 64.3847 48.6016 64.283 48.3812C64.1953 48.1911 62.1977 43.6741 66.9961 37.8998C67.1826 37.6903 67.4431 37.5613 67.7228 37.5402C68.0024 37.519 68.2793 37.6072 68.495 37.7862C68.7107 37.9652 68.8483 38.221 68.8787 38.4996C68.9092 38.7782 68.8301 39.0578 68.6583 39.2794C64.779 43.9461 66.1899 47.3426 66.2557 47.4828C66.3703 47.7439 66.3772 48.0397 66.2748 48.306C66.1724 48.5722 65.969 48.7874 65.7088 48.9048C65.6351 48.9397 65.5574 48.9656 65.4773 48.9816Z" fill="#49AF59"/>
<path d="M64.6293 43.5685C64.6293 43.5685 58.2935 43.9003 57.9433 37.4799C57.9433 37.4799 62.8019 36.0902 64.6293 43.5685Z" fill="#49AF59"/>
<path d="M64.7883 71.516C64.7883 71.516 66.2253 75.911 66.2156 82.0204L64.7883 71.516Z" fill="white"/>
<path d="M66.9833 81.9818C66.9058 81.9979 66.8269 82.0064 66.7481 82.0073C66.5962 82.0112 66.4462 81.9879 66.3067 81.9388C66.1673 81.8896 66.0412 81.8157 65.9357 81.721C65.8302 81.6264 65.7473 81.5131 65.6918 81.3874C65.6364 81.2618 65.6094 81.1264 65.6125 80.9891C65.7403 75.6473 64.4511 71.8017 64.4393 71.7635C64.3909 71.6334 64.3722 71.4948 64.3843 71.3557C64.3964 71.2166 64.4391 71.0799 64.5099 70.9536C64.5807 70.8273 64.6782 70.7141 64.7965 70.6205C64.9148 70.5269 65.0517 70.4548 65.199 70.4086C65.3462 70.3623 65.501 70.3428 65.6541 70.3512C65.8072 70.3596 65.9555 70.3957 66.0904 70.4574C66.2253 70.5191 66.3439 70.6052 66.4393 70.7105C66.5348 70.8158 66.6051 70.9383 66.6461 71.0707C66.7036 71.2354 68.0559 75.2729 67.9188 80.9433C67.9133 81.1819 67.8174 81.4152 67.6472 81.6042C67.4769 81.7932 67.2426 81.9265 66.9833 81.9818Z" fill="#48A757"/>
<path d="M74.3769 69.5414C74.3769 69.5414 74.7902 74.1472 77.2071 79.7569L74.3769 69.5414Z" fill="white"/>
<path d="M78.2345 81.3894C78.3111 81.3738 78.3859 81.3499 78.4574 81.3182C78.7361 81.1981 78.9557 80.9723 79.0679 80.6905C79.1801 80.4087 79.1758 80.094 79.0558 79.8155C76.737 74.4366 76.3164 69.9938 76.3131 69.9498C76.2996 69.7999 76.2566 69.6542 76.1867 69.5209C76.1168 69.3877 76.0213 69.2695 75.9057 69.1732C75.79 69.0768 75.6565 69.0042 75.5128 68.9595C75.3691 68.9147 75.2179 68.8987 75.0679 68.9123C74.9179 68.926 74.7721 68.969 74.6387 69.0389C74.5053 69.1089 74.387 69.2044 74.2906 69.32C74.1941 69.4356 74.1214 69.5691 74.0765 69.7128C74.0316 69.8565 74.0155 70.0076 74.029 70.1574C74.045 70.3487 74.4878 75.0127 76.9485 80.7223C77.0528 80.9648 77.2378 81.1637 77.4722 81.2853C77.7066 81.4069 77.9759 81.4437 78.2345 81.3894Z" fill="#48A757"/>
<path d="M73.6669 58.7375C74.3075 58.6056 74.7671 58.2078 74.6934 57.8491C74.6196 57.4903 74.0405 57.3064 73.3998 57.4384C72.7591 57.5703 72.2995 57.9681 72.3733 58.3268C72.447 58.6856 73.0262 58.8695 73.6669 58.7375Z" fill="#F2985C"/>
<path d="M61.7003 61.2019C62.341 61.07 62.8006 60.6722 62.7268 60.3134C62.6531 59.9547 62.0739 59.7708 61.4332 59.9027C60.7926 60.0347 60.333 60.4324 60.4067 60.7912C60.4805 61.1499 61.0596 61.3338 61.7003 61.2019Z" fill="#F2985C"/>
<path d="M61.919 78.8824C61.6639 78.8824 61.4145 78.8065 61.2023 78.6642C60.9902 78.5219 60.8249 78.3196 60.7272 78.083C60.6296 77.8464 60.604 77.586 60.6538 77.3348C60.7036 77.0836 60.8265 76.8529 61.0069 76.6718C61.1873 76.4907 61.4171 76.3673 61.6674 76.3174C61.9176 76.2674 62.177 76.293 62.4127 76.391C62.6484 76.4891 62.8499 76.655 62.9916 76.868C63.1334 77.081 63.209 77.3313 63.209 77.5874C63.2083 77.9307 63.0722 78.2596 62.8304 78.5023C62.5887 78.745 62.2609 78.8817 61.919 78.8824ZM61.919 77.3594C61.8741 77.3594 61.8302 77.3728 61.7928 77.3978C61.7555 77.4229 61.7263 77.4585 61.7091 77.5002C61.692 77.5418 61.6874 77.5877 61.6962 77.6319C61.705 77.6762 61.7266 77.7168 61.7584 77.7487C61.7902 77.7806 61.8306 77.8023 61.8747 77.8111C61.9188 77.8199 61.9645 77.8154 62.006 77.7981C62.0475 77.7809 62.083 77.7516 62.1079 77.7141C62.1329 77.6766 62.1462 77.6326 62.1462 77.5874C62.1462 77.527 62.1223 77.469 62.0797 77.4262C62.0371 77.3834 61.9793 77.3594 61.919 77.3594Z" fill="#D04A45"/>
<rect x="31.5753" y="32" width="48.8533" height="48.8985" stroke="#501B1B" stroke-width="4" stroke-linejoin="round"/>
<rect x="30.0753" y="30.5" width="51.8533" height="51.8985" stroke="#774E4E"/>
<path d="M45.6024 20.8805H44.3558V12.0062H45.6024V20.8805ZM46.8593 16.4434H45.2813V15.4144H46.8593V16.4434ZM43.2302 12.9178C43.2279 13.8455 43.0943 14.7019 42.8296 15.4869C42.5649 16.2696 42.1344 16.9901 41.5382 17.6485C40.9442 18.3046 40.1639 18.8697 39.197 19.3439L38.496 18.3909C39.2902 17.9903 39.9463 17.5368 40.4643 17.0304C40.9822 16.5239 41.3678 15.9496 41.621 15.3073C41.8766 14.6651 42.0043 13.9434 42.0043 13.1423V12.9178H43.2302ZM42.6362 13.9365H38.9967V12.9178H42.6362V13.9365ZM51.1229 13.0559C51.1206 13.514 50.9836 13.9307 50.712 14.3059C50.4426 14.6812 50.0444 14.9942 49.5172 15.2452C48.9924 15.4961 48.3605 15.6595 47.6215 15.7355L47.183 14.7583C47.7953 14.7007 48.3144 14.5845 48.7403 14.4095C49.1685 14.2323 49.4884 14.0262 49.7002 13.7914C49.9143 13.5543 50.0214 13.3092 50.0214 13.0559V12.8108H51.1229V13.0559ZM51.7272 13.0559C51.7249 13.3138 51.8296 13.5601 52.0414 13.7949C52.2555 14.0297 52.5778 14.2346 53.0082 14.4095C53.441 14.5845 53.9682 14.7007 54.5897 14.7583L54.1339 15.7355C53.3973 15.6595 52.7642 15.4972 52.2348 15.2486C51.7076 14.9977 51.3059 14.6846 51.0297 14.3094C50.7534 13.9342 50.6153 13.5163 50.6153 13.0559V12.8108H51.7272V13.0559ZM54.203 13.3218H47.5628V12.3308H54.203V13.3218ZM54.935 17.3377H46.8273V16.3398H54.935V17.3377ZM51.4855 16.7852H50.2493V15.1761H51.4855V16.7852ZM53.9475 20.9012H52.7009V18.9641H47.7251V17.9731H53.9475V20.9012ZM58.0971 14.0228C58.0948 14.7756 58.0027 15.4834 57.8209 16.1464C57.6413 16.8071 57.3662 17.393 56.9956 17.904C56.6273 18.4151 56.1726 18.8052 55.6316 19.0746L54.8685 18.0628C55.3519 17.8395 55.7605 17.5173 56.0943 17.096C56.4281 16.6724 56.6756 16.1982 56.8367 15.6733C57.0002 15.1462 57.0831 14.596 57.0854 14.0228V12.6934H58.0971V14.0228ZM58.3319 14.0228C58.3296 14.5753 58.4056 15.1036 58.5598 15.6077C58.7163 16.1119 58.9523 16.5665 59.2677 16.9717C59.5831 17.3745 59.971 17.6876 60.4314 17.9109L59.6786 18.9019C59.156 18.6441 58.7187 18.2689 58.3664 17.7762C58.0142 17.2813 57.753 16.715 57.5826 16.0773C57.4146 15.4374 57.3317 14.7525 57.334 14.0228V12.6934H58.3319V14.0228ZM62.0716 20.9012H60.825V12.0062H62.0716V20.9012ZM63.3837 16.4883H61.7953V15.4351H63.3837V16.4883ZM66.5285 13.7673C66.5285 14.3359 66.4318 14.8688 66.2385 15.366C66.0474 15.861 65.7596 16.2949 65.3752 16.6678C64.9931 17.0384 64.5257 17.3147 63.9733 17.4965L63.331 16.5193C63.8075 16.3674 64.2081 16.1487 64.5327 15.8633C64.8572 15.5778 65.0978 15.2544 65.2543 14.893C65.4132 14.5315 65.4937 14.1563 65.496 13.7673V12.9972H66.5285V13.7673ZM66.7564 13.7673C66.7564 14.1356 66.8335 14.4901 66.9878 14.8308C67.1443 15.1692 67.3814 15.4719 67.6991 15.739C68.0168 16.006 68.4104 16.2109 68.88 16.3536L68.2447 17.3308C67.7014 17.1581 67.2421 16.8957 66.8669 16.5435C66.4917 16.189 66.2097 15.7746 66.0209 15.3004C65.8344 14.8239 65.7424 14.3128 65.7447 13.7673V12.9972H66.7564V13.7673ZM68.5451 13.643H63.659V12.6485H68.5451V13.643ZM70.7343 18.4461H69.4843V12.02H70.7343V18.4461ZM70.9691 20.7459H64.7778V19.741H70.9691V20.7459ZM66.0382 20.2486H64.7778V17.8591H66.0382V20.2486Z" fill="#005A13"/>
</svg>
