<svg width="22" height="21" viewBox="0 0 22 21" fill="none" xmlns="http://www.w3.org/2000/svg">
<path d="M6.64683 5.88033C3.92847 6.79172 1.84559 9.13188 1 10.4711C2.49999 12.9026 4.75745 14.2271 6.64683 14.8832M6.64683 5.88033C7.45826 5.60828 8.3263 5.46354 9.23496 5.51073C10.3068 5.36818 13.4858 5.86991 17.6268 9.01719L20.9208 5.76729C20.9469 6.96463 20.7325 9.58167 19.6659 10.4711C20.2411 11.0983 21.2972 12.9171 20.9208 15.1749L17.6268 11.925C15.7968 13.2934 11.5564 15.9104 9.23496 15.4315C8.6059 15.4012 7.68157 15.2425 6.64683 14.8832M6.64683 5.88033C7.09126 6.49834 7.96443 8.28171 7.90168 10.4711C7.82326 11.4454 7.46249 13.6919 6.64683 14.8832" stroke="white"/>
<path d="M9.64869 7.98926C10.0541 9.01867 10.5676 11.5187 9.37842 13.2834" stroke="white" stroke-linecap="round"/>
<ellipse cx="5.34784" cy="10.0346" rx="0.869565" ry="0.909091" fill="white"/>
</svg>
