<svg width="58" height="31" viewBox="0 0 58 31" fill="none" xmlns="http://www.w3.org/2000/svg">
<g id="&#236;&#157;&#140;&#236;&#139;&#157;&#235;&#172;&#188; &#237;&#148;&#189;&#237;&#134;&#160;&#234;&#183;&#184;&#235;&#158;&#168;">
<g id="Vector 22">
<path d="M24.2344 3.05367C27.1284 2.69731 35.7116 3.95164 46.8923 11.8198L55.7861 3.69509C55.8567 6.68844 55.2779 13.231 52.398 15.4546C53.9509 17.0226 56.8025 21.5696 55.7861 27.2142L46.8923 19.0894C41.9513 22.5104 30.5024 29.0529 24.2344 27.8556C22.5359 27.7799 20.0402 27.383 17.2464 26.4848C12.1451 24.8447 6.04998 21.5333 2 15.4546C4.28309 12.1066 9.90687 6.25615 17.2464 3.97768C19.4373 3.29757 21.781 2.93571 24.2344 3.05367Z" fill="white"/>
<path d="M17.2464 3.97768C9.90687 6.25615 4.28309 12.1066 2 15.4546C6.04998 21.5333 12.1451 24.8447 17.2464 26.4848M17.2464 3.97768C19.4373 3.29757 21.781 2.93571 24.2344 3.05367C27.1284 2.69731 35.7116 3.95164 46.8923 11.8198L55.7861 3.69509C55.8567 6.68844 55.2779 13.231 52.398 15.4546C53.9509 17.0226 56.8025 21.5696 55.7861 27.2142L46.8923 19.0894C41.9513 22.5104 30.5024 29.0529 24.2344 27.8556C22.5359 27.7799 20.0402 27.383 17.2464 26.4848M17.2464 3.97768C18.4464 5.5227 20.804 9.98112 20.6345 15.4546C20.4228 17.8905 19.4487 23.5066 17.2464 26.4848" stroke="#49B75A" stroke-width="3"/>
</g>
<path id="Ellipse 20" d="M14.764 12.6751C14.764 13.5489 14.065 14.2408 13.223 14.2408C12.3809 14.2408 11.6819 13.5489 11.6819 12.6751C11.6819 11.8012 12.3809 11.1094 13.223 11.1094C14.065 11.1094 14.764 11.8012 14.764 12.6751Z" stroke="#49B75A" stroke-width="2"/>
<path id="Vector 23" d="M25.3513 9.25C26.4459 11.8235 27.8324 18.0735 24.6216 22.4853" stroke="#49B75A" stroke-width="3" stroke-linecap="round"/>
</g>
</svg>
