<svg width="22" height="20" viewBox="0 0 22 20" fill="none" xmlns="http://www.w3.org/2000/svg">
<path d="M9.23496 5.02147C10.3068 4.87893 13.4858 5.38066 17.6268 8.52794L20.9208 5.27804C20.9469 6.47537 20.7325 9.09241 19.6659 9.98186C20.2411 10.609 21.2972 12.4278 20.9208 14.6857L17.6268 11.4358C15.7968 12.8041 11.5564 15.4212 9.23496 14.9422C8.6059 14.912 7.68157 14.7532 6.64683 14.3939C4.75745 13.7379 2.49999 12.4133 1 9.98186C1.84559 8.64263 3.92847 6.30246 6.64683 5.39107C7.45826 5.11903 8.3263 4.97428 9.23496 5.02147Z" fill="white"/>
<path d="M6.64683 5.39107C3.92847 6.30246 1.84559 8.64263 1 9.98186C2.49999 12.4133 4.75745 13.7379 6.64683 14.3939M6.64683 5.39107C7.45826 5.11903 8.3263 4.97428 9.23496 5.02147C10.3068 4.87893 13.4858 5.38066 17.6268 8.52794L20.9208 5.27804C20.9469 6.47537 20.7325 9.09241 19.6659 9.98186C20.2411 10.609 21.2972 12.4278 20.9208 14.6857L17.6268 11.4358C15.7968 12.8041 11.5564 15.4212 9.23496 14.9422C8.6059 14.912 7.68157 14.7532 6.64683 14.3939M6.64683 5.39107C7.09126 6.00908 7.96443 7.79245 7.90168 9.98186C7.82326 10.9562 7.46249 13.2027 6.64683 14.3939" stroke="#49B75A"/>
<path d="M9.64869 7.5C10.0541 8.52941 10.5676 11.0294 9.37842 12.7941" stroke="#49B75A" stroke-linecap="round"/>
<ellipse cx="5.34784" cy="9.54532" rx="0.869565" ry="0.909091" fill="#49B75A"/>
</svg>
