<svg width="51" height="51" viewBox="0 0 51 51" fill="none" xmlns="http://www.w3.org/2000/svg">
<circle cx="25.5" cy="25.5" r="25.5" fill="white"/>
<path fill-rule="evenodd" clip-rule="evenodd" d="M32 8H19V7H32V8Z" fill="#49B75A"/>
<path fill-rule="evenodd" clip-rule="evenodd" d="M25 26L25 8L26 8L26 26L25 26Z" fill="#49B75A"/>
<path fill-rule="evenodd" clip-rule="evenodd" d="M38 40C37.9839 39.4907 37.9453 38.9881 37.8853 38.4935C37.0288 31.4321 31.8101 26 25.5 26C19.1899 26 13.9712 31.4321 13.1147 38.4935C13.0547 38.9881 13.0161 39.4907 13 40H38ZM14.4249 38.4935H36.5751C35.7299 32.2678 31.093 27.5065 25.5 27.5065C19.907 27.5065 15.2701 32.2678 14.4249 38.4935Z" fill="#49B75A"/>
<path fill-rule="evenodd" clip-rule="evenodd" d="M20 39C20.0167 39.4739 20.0947 39.9317 20.2258 40.3649C20.8635 42.4718 22.7598 44 25 44C27.2402 44 29.1365 42.4718 29.7742 40.3649C29.9053 39.9317 29.9833 39.4739 30 39L20 39ZM28.3702 40.3649L21.6298 40.3649C22.2049 41.7025 23.4977 42.6351 25 42.6351C26.5023 42.6351 27.7951 41.7025 28.3702 40.3649Z" fill="#49B75A"/>
</svg>
