<svg width="22" height="21" viewBox="0 0 22 21" fill="none" xmlns="http://www.w3.org/2000/svg">
<g clip-path="url(#clip0_1055_4796)">
<path fill-rule="evenodd" clip-rule="evenodd" d="M7.54178 1.48926H15.263L16.4343 5.82342C16.6876 6.76079 16.9463 7.78704 16.9926 8.79131C17.0393 9.80165 16.8731 10.822 16.2477 11.73C15.3242 13.0709 13.665 14.2182 11.0136 14.0776C10.2002 14.0344 9.49942 13.9021 8.89581 13.6972C7.84403 13.3401 7.12127 12.7046 6.6632 11.8913C6.21143 11.0892 6.02781 10.1347 6.00296 9.13935C5.95343 7.15516 6.53419 4.88495 7.08275 3.03626L7.54178 1.48926ZM8.21111 2.33679L7.93487 3.26774C7.38659 5.1155 6.84249 7.27573 6.88851 9.11911C6.91144 10.0376 7.0807 10.8461 7.44297 11.4892C7.79893 12.1212 8.35138 12.6131 9.19202 12.8985C9.70484 13.0726 10.3208 13.192 11.0627 13.2313C13.3715 13.3538 14.7422 12.3756 15.5081 11.2637C15.9979 10.5525 16.1492 9.72792 16.1077 8.8287C16.0659 7.92341 15.8307 6.97555 15.5767 6.0356L14.5771 2.33679H8.21111Z" fill="white"/>
<path fill-rule="evenodd" clip-rule="evenodd" d="M11.8278 13.1895C12.0875 13.1895 12.2979 13.3798 12.2979 13.6146V19.5391H15.6133C15.8729 19.5391 16.0834 19.7294 16.0834 19.9643C16.0834 20.1991 15.8729 20.3895 15.6133 20.3895H8.30344C8.04383 20.3895 7.83337 20.1991 7.83337 19.9643C7.83337 19.7294 8.04383 19.5391 8.30344 19.5391H11.3578V13.6146C11.3578 13.3798 11.5682 13.1895 11.8278 13.1895Z" fill="white"/>
<path fill-rule="evenodd" clip-rule="evenodd" d="M10.0497 1.49385C10.2944 1.45932 10.5216 1.62322 10.5573 1.85994L11.2811 6.66062L13.0158 5.93906L16.0342 11.659C16.1467 11.8721 16.0593 12.133 15.8391 12.2418C15.6189 12.3506 15.3493 12.266 15.2368 12.053L12.5995 7.05519L10.5635 7.90209L9.67137 1.98499C9.63568 1.74828 9.80508 1.52838 10.0497 1.49385Z" fill="white"/>
</g>
<defs>
<clipPath id="clip0_1055_4796">
<rect width="22" height="20" fill="white" transform="translate(0 0.489258)"/>
</clipPath>
</defs>
</svg>
