<svg width="110" height="126" viewBox="0 0 110 126" fill="none" xmlns="http://www.w3.org/2000/svg">
<rect width="110" height="126" rx="20" fill="#F9FBF9"/>
<rect x="17" y="92" width="76" height="21" rx="10.5" fill="#27C841"/>
<path d="M48.0042 106.531L47.9924 105.254L51.0393 102.453C51.8303 101.697 52.2581 101.229 52.2581 100.555C52.2581 99.7988 51.6897 99.3301 50.9104 99.3359C50.1135 99.3301 49.592 99.834 49.5979 100.648H47.9221C47.9163 98.9902 49.1467 97.9297 50.9338 97.9297C52.7502 97.9297 53.9573 98.9668 53.9573 100.438C53.9573 101.404 53.4885 102.195 51.7424 103.777L50.4534 105.031V105.078H54.0745V106.531H48.0042Z" fill="white"/>
<path d="M75.5696 106.531L75.5579 105.254L78.6047 102.453C79.3958 101.697 79.8235 101.229 79.8235 100.555C79.8235 99.7988 79.2551 99.3301 78.4758 99.3359C77.679 99.3301 77.1575 99.834 77.1633 100.648H75.4875C75.4817 98.9902 76.7122 97.9297 78.4993 97.9297C80.3157 97.9297 81.5227 98.9668 81.5227 100.438C81.5227 101.404 81.054 102.195 79.3079 103.777L78.0188 105.031V105.078H81.6399V106.531H75.5696Z" fill="white"/>
<path fill-rule="evenodd" clip-rule="evenodd" d="M64.6985 98.5945L63.5603 97.7568L62.6819 98.8424L63.8201 99.6801L64.6985 98.5945ZM60.9139 98.6412C60.8831 98.4633 60.7139 98.344 60.536 98.3748C60.358 98.4055 60.2387 98.5747 60.2695 98.7527L62.0297 108.93L62.0766 109.201H62.3519H70.8228H71.104L71.1461 108.923L72.6862 98.7459C72.7133 98.5673 72.5904 98.4007 72.4119 98.3737C72.2333 98.3466 72.0667 98.4695 72.0397 98.648L70.5416 108.547H62.6272L60.9139 98.6412ZM65.7622 99.4568L67.155 99.1166L67.5117 100.445L66.1189 100.785L65.7622 99.4568ZM69.6022 104.571L68.1812 104.363L67.9625 105.718L69.3835 105.926L69.6022 104.571Z" fill="white"/>
<path d="M49.7197 20.9012H48.4731V12.0062H49.7197V20.9012ZM51.0318 16.3743H49.4434V15.3349H51.0318V16.3743ZM44.2328 14.8791H46.0802V12.721H47.3233V18.8398H42.9897V12.721H44.2328V14.8791ZM46.0802 17.828V15.8494H44.2328V17.828H46.0802ZM57.9957 17.2065H56.7457V12.0062H57.9957V17.2065ZM59.1905 15.1243H57.6435V14.0919H59.1905V15.1243ZM57.9957 20.9081H56.7457V18.6395H52.0116V17.6554H57.9957V20.9081ZM52.0323 15.7286C52.7344 15.7286 53.3053 15.7228 53.745 15.7113C54.1847 15.6975 54.5841 15.671 54.9432 15.6319C55.3023 15.5928 55.6603 15.5364 56.0171 15.4627L56.1483 16.4399C55.7823 16.5205 55.4105 16.5815 55.033 16.6229C54.6578 16.6621 54.2411 16.6897 53.783 16.7058C53.3249 16.7196 52.7413 16.7265 52.0323 16.7265H51.2899V15.7286H52.0323ZM55.2954 13.6257H52.5295V16.3156H51.2899V12.6209H55.2954V13.6257ZM66.9347 20.9012H65.7434V12.0062H66.9347V20.9012ZM66.1474 16.4503H64.6419V15.4351H66.1474V16.4503ZM64.9837 20.4903H63.8062V12.1443H64.9837V20.4903ZM61.7413 14.2093C61.739 14.9827 61.6734 15.6883 61.5445 16.326C61.4179 16.9613 61.2073 17.5288 60.9126 18.0283C60.6202 18.5256 60.2358 18.9157 59.7593 19.1989L58.9962 18.2424C59.4289 17.9984 59.7788 17.6727 60.0459 17.2652C60.3129 16.8554 60.504 16.395 60.6191 15.884C60.7365 15.3729 60.7952 14.8147 60.7952 14.2093V13.3771H61.7413V14.2093ZM62.0072 14.2093C62.0072 14.7617 62.0659 15.2751 62.1833 15.7493C62.303 16.2212 62.4964 16.6471 62.7634 17.0269C63.0328 17.4068 63.3838 17.7083 63.8166 17.9316L63.0984 18.8778C62.6103 18.6176 62.2144 18.2551 61.9105 17.7901C61.609 17.3227 61.3903 16.7887 61.2544 16.1878C61.1186 15.587 61.0519 14.9275 61.0542 14.2093V13.3771H62.0072V14.2093ZM63.3677 13.9261H59.2966V12.9316H63.3677V13.9261Z" fill="#005A13"/>
<rect x="20.7734" y="30.8022" width="71.1279" height="47.4185" fill="#E9EFC4"/>
<path fill-rule="evenodd" clip-rule="evenodd" d="M30.3862 96.7622C30.3862 96.5983 30.5192 96.4653 30.6831 96.4653H37.5299V97.0591H30.98V106.873H30.3862V96.7622ZM31.6151 97.9418C31.6151 97.7778 31.7481 97.6449 31.912 97.6449H38.1443C38.2243 97.6449 38.3009 97.6772 38.3567 97.7344L40.9901 100.431C41.0443 100.486 41.0746 100.56 41.0746 100.638V109.232C41.0746 109.396 40.9417 109.529 40.7777 109.529H31.912C31.7481 109.529 31.6151 109.396 31.6151 109.232V97.9418ZM32.2089 98.2387V108.935H40.4808V100.759L38.0193 98.2387H32.2089ZM33.6676 102.532C33.5036 102.532 33.3707 102.665 33.3707 102.829C33.3707 102.993 33.5036 103.125 33.6676 103.125H39.1977C39.3616 103.125 39.4946 102.993 39.4946 102.829C39.4946 102.665 39.3616 102.532 39.1977 102.532H33.6676ZM33.6676 103.627C33.5036 103.627 33.3707 103.76 33.3707 103.924C33.3707 104.088 33.5036 104.221 33.6676 104.221H39.1977C39.3616 104.221 39.4946 104.088 39.4946 103.924C39.4946 103.76 39.3616 103.627 39.1977 103.627H33.6676ZM33.6676 104.807C33.5036 104.807 33.3707 104.94 33.3707 105.103C33.3707 105.267 33.5036 105.4 33.6676 105.4H39.1977C39.3616 105.4 39.4946 105.267 39.4946 105.103C39.4946 104.94 39.3616 104.807 39.1977 104.807H33.6676ZM33.6676 105.902C33.5036 105.902 33.3707 106.035 33.3707 106.199C33.3707 106.363 33.5036 106.496 33.6676 106.496H39.1977C39.3616 106.496 39.4946 106.363 39.4946 106.199C39.4946 106.035 39.3616 105.902 39.1977 105.902H33.6676Z" fill="white"/>
</svg>
