<svg width="24" height="23" viewBox="0 0 24 23" fill="none" xmlns="http://www.w3.org/2000/svg">
<path id="Arrow 6" d="M22 13.4255C22.8284 13.4255 23.5 12.754 23.5 11.9255C23.5 11.0971 22.8284 10.4255 22 10.4255V13.4255ZM0.647898 10.8649C0.0621109 11.4507 0.0621109 12.4004 0.647898 12.9862L10.1938 22.5321C10.7796 23.1179 11.7294 23.1179 12.3152 22.5321C12.9009 21.9464 12.9009 20.9966 12.3152 20.4108L3.82988 11.9255L12.3152 3.44026C12.9009 2.85447 12.9009 1.90472 12.3152 1.31894C11.7294 0.733149 10.7796 0.733149 10.1938 1.31894L0.647898 10.8649ZM22 10.4255L1.70856 10.4255V13.4255L22 13.4255V10.4255Z" fill="white"/>
</svg>
