<svg width="110" height="126" viewBox="0 0 110 126" fill="none" xmlns="http://www.w3.org/2000/svg">
<rect width="110" height="126" rx="20" fill="#F9FBF9"/>
<rect x="17" y="92" width="76" height="21" rx="10.5" fill="#27C841"/>
<path d="M48.0042 106.531L47.9924 105.254L51.0393 102.453C51.8303 101.697 52.2581 101.229 52.2581 100.555C52.2581 99.7988 51.6897 99.3301 50.9104 99.3359C50.1135 99.3301 49.592 99.834 49.5979 100.648H47.9221C47.9163 98.9902 49.1467 97.9297 50.9338 97.9297C52.7502 97.9297 53.9573 98.9668 53.9573 100.438C53.9573 101.404 53.4885 102.195 51.7424 103.777L50.4534 105.031V105.078H54.0745V106.531H48.0042Z" fill="white"/>
<path d="M75.5696 106.531L75.5579 105.254L78.6047 102.453C79.3958 101.697 79.8235 101.229 79.8235 100.555C79.8235 99.7988 79.2551 99.3301 78.4758 99.3359C77.679 99.3301 77.1575 99.834 77.1633 100.648H75.4875C75.4817 98.9902 76.7122 97.9297 78.4993 97.9297C80.3157 97.9297 81.5227 98.9668 81.5227 100.438C81.5227 101.404 81.054 102.195 79.3079 103.777L78.0188 105.031V105.078H81.6399V106.531H75.5696Z" fill="white"/>
<path d="M54.9558 19.8653H46.8273V18.8536H54.9558V19.8653ZM51.5096 19.1471H50.2596V16.8715H51.5096V19.1471ZM51.2783 13.5014C51.276 14.1298 51.1286 14.703 50.8363 15.221C50.5439 15.739 50.1238 16.1763 49.5759 16.5331C49.028 16.8877 48.3846 17.1317 47.6457 17.2652L47.1553 16.2811C47.7838 16.1775 48.3305 15.9864 48.7955 15.7079C49.2605 15.4293 49.6139 15.099 49.8556 14.7169C50.0973 14.3324 50.2182 13.9273 50.2182 13.5014V13.1768H51.2783V13.5014ZM51.5303 13.5014C51.528 13.9273 51.6501 14.329 51.8964 14.7065C52.1427 15.084 52.5018 15.4086 52.9737 15.6802C53.4479 15.9496 54.0096 16.1326 54.6588 16.2293L54.165 17.2134C53.4146 17.0822 52.7619 16.8428 52.2071 16.4952C51.6524 16.1476 51.2253 15.7182 50.9261 15.2072C50.6291 14.6961 50.4806 14.1275 50.4806 13.5014V13.1768H51.5303V13.5014ZM54.2444 13.6948H47.5041V12.6865H54.2444V13.6948ZM61.6986 14.2956H59.3851V13.3149H61.6986V14.2956ZM61.7366 16.0843H59.3851V15.076H61.7366V16.0843ZM62.5515 17.2203H61.3084V12.0062H62.5515V17.2203ZM59.6544 16.73H55.4314V12.6623H59.6544V16.73ZM56.6675 15.7424H58.4321V13.6464H56.6675V15.7424ZM59.5129 17.4482C60.1436 17.4482 60.6892 17.5173 61.1496 17.6554C61.61 17.7912 61.9622 17.9892 62.2062 18.2493C62.4525 18.5071 62.5757 18.8168 62.5757 19.1782C62.5757 19.5396 62.4525 19.8504 62.2062 20.1105C61.9622 20.3706 61.61 20.5674 61.1496 20.701C60.6892 20.8345 60.1436 20.9001 59.5129 20.8978C58.8821 20.9001 58.3377 20.8345 57.8796 20.701C57.4238 20.5674 57.0727 20.3706 56.8264 20.1105C56.5801 19.8504 56.4581 19.5396 56.4604 19.1782C56.4581 18.8168 56.5801 18.5071 56.8264 18.2493C57.0727 17.9892 57.4249 17.7912 57.883 17.6554C58.3411 17.5173 58.8844 17.4482 59.5129 17.4482ZM59.5129 18.3978C59.1146 18.3978 58.7808 18.4266 58.5115 18.4841C58.2444 18.5394 58.0419 18.6257 57.9037 18.7431C57.7679 18.8582 57.7 19.0032 57.7 19.1782C57.7 19.3462 57.7691 19.4878 57.9072 19.6029C58.0476 19.7157 58.2513 19.802 58.5184 19.8619C58.7877 19.9194 59.1192 19.9494 59.5129 19.9517C59.9088 19.9494 60.2414 19.9194 60.5108 19.8619C60.7824 19.802 60.9873 19.7157 61.1254 19.6029C61.2658 19.4878 61.3372 19.3462 61.3395 19.1782C61.3372 19.0032 61.267 18.8582 61.1289 18.7431C60.9908 18.6257 60.7859 18.5394 60.5142 18.4841C60.2449 18.4266 59.9111 18.3978 59.5129 18.3978Z" fill="#005A13"/>
<path d="M45.5877 58.7695L37 85H73L64.277 58.7695H45.5877Z" fill="url(#paint0_linear_2401_5609)"/>
<rect x="37.3503" y="28" width="34.6694" height="2.61896" rx="1.30948" fill="#4A5C72"/>
<rect x="56.1875" y="28.3081" width="20.2805" height="3.00464" rx="1.50232" transform="rotate(90 56.1875 28.3081)" fill="#4A5C72"/>
<path fill-rule="evenodd" clip-rule="evenodd" d="M54.6847 43.2114C52.0898 43.2114 49.9863 45.315 49.9863 47.9098V48.4858C43.5689 50.1588 38.8053 55.1705 38.3494 61.2079H71.0204C70.5645 55.1704 65.8007 50.1585 59.383 48.4856V47.9098C59.383 45.3149 57.2795 43.2114 54.6847 43.2114Z" fill="#4A5C72"/>
<path fill-rule="evenodd" clip-rule="evenodd" d="M29.8203 95.9229H33.3069V98.7551C33.3069 99.6241 33.9956 100.329 34.8451 100.329H36.6909C37.5404 100.329 38.2291 99.6241 38.2291 98.7551V95.9229H41.7157V106.937C41.7157 108.154 40.7516 109.14 39.5622 109.14H31.9738C30.7845 109.14 29.8203 108.154 29.8203 106.937V95.9229ZM30.4356 96.5522V106.937C30.4356 107.806 31.1243 108.511 31.9738 108.511H39.5622C40.4117 108.511 41.1004 107.806 41.1004 106.937V96.5522H38.8444V98.7551C38.8444 99.9717 37.8803 100.958 36.6909 100.958H34.8451C33.6558 100.958 32.6916 99.9717 32.6916 98.7551V96.5522H30.4356Z" fill="white"/>
<path fill-rule="evenodd" clip-rule="evenodd" d="M66.3137 95.5312L68.1716 96.4961L70.281 101.316V107.85L68.8936 109.531H62.8916L61.6937 107.789L62.5179 105.007L60.281 100.149L60.7506 98.198L66.3137 95.5312ZM63.0708 105.299L62.444 107.415H69.6698V101.454L67.7854 97.1476L61.0154 100.273L63.0377 104.665H64.4749V105.299H63.0708ZM61.0526 99.5609L67.2224 96.7128L66.3031 96.2355L61.2726 98.647L61.0526 99.5609ZM69.311 108.05H62.624L63.2061 108.896H68.6125L69.311 108.05Z" fill="white"/>
<defs>
<linearGradient id="paint0_linear_2401_5609" x1="54.999" y1="60.5076" x2="54.999" y2="84.9998" gradientUnits="userSpaceOnUse">
<stop stop-color="#FFB803" stop-opacity="0.8"/>
<stop offset="1" stop-color="#FFF6C8" stop-opacity="0"/>
</linearGradient>
</defs>
</svg>
