<svg width="110" height="126" viewBox="0 0 110 126" fill="none" xmlns="http://www.w3.org/2000/svg">
<rect opacity="0.4" width="110" height="126" rx="20" fill="black"/>
<path d="M62.7083 59.9167V56.8333C62.7083 52.5761 59.2572 49.125 55 49.125C50.7428 49.125 47.2916 52.5761 47.2916 56.8333V59.9167M55 66.8542V69.9375M50.0666 76.875H59.9333C62.5235 76.875 63.8187 76.875 64.808 76.3709C65.6782 75.9275 66.3858 75.22 66.8292 74.3497C67.3333 73.3604 67.3333 72.0652 67.3333 69.475V67.3167C67.3333 64.7264 67.3333 63.4313 66.8292 62.442C66.3858 61.5717 65.6782 60.8642 64.808 60.4208C63.8187 59.9167 62.5235 59.9167 59.9333 59.9167H50.0666C47.4764 59.9167 46.1813 59.9167 45.1919 60.4208C44.3217 60.8642 43.6141 61.5717 43.1707 62.442C42.6666 63.4313 42.6666 64.7264 42.6666 67.3167V69.475C42.6666 72.0652 42.6666 73.3604 43.1707 74.3497C43.6141 75.22 44.3217 75.9275 45.1919 76.3709C46.1813 76.875 47.4764 76.875 50.0666 76.875Z" stroke="#676767" stroke-width="3" stroke-linecap="round" stroke-linejoin="round"/>
</svg>
