<svg width="110" height="126" viewBox="0 0 110 126" fill="none" xmlns="http://www.w3.org/2000/svg">
<rect width="110" height="126" rx="20" fill="#F9FBF9"/>
<rect x="17" y="92" width="76" height="21" rx="10.5" fill="#27C841"/>
<path d="M50.5796 106.648C48.7163 106.648 47.3804 105.623 47.3452 104.141H49.1265C49.1558 104.773 49.771 105.189 50.5913 105.195C51.4351 105.189 52.0386 104.721 52.0327 104.035C52.0386 103.344 51.4233 102.857 50.4272 102.852H49.6421V101.551H50.4272C51.2651 101.551 51.8511 101.094 51.8452 100.426C51.8511 99.7754 51.353 99.3301 50.603 99.3359C49.853 99.3301 49.2378 99.752 49.2085 100.402H47.521C47.5503 98.9434 48.8628 97.9297 50.603 97.9297C52.3726 97.9297 53.5503 98.9785 53.5444 100.32C53.5503 101.27 52.8882 101.943 51.939 102.113V102.184C53.187 102.336 53.8726 103.092 53.8608 104.152C53.8726 105.605 52.4956 106.648 50.5796 106.648Z" fill="white"/>
<path d="M74.9725 106.531L74.9608 105.254L78.0077 102.453C78.7987 101.697 79.2264 101.229 79.2264 100.555C79.2264 99.7988 78.6581 99.3301 77.8788 99.3359C77.0819 99.3301 76.5604 99.834 76.5663 100.648H74.8905C74.8846 98.9902 76.1151 97.9297 77.9022 97.9297C79.7186 97.9297 80.9257 98.9668 80.9257 100.438C80.9257 101.404 80.4569 102.195 78.7108 103.777L77.4218 105.031V105.078H81.0428V106.531H74.9725Z" fill="white"/>
<path d="M46.2274 17.5829H45.0465V12.0062H46.2274V17.5829ZM45.3607 15.2279H43.907V14.2127H45.3607V15.2279ZM44.3317 17.2928H43.168V12.1754H44.3317V17.2928ZM42.909 13.8916H38.5444V12.9247H42.909V13.8916ZM40.7371 14.192C41.1123 14.192 41.4461 14.2564 41.7384 14.3854C42.0331 14.5143 42.2633 14.6973 42.4291 14.9344C42.5971 15.1692 42.6811 15.4397 42.6811 15.7459C42.6811 16.0474 42.5971 16.3145 42.4291 16.547C42.2633 16.7795 42.0331 16.9602 41.7384 17.0891C41.4461 17.218 41.1123 17.2825 40.7371 17.2825C40.3687 17.2825 40.0384 17.218 39.746 17.0891C39.456 16.9602 39.2281 16.7795 39.0623 16.547C38.8966 16.3145 38.8137 16.0474 38.8137 15.7459C38.8137 15.4397 38.8966 15.1692 39.0623 14.9344C39.2281 14.6973 39.456 14.5143 39.746 14.3854C40.0384 14.2564 40.3687 14.192 40.7371 14.192ZM40.7371 15.0898C40.5759 15.0875 40.4343 15.1128 40.3123 15.1657C40.1926 15.2164 40.0983 15.2924 40.0292 15.3936C39.9601 15.4926 39.9256 15.61 39.9256 15.7459C39.9256 15.8794 39.959 15.9956 40.0257 16.0946C40.0948 16.1936 40.1903 16.2696 40.3123 16.3225C40.4343 16.3755 40.5759 16.4008 40.7371 16.3985C40.8982 16.4008 41.0409 16.3755 41.1652 16.3225C41.2896 16.2696 41.3851 16.1936 41.4518 16.0946C41.5209 15.9956 41.5554 15.8794 41.5554 15.7459C41.5554 15.61 41.5209 15.4926 41.4518 15.3936C41.3851 15.2924 41.2896 15.2164 41.1652 15.1657C41.0409 15.1128 40.8982 15.0875 40.7371 15.0898ZM41.3483 13.5946H40.1121V12.0891H41.3483V13.5946ZM43.1887 17.6692C43.8287 17.6692 44.3789 17.7325 44.8393 17.8591C45.302 17.9834 45.6553 18.1676 45.8994 18.4116C46.1457 18.6533 46.27 18.9445 46.2723 19.2852C46.27 19.6259 46.1457 19.9171 45.8994 20.1588C45.6553 20.4006 45.302 20.5847 44.8393 20.7113C44.3766 20.8379 43.8264 20.9001 43.1887 20.8978C42.5534 20.9001 42.0043 20.8379 41.5416 20.7113C41.0812 20.5847 40.7279 20.4006 40.4815 20.1588C40.2352 19.9171 40.1132 19.6259 40.1155 19.2852C40.1132 18.9445 40.2352 18.6533 40.4815 18.4116C40.7279 18.1699 41.0812 17.9857 41.5416 17.8591C42.0043 17.7325 42.5534 17.6692 43.1887 17.6692ZM43.1887 18.6015C42.7836 18.6015 42.4452 18.6257 42.1735 18.674C41.9042 18.7224 41.7005 18.7983 41.5623 18.9019C41.4265 19.0032 41.3586 19.131 41.3586 19.2852C41.3586 19.4349 41.4265 19.5592 41.5623 19.6581C41.7005 19.7571 41.9053 19.832 42.177 19.8826C42.4486 19.9332 42.7859 19.9586 43.1887 19.9586C43.5962 19.9586 43.9346 19.9332 44.2039 19.8826C44.4733 19.832 44.6758 19.7571 44.8117 19.6581C44.9475 19.5592 45.0165 19.4349 45.0188 19.2852C45.0165 19.131 44.9475 19.0032 44.8117 18.9019C44.6781 18.7983 44.4756 18.7224 44.2039 18.674C43.9346 18.6257 43.5962 18.6015 43.1887 18.6015ZM54.9454 17.3308H46.8169V16.3432H54.9454V17.3308ZM51.5856 18.8778H50.3218V16.9855H51.5856V18.8778ZM54.0511 20.7459H47.7838V19.7341H54.0511V20.7459ZM49.0407 20H47.7838V18.0836H49.0407V20ZM50.8743 12.1823C51.5142 12.1823 52.0759 12.2583 52.5593 12.4102C53.0451 12.5599 53.4215 12.7739 53.6885 13.0525C53.9555 13.331 54.089 13.6556 54.089 14.0262C54.089 14.3992 53.9555 14.7238 53.6885 15C53.4215 15.2739 53.0451 15.4857 52.5593 15.6354C52.0759 15.7827 51.5142 15.8564 50.8743 15.8564C50.2343 15.8564 49.6715 15.7827 49.1857 15.6354C48.7 15.4857 48.3236 15.2739 48.0566 15C47.7896 14.7238 47.656 14.3992 47.656 14.0262C47.656 13.6556 47.7896 13.331 48.0566 13.0525C48.3236 12.7739 48.7 12.5599 49.1857 12.4102C49.6715 12.2583 50.2343 12.1823 50.8743 12.1823ZM50.8743 13.1664C50.4898 13.1641 50.1572 13.1952 49.8763 13.2597C49.5955 13.3241 49.3791 13.422 49.2272 13.5532C49.0752 13.6821 49.0004 13.8398 49.0027 14.0262C49.0004 14.2035 49.0752 14.3554 49.2272 14.482C49.3791 14.6064 49.5955 14.7007 49.8763 14.7652C50.1595 14.8273 50.4921 14.8596 50.8743 14.8619C51.261 14.8596 51.5948 14.8273 51.8756 14.7652C52.1565 14.7007 52.3729 14.6064 52.5248 14.482C52.6768 14.3554 52.7527 14.2035 52.7527 14.0262C52.7527 13.8398 52.6768 13.6821 52.5248 13.5532C52.3729 13.422 52.1565 13.3241 51.8756 13.2597C51.5948 13.1952 51.261 13.1641 50.8743 13.1664ZM58.3975 18.712H57.1441V17.2617H58.3975V18.712ZM62.1682 20.9012H60.9113V12.0062H62.1682V20.9012ZM63.3285 16.6575H61.7401V15.625H63.3285V16.6575ZM54.9548 18.3909C55.7007 18.3909 56.3487 18.3863 56.8989 18.3771C57.4514 18.3656 58.0442 18.3425 58.6772 18.308C59.3126 18.2735 59.91 18.2171 60.4693 18.1388L60.5522 19.0435C59.9675 19.1517 59.3598 19.2323 58.729 19.2852C58.1006 19.3382 57.5101 19.3715 56.9576 19.3854C56.4074 19.3992 55.7951 19.4061 55.1206 19.4061L54.9548 18.3909ZM60.4003 13.9779H55.1275V13.0007H60.4003V13.9779ZM57.7829 14.3267C58.2041 14.3267 58.5805 14.398 58.912 14.5407C59.2435 14.6812 59.5013 14.878 59.6855 15.1312C59.872 15.3844 59.9663 15.6745 59.9687 16.0014C59.9663 16.326 59.872 16.6149 59.6855 16.8681C59.5013 17.119 59.2424 17.3147 58.9086 17.4551C58.5771 17.5955 58.2018 17.6657 57.7829 17.6657C57.3547 17.6657 56.9749 17.5955 56.6434 17.4551C56.3142 17.3147 56.0564 17.119 55.8699 16.8681C55.6857 16.6149 55.5937 16.326 55.5937 16.0014C55.5937 15.6745 55.6857 15.3833 55.8699 15.1278C56.0564 14.8722 56.3142 14.6754 56.6434 14.5373C56.9749 14.3969 57.3547 14.3267 57.7829 14.3267ZM57.7829 15.2762C57.578 15.2762 57.3996 15.305 57.2477 15.3626C57.098 15.4178 56.9818 15.5007 56.8989 15.6112C56.816 15.7194 56.7757 15.8494 56.778 16.0014C56.7757 16.1533 56.816 16.2834 56.8989 16.3916C56.9818 16.4975 57.098 16.5792 57.2477 16.6367C57.3996 16.692 57.578 16.7196 57.7829 16.7196C57.9809 16.7196 58.1535 16.692 58.3008 16.6367C58.4505 16.5792 58.5656 16.4975 58.6461 16.3916C58.729 16.2834 58.7704 16.1533 58.7704 16.0014C58.7704 15.8494 58.729 15.7194 58.6461 15.6112C58.5656 15.503 58.4505 15.4201 58.3008 15.3626C58.1535 15.305 57.9809 15.2762 57.7829 15.2762ZM58.3975 13.7224H57.1441V12.058H58.3975V13.7224ZM71.4146 17.5483H63.2861V16.5677H71.4146V17.5483ZM68.072 18.9814H66.8393V17.0925H68.072V18.9814ZM70.5202 20.7459H64.2391V19.741H70.5202V20.7459ZM65.4753 20.1657H64.2391V18.2838H65.4753V20.1657ZM65.5582 13.2217H69.1286V12.2928H70.3614V15.9461H64.3324V12.2928H65.5582V13.2217ZM69.1286 14.9655V14.1471H65.5582V14.9655H69.1286Z" fill="#005A13"/>
<ellipse cx="56.5633" cy="59.0914" rx="11.4614" ry="3.38969" fill="#C5905F"/>
<ellipse cx="56.5633" cy="76.6104" rx="11.4614" ry="3.38969" fill="#C5905F"/>
<rect x="45.5966" y="59.1221" width="21.9955" height="17.711" fill="#C5905F"/>
<ellipse cx="56.5633" cy="59.0915" rx="9.41024" ry="2.45432" fill="#4B2B0D"/>
<path fill-rule="evenodd" clip-rule="evenodd" d="M63.1941 43.8864C59.1491 50.4992 57.6701 58.3516 57.4394 61.4334L56.3375 61.3703C56.5749 58.1998 58.0788 50.2018 62.2204 43.4312L63.1941 43.8864Z" fill="#397F28"/>
<path fill-rule="evenodd" clip-rule="evenodd" d="M55.7891 61.4202C54.1535 56.2086 51.005 51.8348 49.6449 50.3153L49.9209 49.5668C51.3595 51.174 54.6494 55.7335 56.3778 61.2407L55.7891 61.4202Z" fill="#397F28"/>
<path d="M58.2246 36.0507C63.1074 31.0461 63.606 37.8202 63.245 41.8328L61.232 42.979L56.1876 40.3372C52.1696 38.1436 55.8715 36.5655 58.2246 36.0507Z" fill="#4B943A"/>
<path d="M55.8297 46.276C58.194 52.8164 61.4734 46.8429 62.8176 43.0386L61.4605 41.1782L55.7602 41.543C51.1826 41.9151 53.8992 44.8533 55.8297 46.276Z" fill="#4B943A"/>
<path d="M68.8695 38.9825C74.1849 43.7157 67.0935 44.0932 62.8833 43.6903L61.653 41.7523L64.3481 36.9759C66.5884 33.1727 68.2959 36.729 68.8695 38.9825Z" fill="#4B943A"/>
<path d="M66.6979 48.5843C73.5173 46.4226 67.2101 43.2057 63.204 41.8674L61.2742 43.1358L61.7393 48.5819C62.1956 52.9565 65.2352 50.4062 66.6979 48.5843Z" fill="#4B943A"/>
<path d="M44.4909 44.8053C45.8405 40.5882 48.0694 44.3144 49.0151 46.7046L48.1955 47.9199L44.559 47.8191C41.6368 47.6878 43.296 45.7552 44.4909 44.8053Z" fill="#4B943A"/>
<path d="M46.0592 51.3073C49.2856 54.3799 49.4422 50.0571 49.1172 47.5116L47.8089 46.8285L44.6611 48.6261C42.156 50.1148 44.5494 51.0338 46.0592 51.3073Z" fill="#4B943A"/>
<path d="M51.4064 43.5099C55.7978 44.7285 51.8599 46.9213 49.342 47.8653L48.0837 47.1026L48.2505 43.6257C48.4372 40.831 50.4322 42.3841 51.4064 43.5099Z" fill="#4B943A"/>
<path d="M52.9232 49.5942C56.1938 46.4593 51.6715 46.3825 49.0016 46.7359L48.2645 47.9977L50.0931 50.9755C51.6092 53.3444 52.6115 51.0417 52.9232 49.5942Z" fill="#4B943A"/>
<path fill-rule="evenodd" clip-rule="evenodd" d="M58.8372 95.9229H62.3237V98.7551C62.3237 99.6241 63.0124 100.329 63.8619 100.329H65.7078C66.5573 100.329 67.246 99.6241 67.246 98.7551V95.9229H70.7325V106.937C70.7325 108.154 69.7684 109.14 68.5791 109.14H60.9906C59.8013 109.14 58.8372 108.154 58.8372 106.937V95.9229ZM59.4524 96.5522V106.937C59.4524 107.806 60.1411 108.511 60.9906 108.511H68.5791C69.4286 108.511 70.1173 107.806 70.1173 106.937V96.5522H67.8612V98.7551C67.8612 99.9717 66.8971 100.958 65.7078 100.958H63.8619C62.6726 100.958 61.7085 99.9717 61.7085 98.7551V96.5522H59.4524Z" fill="white"/>
<path fill-rule="evenodd" clip-rule="evenodd" d="M42.2884 98.2407L42.306 99.013C42.3168 99.4865 42.2784 100.234 42.1268 100.957C42.0054 101.535 41.799 102.162 41.4364 102.597C41.9419 103.266 42.5798 104.593 42.301 106.192L42.1913 106.822L41.7266 106.383L39.3268 104.118C38.5809 104.632 37.4784 105.306 36.3327 105.837C35.6969 106.132 35.0398 106.387 34.4176 106.544C33.81 106.698 33.2093 106.767 32.6852 106.669C32.1547 106.642 31.4036 106.515 30.5721 106.239C29.0304 105.727 27.1692 104.687 25.9284 102.763L25.8069 102.575L25.9304 102.388C26.6245 101.336 28.3269 99.5001 30.5755 98.7791C31.2425 98.5651 31.9601 98.4487 32.7138 98.4822C33.213 98.4268 34.0948 98.5137 35.2409 98.8934C36.3648 99.2658 37.7602 99.9253 39.329 101.034L41.7266 98.7709L42.2884 98.2407ZM35.0247 99.5459C33.9086 99.1761 33.1235 99.1227 32.7694 99.1678L32.7393 99.1716L32.709 99.1701C32.1948 99.1445 31.6964 99.1984 31.2188 99.3123C31.602 99.9974 32.0577 101.189 32.0158 102.587L32.0155 102.597L32.0147 102.606C31.9823 102.991 31.8926 103.619 31.728 104.268C31.6049 104.753 31.4347 105.272 31.2032 105.713C31.8222 105.887 32.3619 105.966 32.7419 105.984L32.7675 105.985L32.7926 105.99C33.1799 106.067 33.6765 106.023 34.2487 105.878C34.8161 105.734 35.4314 105.498 36.0436 105.214C37.2685 104.646 38.4494 103.904 39.159 103.397L39.3891 103.232L39.5948 103.426L41.6813 105.395C41.6759 104.144 41.064 103.171 40.7226 102.815L40.4621 102.543L40.7564 102.308C41.0763 102.053 41.3108 101.499 41.4541 100.816C41.523 100.488 41.5665 100.151 41.5917 99.8433L39.5948 101.728L39.3874 101.923L39.1569 101.756C37.5471 100.586 36.1321 99.9128 35.0247 99.5459ZM30.5373 105.499C30.7567 105.116 30.9313 104.613 31.0618 104.099C31.215 103.495 31.2988 102.91 31.329 102.557C31.3673 101.2 30.8766 100.063 30.5427 99.5169C28.7345 100.18 27.3126 101.631 26.6324 102.58C27.6937 104.116 29.2034 105.013 30.5373 105.499ZM32.9222 100.383C33.0977 100.311 33.2986 100.394 33.3708 100.57C33.5454 100.994 33.7369 101.701 33.7623 102.482C33.7878 103.263 33.6482 104.152 33.1204 104.901C33.0111 105.056 32.7967 105.093 32.6415 104.984C32.4864 104.875 32.4492 104.66 32.5585 104.505C32.9706 103.92 33.098 103.197 33.0754 102.505C33.0528 101.813 32.8812 101.186 32.7353 100.832C32.663 100.656 32.7467 100.455 32.9222 100.383ZM29.6537 102.934C30.0333 102.934 30.341 102.627 30.341 102.247C30.341 101.868 30.0333 101.56 29.6537 101.56C29.2741 101.56 28.9664 101.868 28.9664 102.247C28.9664 102.627 29.2741 102.934 29.6537 102.934Z" fill="white"/>
</svg>
