<svg width="390" height="844" viewBox="0 0 390 844" fill="none" xmlns="http://www.w3.org/2000/svg">
<rect x="1" y="-7" width="392" height="769" fill="#73C27A"/>
<rect x="309" y="152" width="35" height="22" rx="11" fill="#FEFEFE"/>
<rect x="279.094" y="185.674" width="49.2671" height="86.9629" rx="8" fill="#FEFEFE"/>
<rect x="333.602" y="127" width="20.9647" height="16.7639" rx="8.38196" fill="#FEFEFE"/>
<path fill-rule="evenodd" clip-rule="evenodd" d="M204.844 153.206C195.155 145.781 181.688 145.781 171.998 153.206L-29.3445 307.502C-46.9759 321.013 -41.2057 347.149 -22.7985 354.164V892.902H399.641V354.164C418.048 347.149 423.818 321.013 406.187 307.502L204.844 153.206Z" fill="white"/>
<mask id="path-6-inside-1_665_3891" fill="white">
<path fill-rule="evenodd" clip-rule="evenodd" d="M204.89 171.109C195.182 163.637 181.66 163.637 171.952 171.109L-31.4865 327.706C-49.0657 341.237 -43.2803 367.323 -24.8949 374.332V917H400.689V374.706C419.897 368.307 426.238 341.491 408.329 327.706L204.89 171.109Z"/>
</mask>
<path fill-rule="evenodd" clip-rule="evenodd" d="M204.89 171.109C195.182 163.637 181.66 163.637 171.952 171.109L-31.4865 327.706C-49.0657 341.237 -43.2803 367.323 -24.8949 374.332V917H400.689V374.706C419.897 368.307 426.238 341.491 408.329 327.706L204.89 171.109Z" fill="white"/>
<path d="M171.952 171.109L167.072 164.77V164.77L171.952 171.109ZM204.89 171.109L209.77 164.77V164.77L204.89 171.109ZM-31.4865 327.706L-26.6067 334.045H-26.6067L-31.4865 327.706ZM-24.8949 374.332H-16.8949V368.82L-22.0454 366.856L-24.8949 374.332ZM-24.8949 917H-32.8949V925H-24.8949V917ZM400.689 917V925H408.689V917H400.689ZM400.689 374.706L398.16 367.116L392.689 368.939V374.706H400.689ZM408.329 327.706L413.208 321.366L408.329 327.706ZM176.832 177.449C183.663 172.19 193.179 172.19 200.011 177.449L209.77 164.77C197.186 155.083 179.657 155.083 167.072 164.77L176.832 177.449ZM-26.6067 334.045L176.832 177.449L167.072 164.77L-36.3662 321.366L-26.6067 334.045ZM-22.0454 366.856C-35.0523 361.898 -38.8393 343.461 -26.6067 334.045L-36.3662 321.366C-59.292 339.014 -51.5083 372.748 -27.7445 381.807L-22.0454 366.856ZM-16.8949 917V374.332H-32.8949V917H-16.8949ZM400.689 909H-24.8949V925H400.689V909ZM392.689 374.706V917H408.689V374.706H392.689ZM403.449 334.045C415.923 343.647 411.721 362.598 398.16 367.116L403.218 382.296C428.073 374.015 436.553 339.336 413.208 321.366L403.449 334.045ZM200.011 177.449L403.449 334.045L413.208 321.366L209.77 164.77L200.011 177.449Z" fill="#73C27A" mask="url(#path-6-inside-1_665_3891)"/>
<rect x="-27.3933" y="552" width="442.732" height="209" fill="#C2E6C2" fill-opacity="0.8"/>
</svg>
