<svg width="262" height="222" viewBox="0 0 262 222" fill="none" xmlns="http://www.w3.org/2000/svg">
<rect x="198" y="150.069" width="43" height="7.20017" fill="#73C27A"/>
<path d="M200.089 158.647H238.911V189C238.911 194.523 234.434 199 228.911 199H210.089C204.566 199 200.089 194.523 200.089 189V158.647Z" fill="#73C27A"/>
<rect x="218.43" y="164.625" width="2.14048" height="26.769" rx="1.07024" fill="#D9D9D9"/>
<rect x="227.034" y="164.625" width="2.14049" height="26.769" rx="1.07024" fill="#D9D9D9"/>
<rect x="209.825" y="164.625" width="2.14048" height="26.769" rx="1.07024" fill="#D9D9D9"/>
<path d="M227.153 149.908C227.153 150.444 226.724 151.274 225.263 152.057C223.865 152.807 221.83 153.317 219.5 153.317C217.17 153.317 215.135 152.807 213.736 152.057C212.276 151.274 211.847 150.444 211.847 149.908C211.847 149.372 212.276 148.543 213.736 147.76C215.135 147.01 217.17 146.5 219.5 146.5C221.83 146.5 223.865 147.01 225.263 147.76C226.724 148.543 227.153 149.372 227.153 149.908Z" stroke="#73C27A" stroke-width="3"/>
<g opacity="0.5">
<path d="M0 20H262" stroke="#73C27A"/>
<path d="M0 40H262" stroke="#73C27A"/>
<path d="M0 60H262" stroke="#73C27A"/>
<path d="M0 80H262" stroke="#73C27A"/>
<path d="M0 100H262" stroke="#73C27A"/>
<path d="M0 121H262" stroke="#73C27A"/>
<path d="M0 141H262" stroke="#73C27A"/>
<path d="M0 161H262" stroke="#73C27A"/>
<path d="M0 181H262" stroke="#73C27A"/>
<path d="M0 201H262" stroke="#73C27A"/>
<path d="M222 0L222 222" stroke="#73C27A"/>
<path d="M242 0L242 222" stroke="#73C27A"/>
<path d="M20 0L20 222" stroke="#73C27A"/>
<path d="M202 0L202 222" stroke="#73C27A"/>
<path d="M181 0L181 222" stroke="#73C27A"/>
<path d="M161 0L161 222" stroke="#73C27A"/>
<path d="M141 0L141 222" stroke="#73C27A"/>
<path d="M121 0L121 222" stroke="#73C27A"/>
<path d="M101 0L101 222" stroke="#73C27A"/>
<path d="M81 0L81 222" stroke="#73C27A"/>
<path d="M61 0L61 222" stroke="#73C27A"/>
<path d="M40 0L40 222" stroke="#73C27A"/>
</g>
</svg>
