<svg width="262" height="222" viewBox="0 0 262 222" fill="none" xmlns="http://www.w3.org/2000/svg">
<g opacity="0.5">
<path d="M0 20H262" stroke="#73C27A"/>
<path d="M0 40H262" stroke="#73C27A"/>
<path d="M0 60H262" stroke="#73C27A"/>
<path d="M0 80H262" stroke="#73C27A"/>
<path d="M0 100H262" stroke="#73C27A"/>
<path d="M0 121H262" stroke="#73C27A"/>
<path d="M0 141H262" stroke="#73C27A"/>
<path d="M0 161H262" stroke="#73C27A"/>
<path d="M0 181H262" stroke="#73C27A"/>
<path d="M0 201H262" stroke="#73C27A"/>
<path d="M222 0L222 222" stroke="#73C27A"/>
<path d="M242 0L242 222" stroke="#73C27A"/>
<path d="M20 0L20 222" stroke="#73C27A"/>
<path d="M202 0L202 222" stroke="#73C27A"/>
<path d="M181 0L181 222" stroke="#73C27A"/>
<path d="M161 0L161 222" stroke="#73C27A"/>
<path d="M141 0L141 222" stroke="#73C27A"/>
<path d="M121 0L121 222" stroke="#73C27A"/>
<path d="M101 0L101 222" stroke="#73C27A"/>
<path d="M81 0L81 222" stroke="#73C27A"/>
<path d="M61 0L61 222" stroke="#73C27A"/>
<path d="M40 0L40 222" stroke="#73C27A"/>
</g>
<rect x="185.575" y="42" width="52.8533" height="52.8985" fill="#FFFAE9"/>
<path d="M208.802 60.3736C208.547 60.3736 208.298 60.2977 208.086 60.1554C207.873 60.0131 207.708 59.8108 207.61 59.5742C207.513 59.3376 207.487 59.0772 207.537 58.826C207.587 58.5748 207.71 58.3441 207.89 58.163C208.07 57.9819 208.3 57.8585 208.551 57.8086C208.801 57.7586 209.06 57.7842 209.296 57.8823C209.532 57.9803 209.733 58.1463 209.875 58.3592C210.017 58.5722 210.092 58.8225 210.092 59.0787C210.092 59.4219 209.955 59.7509 209.714 59.9936C209.472 60.2363 209.144 60.3729 208.802 60.3736ZM208.802 58.8506C208.757 58.8506 208.713 58.864 208.676 58.889C208.639 58.9141 208.61 58.9497 208.592 58.9914C208.575 59.0331 208.571 59.0789 208.579 59.1231C208.588 59.1674 208.61 59.208 208.642 59.2399C208.673 59.2718 208.714 59.2935 208.758 59.3023C208.802 59.3111 208.848 59.3066 208.889 59.2894C208.931 59.2721 208.966 59.2429 208.991 59.2053C209.016 59.1678 209.029 59.1238 209.029 59.0787C209.029 59.0182 209.005 58.9602 208.963 58.9174C208.92 58.8746 208.862 58.8506 208.802 58.8506Z" fill="#D04A45"/>
<path d="M232.534 51.0401C232.279 51.0401 232.03 50.9642 231.817 50.8219C231.605 50.6796 231.44 50.4773 231.342 50.2407C231.245 50.0041 231.219 49.7437 231.269 49.4925C231.319 49.2413 231.442 49.0106 231.622 48.8295C231.802 48.6484 232.032 48.525 232.282 48.4751C232.533 48.4251 232.792 48.4508 233.028 48.5488C233.264 48.6468 233.465 48.8128 233.607 49.0257C233.748 49.2387 233.824 49.489 233.824 49.7452C233.823 50.0884 233.687 50.4174 233.446 50.6601C233.204 50.9028 232.876 51.0394 232.534 51.0401ZM232.534 49.5171C232.489 49.5171 232.445 49.5305 232.408 49.5555C232.371 49.5806 232.341 49.6162 232.324 49.6579C232.307 49.6996 232.303 49.7454 232.311 49.7896C232.32 49.8339 232.342 49.8745 232.374 49.9064C232.405 49.9383 232.446 49.96 232.49 49.9688C232.534 49.9776 232.58 49.9731 232.621 49.9559C232.663 49.9386 232.698 49.9094 232.723 49.8719C232.748 49.8344 232.761 49.7903 232.761 49.7452C232.761 49.6847 232.737 49.6267 232.695 49.5839C232.652 49.5411 232.594 49.5171 232.534 49.5171Z" fill="#D04A45"/>
<path d="M190.463 87.4479C190.23 87.4479 190.002 87.3785 189.809 87.2485C189.615 87.1186 189.464 86.9338 189.375 86.7176C189.285 86.5015 189.262 86.2637 189.308 86.0342C189.353 85.8047 189.465 85.5939 189.63 85.4285C189.795 85.2631 190.005 85.1504 190.233 85.1048C190.462 85.0591 190.699 85.0825 190.914 85.1721C191.13 85.2616 191.314 85.4132 191.443 85.6078C191.573 85.8023 191.642 86.031 191.642 86.265C191.642 86.5787 191.518 86.8796 191.297 87.1014C191.076 87.3233 190.776 87.4479 190.463 87.4479ZM190.463 86.1489C190.44 86.1489 190.418 86.1557 190.399 86.1685C190.38 86.1812 190.365 86.1994 190.357 86.2206C190.348 86.2418 190.345 86.2651 190.35 86.2876C190.354 86.3101 190.365 86.3308 190.382 86.347C190.398 86.3632 190.418 86.3743 190.441 86.3788C190.463 86.3832 190.486 86.3809 190.508 86.3722C190.529 86.3634 190.547 86.3485 190.559 86.3294C190.572 86.3103 190.579 86.2879 190.579 86.265C190.577 86.2354 190.564 86.2075 190.543 86.1872C190.521 86.1669 190.493 86.1556 190.463 86.1556V86.1489Z" fill="#D04A45"/>
<path d="M202.207 85.2873C201.72 85.3244 201.231 85.2916 200.753 85.1899L200.69 85.1726C200.356 85.0871 200.005 85.0935 199.675 85.1913C199.423 85.2789 199.166 85.3471 198.904 85.3953C197.92 85.5713 196.529 85.6847 195.486 85.2326C195.377 85.1951 195.271 85.1505 195.168 85.0992C195.122 85.0766 195.062 85.0499 194.992 85.0192C194.515 84.8072 193.628 84.4151 192.999 83.6856C192.6 83.2735 187.566 77.9509 189.744 71.9389C190.29 70.4292 191.401 69.2623 192.79 68.7381C192.896 68.6972 193.008 68.6586 193.125 68.6221C193.971 68.3664 194.862 68.3012 195.736 68.4314C197.289 68.6434 198.495 68.7755 199.067 68.7955C199.868 68.6709 200.653 68.4645 201.411 68.1793C202.41 67.7959 203.485 67.6587 204.548 67.7792C205.947 67.9526 207.072 68.5794 207.8 69.5717C207.836 69.6197 207.876 69.6677 207.914 69.7144C207.982 69.797 208.047 69.8784 208.105 69.9611C209.301 71.6695 209.611 74.2847 209.035 77.7362C209.01 77.8856 208.402 81.3517 205.798 83.6936C204.818 84.5981 203.57 85.1547 202.245 85.2779L202.207 85.2873ZM201.1 83.7189C201.44 83.7872 201.787 83.8069 202.132 83.7776C203.125 83.6785 204.057 83.2571 204.789 82.5773C206.992 80.5969 207.541 77.5255 207.546 77.4948C207.892 75.4037 208.052 72.547 206.862 70.8386C206.827 70.7879 206.785 70.7373 206.742 70.6866C206.7 70.6359 206.627 70.5532 206.575 70.4745C206.09 69.8077 205.343 69.4076 204.352 69.2889C203.526 69.2 202.691 69.3102 201.916 69.6103C201.032 69.9485 200.114 70.1856 199.178 70.3172H199.129H199.081C198.297 70.2985 196.716 70.0998 195.527 69.9371C194.872 69.8361 194.202 69.8816 193.566 70.0704C193.48 70.0971 193.397 70.1251 193.316 70.1558C192.337 70.5266 191.549 71.3667 191.153 72.4603C189.264 77.6815 194.031 82.596 194.076 82.6427L194.109 82.6787C194.527 83.1601 195.197 83.4575 195.597 83.6349C195.685 83.6736 195.761 83.7069 195.819 83.7362C195.857 83.7545 195.895 83.7701 195.935 83.7829C195.98 83.8003 196.024 83.8149 196.08 83.8389C196.619 84.0737 197.55 84.095 198.638 83.9016C198.826 83.8664 199.011 83.8169 199.191 83.7536C199.811 83.5588 200.474 83.5468 201.1 83.7189Z" fill="#D04A45"/>
<path d="M196.894 76.6839C197.394 76.649 197.768 76.149 197.727 75.5671C197.687 74.9851 197.249 74.5416 196.748 74.5765C196.247 74.6114 195.874 75.1114 195.914 75.6934C195.955 76.2753 196.393 76.7188 196.894 76.6839Z" fill="#D04A45"/>
<path d="M199.644 79.9846C197.651 80.118 196.125 78.9177 196.102 78.899C196.006 78.8128 195.947 78.6927 195.936 78.5637C195.926 78.4346 195.965 78.3065 196.046 78.2059C196.128 78.1052 196.244 78.0398 196.372 78.0231C196.5 78.0064 196.629 78.0397 196.733 78.1162C196.858 78.2149 199.509 80.274 202.18 77.7161C202.277 77.6238 202.406 77.5737 202.539 77.5768C202.672 77.5799 202.798 77.636 202.89 77.7328C202.982 77.8295 203.032 77.9589 203.029 78.0926C203.026 78.2263 202.97 78.3533 202.874 78.4456C201.763 79.5085 200.645 79.9193 199.644 79.9846Z" fill="#D04A45"/>
<path d="M198.959 69.5931C198.789 69.6048 198.621 69.5584 198.482 69.4614C198.342 69.3645 198.239 69.2228 198.191 69.0596C198.148 68.9263 197.186 65.6002 201.034 62.0447C201.182 61.9138 201.374 61.8463 201.571 61.8565C201.768 61.8667 201.953 61.9539 202.086 62.0994C202.22 62.2449 202.291 62.4371 202.285 62.6348C202.279 62.8325 202.196 63.0199 202.054 63.1569C198.944 66.0309 199.603 68.5182 199.632 68.6249C199.686 68.8165 199.663 69.0219 199.568 69.1965C199.472 69.3712 199.312 69.5012 199.122 69.5584C199.069 69.5764 199.014 69.588 198.959 69.5931Z" fill="#D04A45"/>
<path d="M198.872 65.7587C198.872 65.7587 194.467 65.4 194.82 60.911C194.822 60.911 198.304 60.4015 198.872 65.7587Z" fill="#D04A45"/>
<path d="M196.614 85.1763C196.614 85.1763 196.367 88.4037 194.733 92.3499L196.614 85.1763Z" fill="#EBCE3E"/>
<path d="M194.581 93.1369C194.527 93.1266 194.475 93.1105 194.424 93.0889C194.23 93.0072 194.075 92.8513 193.994 92.6552C193.914 92.4592 193.914 92.2391 193.995 92.0433C195.562 88.2584 195.815 85.1457 195.818 85.1084C195.834 84.8962 195.934 84.6991 196.095 84.5605C196.256 84.422 196.465 84.3533 196.676 84.3695C196.888 84.3858 197.084 84.4857 197.222 84.6473C197.36 84.8089 197.429 85.0188 197.412 85.2311C197.402 85.3644 197.135 88.6332 195.471 92.6514C195.402 92.8234 195.275 92.9658 195.113 93.0543C194.951 93.1429 194.763 93.1721 194.581 93.1369Z" fill="#D04A45"/>
<path d="M202.385 84.939C202.385 84.939 202.021 88.1557 202.883 92.3407L202.385 84.939Z" fill="#EBCE3E"/>
<path d="M202.882 93.141C202.936 93.1409 202.99 93.1355 203.044 93.125C203.251 93.082 203.432 92.9582 203.548 92.7809C203.664 92.6036 203.706 92.3872 203.663 92.1794C202.837 88.1652 203.173 85.0604 203.177 85.0298C203.188 84.9253 203.18 84.8195 203.151 84.7185C203.122 84.6175 203.073 84.5231 203.008 84.4409C202.943 84.3587 202.862 84.2901 202.77 84.2392C202.679 84.1883 202.578 84.1561 202.474 84.1442C202.37 84.1324 202.264 84.1413 202.164 84.1703C202.063 84.1994 201.969 84.2481 201.887 84.3136C201.805 84.3791 201.737 84.4602 201.686 84.5521C201.636 84.6441 201.603 84.7453 201.592 84.8497C201.577 84.9831 201.224 88.2412 202.102 92.5035C202.139 92.6835 202.237 92.8452 202.379 92.9613C202.521 93.0774 202.699 93.1408 202.882 93.141Z" fill="#D04A45"/>
<path d="M203.695 77.1284C204.15 77.0968 204.504 76.8638 204.486 76.6081C204.469 76.3524 204.086 76.1708 203.631 76.2024C203.177 76.2341 202.822 76.4671 202.84 76.7228C202.858 76.9785 203.241 77.1601 203.695 77.1284Z" fill="#F2985C"/>
<path d="M195.573 78.2609C196.028 78.2288 196.383 77.9951 196.365 77.7388C196.347 77.4825 195.964 77.3006 195.508 77.3327C195.052 77.3647 194.697 77.5984 194.715 77.8547C194.733 78.111 195.117 78.2929 195.573 78.2609Z" fill="#F2985C"/>
<path d="M202.527 76.1852C202.464 76.1894 202.401 76.1784 202.342 76.1532L200.482 75.353L201.843 73.9073C201.916 73.8328 202.015 73.79 202.12 73.7881C202.224 73.7863 202.325 73.8255 202.4 73.8974C202.476 73.9692 202.521 74.0681 202.525 74.1726C202.529 74.2772 202.492 74.3792 202.422 74.4568L201.847 75.0676L202.651 75.413C202.733 75.4485 202.801 75.5109 202.844 75.59C202.886 75.6692 202.901 75.7604 202.886 75.8491C202.87 75.9377 202.826 76.0186 202.759 76.0786C202.692 76.1386 202.607 76.1743 202.518 76.1798L202.527 76.1852Z" fill="#D04A45"/>
<path d="M192.431 51.3394C192.176 51.3394 191.927 51.2635 191.715 51.1212C191.503 50.9789 191.337 50.7767 191.24 50.54C191.142 50.3034 191.116 50.043 191.166 49.7918C191.216 49.5406 191.339 49.3099 191.519 49.1288C191.7 48.9477 191.929 48.8244 192.18 48.7744C192.43 48.7244 192.689 48.7501 192.925 48.8481C193.161 48.9461 193.362 49.1121 193.504 49.325C193.646 49.538 193.721 49.7884 193.721 50.0445C193.721 50.3877 193.585 50.7167 193.343 50.9594C193.101 51.2021 192.773 51.3387 192.431 51.3394ZM192.431 49.8164C192.386 49.8164 192.342 49.8298 192.305 49.8549C192.268 49.8799 192.239 49.9155 192.221 49.9572C192.204 49.9989 192.2 50.0447 192.209 50.089C192.217 50.1332 192.239 50.1738 192.271 50.2057C192.302 50.2376 192.343 50.2593 192.387 50.2681C192.431 50.2769 192.477 50.2724 192.518 50.2552C192.56 50.2379 192.595 50.2087 192.62 50.1712C192.645 50.1337 192.659 50.0896 192.659 50.0445C192.659 49.984 192.635 49.926 192.592 49.8832C192.549 49.8404 192.492 49.8164 192.431 49.8164Z" fill="#D04A45"/>
<path d="M229.083 82.586C228.397 82.7317 227.694 82.7788 226.995 82.726L226.901 82.7142C226.41 82.6569 225.912 82.7331 225.461 82.9349C225.12 83.1069 224.766 83.2525 224.403 83.3706C223.037 83.8076 221.077 84.2366 219.508 83.7949C219.347 83.7635 219.189 83.7228 219.033 83.6729C218.962 83.6486 218.871 83.6245 218.766 83.5937C218.047 83.3837 216.712 82.999 215.668 82.0913C215.019 81.5848 206.852 75.0152 208.807 66.077C209.297 63.836 210.656 61.9705 212.534 60.9593C212.677 60.8811 212.829 60.8051 212.987 60.7316C214.142 60.2078 215.398 59.9445 216.666 59.9604C218.914 59.9645 220.655 59.9173 221.474 59.8381C222.589 59.5091 223.667 59.066 224.691 58.516C226.04 57.7823 227.544 57.3811 229.079 57.346C231.1 57.3188 232.819 57.9865 234.046 59.261C234.104 59.3231 234.171 59.3832 234.236 59.4419C234.346 59.5455 234.457 59.6492 234.557 59.7648C236.565 61.9565 237.518 65.5989 237.368 70.5953C237.359 70.811 237.154 75.8379 233.893 79.6537C232.671 81.1219 231.001 82.1492 229.139 82.5782L229.083 82.586ZM227.209 80.5748C227.705 80.6089 228.204 80.5718 228.689 80.4645C230.085 80.1357 231.335 79.3589 232.248 78.2531C235.005 75.0237 235.203 70.5702 235.206 70.5268C235.298 67.498 234.986 63.4219 232.967 61.2284C232.907 61.1649 232.838 61.1014 232.768 61.0379C232.699 60.9743 232.578 60.8611 232.489 60.7685C231.675 59.9226 230.534 59.4997 229.103 59.52C227.912 59.5529 226.744 59.8693 225.699 60.4429C224.502 61.0914 223.235 61.6034 221.924 61.9694L221.855 61.9836L221.785 61.9979C220.668 62.121 218.381 62.1444 216.659 62.141C215.707 62.1248 214.763 62.3192 213.894 62.7103C213.777 62.7656 213.664 62.8219 213.557 62.879C212.233 63.5913 211.272 64.9312 210.917 66.557C209.223 74.3013 216.937 80.3454 217.015 80.4014L217.071 80.4463C217.756 81.0486 218.766 81.3406 219.369 81.5161L219.705 81.6162C219.761 81.6354 219.818 81.6509 219.876 81.6627C219.945 81.6757 220.008 81.6899 220.093 81.7134C220.903 81.9355 222.233 81.7939 223.746 81.3112C224.006 81.2256 224.259 81.1202 224.503 80.9958C225.347 80.6013 226.286 80.4559 227.209 80.5767L227.209 80.5748Z" fill="#49AF59"/>
<path d="M219.906 71.4109C220.612 71.2656 221.048 70.4859 220.88 69.6694C220.712 68.8529 220.004 68.3089 219.298 68.4542C218.593 68.5995 218.157 69.3792 218.324 70.1956C218.492 71.0121 219.2 71.5562 219.906 71.4109Z" fill="#49AF59"/>
<path d="M226.596 70.0335C227.301 69.8881 227.737 69.1085 227.569 68.292C227.401 67.4755 226.693 66.9314 225.988 67.0767C225.282 67.222 224.846 68.0017 225.014 68.8182C225.182 69.6347 225.89 70.1788 226.596 70.0335Z" fill="#49AF59"/>
<path d="M224.429 75.5674C221.614 76.1471 219.219 74.7296 219.188 74.701C219.031 74.5989 218.92 74.4396 218.878 74.2569C218.837 74.0742 218.868 73.8825 218.966 73.7224C219.063 73.5624 219.219 73.4465 219.401 73.3995C219.583 73.3525 219.775 73.378 219.938 73.4706C220.134 73.588 224.297 75.9954 227.608 71.8639C227.666 71.7863 227.739 71.7211 227.823 71.6722C227.906 71.6233 227.999 71.5917 228.095 71.5793C228.191 71.5669 228.288 71.5739 228.381 71.5999C228.474 71.626 228.561 71.6705 228.637 71.7309C228.712 71.7912 228.775 71.8662 228.821 71.9513C228.867 72.0363 228.895 72.1298 228.904 72.2261C228.913 72.3224 228.903 72.4195 228.874 72.5117C228.844 72.6038 228.797 72.6892 228.734 72.7626C227.352 74.4889 225.837 75.2774 224.429 75.5674Z" fill="#49AF59"/>
<path d="M221.477 60.9816C221.24 61.0314 220.992 60.9991 220.775 60.89C220.558 60.781 220.385 60.6016 220.283 60.3812C220.195 60.1911 218.198 55.6741 222.996 49.8998C223.183 49.6903 223.443 49.5613 223.723 49.5402C224.002 49.519 224.279 49.6072 224.495 49.7862C224.711 49.9652 224.848 50.221 224.879 50.4996C224.909 50.7782 224.83 51.0578 224.658 51.2794C220.779 55.9461 222.19 59.3426 222.256 59.4828C222.37 59.7439 222.377 60.0397 222.275 60.306C222.172 60.5722 221.969 60.7874 221.709 60.9048C221.635 60.9397 221.557 60.9656 221.477 60.9816Z" fill="#49AF59"/>
<path d="M220.629 55.5685C220.629 55.5685 214.293 55.9003 213.943 49.4799C213.943 49.4799 218.802 48.0902 220.629 55.5685Z" fill="#49AF59"/>
<path d="M220.788 83.516C220.788 83.516 222.225 87.911 222.215 94.0204L220.788 83.516Z" fill="white"/>
<path d="M222.983 93.9818C222.906 93.9979 222.827 94.0064 222.748 94.0073C222.596 94.0112 222.446 93.9879 222.307 93.9388C222.167 93.8896 222.041 93.8157 221.936 93.721C221.83 93.6264 221.747 93.5131 221.692 93.3874C221.636 93.2618 221.609 93.1264 221.612 92.9891C221.74 87.6473 220.451 83.8017 220.439 83.7635C220.391 83.6334 220.372 83.4948 220.384 83.3557C220.396 83.2166 220.439 83.0799 220.51 82.9536C220.581 82.8273 220.678 82.7141 220.796 82.6205C220.915 82.5269 221.052 82.4548 221.199 82.4086C221.346 82.3623 221.501 82.3428 221.654 82.3512C221.807 82.3596 221.955 82.3957 222.09 82.4574C222.225 82.5191 222.344 82.6052 222.439 82.7105C222.535 82.8158 222.605 82.9383 222.646 83.0707C222.704 83.2354 224.056 87.2729 223.919 92.9433C223.913 93.1819 223.817 93.4152 223.647 93.6042C223.477 93.7932 223.242 93.9265 222.983 93.9818Z" fill="#48A757"/>
<path d="M230.377 81.5414C230.377 81.5414 230.79 86.1472 233.207 91.7569L230.377 81.5414Z" fill="white"/>
<path d="M234.234 93.3894C234.311 93.3738 234.386 93.3499 234.457 93.3182C234.736 93.1981 234.955 92.9723 235.068 92.6905C235.18 92.4087 235.176 92.094 235.056 91.8155C232.737 86.4366 232.316 81.9938 232.313 81.9498C232.299 81.7999 232.256 81.6542 232.186 81.5209C232.117 81.3877 232.021 81.2695 231.905 81.1732C231.79 81.0768 231.656 81.0042 231.513 80.9595C231.369 80.9147 231.218 80.8987 231.068 80.9123C230.918 80.926 230.772 80.969 230.638 81.0389C230.505 81.1089 230.387 81.2044 230.29 81.32C230.194 81.4356 230.121 81.5691 230.076 81.7128C230.031 81.8565 230.015 82.0076 230.029 82.1574C230.045 82.3487 230.488 87.0127 232.948 92.7223C233.053 92.9648 233.238 93.1637 233.472 93.2853C233.706 93.4069 233.976 93.4437 234.234 93.3894Z" fill="#48A757"/>
<path d="M229.667 70.7375C230.308 70.6056 230.767 70.2078 230.693 69.8491C230.62 69.4903 230.04 69.3064 229.4 69.4384C228.759 69.5703 228.3 69.9681 228.373 70.3268C228.447 70.6856 229.026 70.8695 229.667 70.7375Z" fill="#F2985C"/>
<path d="M217.7 73.2019C218.341 73.07 218.801 72.6722 218.727 72.3134C218.653 71.9547 218.074 71.7708 217.433 71.9027C216.793 72.0347 216.333 72.4324 216.407 72.7912C216.48 73.1499 217.06 73.3338 217.7 73.2019Z" fill="#F2985C"/>
<path d="M217.919 90.8824C217.664 90.8824 217.414 90.8065 217.202 90.6642C216.99 90.5219 216.825 90.3196 216.727 90.083C216.629 89.8464 216.604 89.586 216.654 89.3348C216.703 89.0836 216.826 88.8529 217.007 88.6718C217.187 88.4907 217.417 88.3673 217.667 88.3174C217.917 88.2674 218.177 88.293 218.413 88.391C218.648 88.4891 218.85 88.655 218.991 88.868C219.133 89.081 219.209 89.3313 219.209 89.5874C219.208 89.9307 219.072 90.2596 218.83 90.5023C218.589 90.745 218.261 90.8817 217.919 90.8824ZM217.919 89.3594C217.874 89.3594 217.83 89.3728 217.793 89.3978C217.755 89.4229 217.726 89.4585 217.709 89.5002C217.692 89.5418 217.687 89.5877 217.696 89.6319C217.705 89.6762 217.726 89.7168 217.758 89.7487C217.79 89.7806 217.831 89.8023 217.875 89.8111C217.919 89.8199 217.964 89.8154 218.006 89.7981C218.047 89.7809 218.083 89.7516 218.108 89.7141C218.133 89.6766 218.146 89.6326 218.146 89.5874C218.146 89.527 218.122 89.469 218.08 89.4262C218.037 89.3834 217.979 89.3594 217.919 89.3594Z" fill="#D04A45"/>
<rect x="187.575" y="44" width="48.8533" height="48.8985" stroke="#501B1B" stroke-width="4" stroke-linejoin="round"/>
<rect x="186.075" y="42.5" width="51.8533" height="51.8985" stroke="#774E4E"/>
</svg>
