<svg width="262" height="222" viewBox="0 0 262 222" fill="none" xmlns="http://www.w3.org/2000/svg">
<g opacity="0.5">
<path d="M0 20H262" stroke="#73C27A"/>
<path d="M0 40H262" stroke="#73C27A"/>
<path d="M0 60H262" stroke="#73C27A"/>
<path d="M0 80H262" stroke="#73C27A"/>
<path d="M0 100H262" stroke="#73C27A"/>
<path d="M0 121H262" stroke="#73C27A"/>
<path d="M0 141H262" stroke="#73C27A"/>
<path d="M0 161H262" stroke="#73C27A"/>
<path d="M0 181H262" stroke="#73C27A"/>
<path d="M0 201H262" stroke="#73C27A"/>
<path d="M222 0L222 222" stroke="#73C27A"/>
<path d="M242 0L242 222" stroke="#73C27A"/>
<path d="M20 0L20 222" stroke="#73C27A"/>
<path d="M202 0L202 222" stroke="#73C27A"/>
<path d="M181 0L181 222" stroke="#73C27A"/>
<path d="M161 0L161 222" stroke="#73C27A"/>
<path d="M141 0L141 222" stroke="#73C27A"/>
<path d="M121 0L121 222" stroke="#73C27A"/>
<path d="M101 0L101 222" stroke="#73C27A"/>
<path d="M81 0L81 222" stroke="#73C27A"/>
<path d="M61 0L61 222" stroke="#73C27A"/>
<path d="M40 0L40 222" stroke="#73C27A"/>
</g>
<rect x="20" y="101" width="221" height="79" fill="#E9EFC4"/>
</svg>
