<svg width="262" height="222" viewBox="0 0 262 222" fill="none" xmlns="http://www.w3.org/2000/svg">
<g opacity="0.5">
<path d="M0.0170898 19.7798H261.812" stroke="#73C27A"/>
<path d="M0.0170898 39.9033H261.812" stroke="#73C27A"/>
<path d="M0.0170898 60.0269H261.812" stroke="#73C27A"/>
<path d="M0.0170898 80.1504H261.812" stroke="#73C27A"/>
<path d="M0.0170898 100.274H261.812" stroke="#73C27A"/>
<path d="M0.0170898 120.397H261.812" stroke="#73C27A"/>
<path d="M0.0170898 140.521H261.812" stroke="#73C27A"/>
<path d="M0.0170898 160.645H261.812" stroke="#73C27A"/>
<path d="M0.0170898 180.769H261.812" stroke="#73C27A"/>
<path d="M0.0170898 200.892H261.812" stroke="#73C27A"/>
<path d="M221.056 0.128906L221.056 221.785" stroke="#73C27A"/>
<path d="M241.363 0.128906L241.363 221.785" stroke="#73C27A"/>
<path d="M19.5166 0.128906L19.5166 221.785" stroke="#73C27A"/>
<path d="M200.933 0.128906L200.933 221.785" stroke="#73C27A"/>
<path d="M180.809 0.128906L180.809 221.785" stroke="#73C27A"/>
<path d="M160.686 0.128906L160.686 221.785" stroke="#73C27A"/>
<path d="M140.562 0.128906L140.562 221.785" stroke="#73C27A"/>
<path d="M120.438 0.128906L120.438 221.785" stroke="#73C27A"/>
<path d="M100.315 0.128906L100.315 221.785" stroke="#73C27A"/>
<path d="M80.1914 0.128906L80.1914 221.785" stroke="#73C27A"/>
<path d="M60.0679 0.128906L60.0679 221.785" stroke="#73C27A"/>
<path d="M39.9443 0.128906L39.9443 221.785" stroke="#73C27A"/>
</g>
</svg>
