<svg width="262" height="222" viewBox="0 0 262 222" fill="none" xmlns="http://www.w3.org/2000/svg">
<g opacity="0.5">
<path d="M0 20H262" stroke="#73C27A"/>
<path d="M0 40H262" stroke="#73C27A"/>
<path d="M0 60H262" stroke="#73C27A"/>
<path d="M0 80H262" stroke="#73C27A"/>
<path d="M0 100H262" stroke="#73C27A"/>
<path d="M0 121H262" stroke="#73C27A"/>
<path d="M0 141H262" stroke="#73C27A"/>
<path d="M0 161H262" stroke="#73C27A"/>
<path d="M0 181H262" stroke="#73C27A"/>
<path d="M0 201H262" stroke="#73C27A"/>
<path d="M222 0L222 222" stroke="#73C27A"/>
<path d="M242 0L242 222" stroke="#73C27A"/>
<path d="M20 0L20 222" stroke="#73C27A"/>
<path d="M202 0L202 222" stroke="#73C27A"/>
<path d="M181 0L181 222" stroke="#73C27A"/>
<path d="M161 0L161 222" stroke="#73C27A"/>
<path d="M141 0L141 222" stroke="#73C27A"/>
<path d="M121 0L121 222" stroke="#73C27A"/>
<path d="M101 0L101 222" stroke="#73C27A"/>
<path d="M81 0L81 222" stroke="#73C27A"/>
<path d="M61 0L61 222" stroke="#73C27A"/>
<path d="M40 0L40 222" stroke="#73C27A"/>
</g>
<mask id="path-23-inside-1_1052_10737" fill="white">
<path fill-rule="evenodd" clip-rule="evenodd" d="M132.785 21.4602C131.041 20.5458 128.959 20.5458 127.214 21.4602L52.8578 60.4359C47.3051 63.3465 49.3741 71.7501 55.6434 71.7501H55.9999V201H205V71.7197C210.761 71.1678 212.5 63.2445 207.142 60.4359L132.785 21.4602Z"/>
</mask>
<path fill-rule="evenodd" clip-rule="evenodd" d="M132.785 21.4602C131.041 20.5458 128.959 20.5458 127.214 21.4602L52.8578 60.4359C47.3051 63.3465 49.3741 71.7501 55.6434 71.7501H55.9999V201H205V71.7197C210.761 71.1678 212.5 63.2445 207.142 60.4359L132.785 21.4602Z" fill="white"/>
<path d="M127.214 21.4602L125.822 18.8031L125.822 18.8031L127.214 21.4602ZM132.785 21.4602L134.178 18.8031L134.178 18.8031L132.785 21.4602ZM52.8578 60.4359L51.4651 57.7788L51.4651 57.7788L52.8578 60.4359ZM55.9999 71.7501H58.9999V68.7501H55.9999V71.7501ZM55.9999 201H52.9999V204H55.9999V201ZM205 201V204H208V201H205ZM205 71.7197L204.714 68.7334L202 68.9934V71.7197H205ZM207.142 60.4359L205.749 63.093L205.749 63.093L207.142 60.4359ZM128.607 24.1173C129.479 23.6601 130.52 23.6601 131.393 24.1173L134.178 18.8031C131.562 17.4315 128.438 17.4315 125.822 18.8031L128.607 24.1173ZM54.2506 63.093L128.607 24.1173L125.822 18.8031L51.4651 57.7788L54.2506 63.093ZM55.6434 68.7501C52.5087 68.7501 51.4743 64.5483 54.2506 63.093L51.4651 57.7788C43.136 62.1447 46.2395 74.7501 55.6434 74.7501V68.7501ZM55.9999 68.7501H55.6434V74.7501H55.9999V68.7501ZM58.9999 201V71.7501H52.9999V201H58.9999ZM205 198H55.9999V204H205V198ZM202 71.7197V201H208V71.7197H202ZM205.749 63.093C208.394 64.4794 207.585 68.4583 204.714 68.7334L205.286 74.7061C213.937 73.8774 216.606 62.0096 208.535 57.7788L205.749 63.093ZM131.393 24.1173L205.749 63.093L208.535 57.7788L134.178 18.8031L131.393 24.1173Z" fill="#73C27A" mask="url(#path-23-inside-1_1052_10737)"/>
<path d="M166.619 191.659C163.105 183.564 159.511 171.576 177.03 183.115C172.365 174.452 168.344 160.791 187.319 172.538C182.438 164.398 180.202 148.519 197.813 162.46" stroke="#73C27A" stroke-width="3"/>
<rect width="3.60692" height="29.7559" transform="matrix(0.993606 0.112906 -0.112732 0.993625 70.5618 136.33)" fill="#73C27A"/>
<rect width="3.57857" height="24.5132" transform="matrix(0.677397 -0.735617 0.735092 0.677968 140.049 155.993)" fill="#73C27A"/>
<path d="M110.429 190.373L115.637 174.473C115.905 173.655 115.084 172.902 114.294 173.242L101.77 178.618C100.966 178.963 100.138 178.181 100.436 177.358L105.292 163.93C105.577 163.141 104.825 162.373 104.031 162.642L90.3876 167.263C89.5585 167.544 88.7947 166.698 89.1573 165.901L94.7142 153.684C95.0768 152.887 94.313 152.042 93.4839 152.322L77.8729 157.61" stroke="#73C27A" stroke-width="3"/>
<ellipse cx="78.9653" cy="146.779" rx="1.79533" ry="1.79673" fill="#73C27A"/>
<ellipse cx="153.868" cy="179.805" rx="3.94503" ry="3.9481" fill="#73C27A"/>
<path fill-rule="evenodd" clip-rule="evenodd" d="M66.6567 189.647H99.7831C99.3487 180.869 92.0993 173.885 83.2199 173.885C74.3405 173.885 67.0911 180.869 66.6567 189.647Z" fill="#73C27A"/>
<path fill-rule="evenodd" clip-rule="evenodd" d="M171.606 108.161L151.081 108.161C151.349 113.601 155.841 117.928 161.343 117.928C166.845 117.928 171.337 113.601 171.606 108.161Z" fill="#73C27A"/>
<rect x="191.834" y="120.376" width="3.16944" height="28.3067" transform="rotate(90 191.834 120.376)" fill="#73C27A"/>
<ellipse cx="166.158" cy="91.5957" rx="3.79535" ry="3.79831" fill="#73C27A"/>
<ellipse cx="110.151" cy="73.3679" rx="2.71975" ry="2.72187" fill="#73C27A"/>
<path d="M109.136 92.9868L103.485 83.5618C103.073 82.8742 102.06 82.9268 101.721 83.6533L98.1981 91.2094C97.8529 91.9496 96.8139 91.9863 96.4175 91.2721L92.098 83.491C91.7207 82.8114 90.7463 82.8032 90.3576 83.4764L85.8495 91.285C85.4408 91.993 84.4013 91.9381 84.0695 91.1909L80.7618 83.7426C80.43 82.9955 79.3906 82.9405 78.9818 83.6485L73.5906 92.9868" stroke="#73C27A" stroke-width="3"/>
</svg>
