<svg width="262" height="222" viewBox="0 0 262 222" fill="none" xmlns="http://www.w3.org/2000/svg">
<g opacity="0.5">
<path d="M0 20H262" stroke="#73C27A"/>
<path d="M0 40H262" stroke="#73C27A"/>
<path d="M0 60H262" stroke="#73C27A"/>
<path d="M0 80H262" stroke="#73C27A"/>
<path d="M0 100H262" stroke="#73C27A"/>
<path d="M0 121H262" stroke="#73C27A"/>
<path d="M0 141H262" stroke="#73C27A"/>
<path d="M0 161H262" stroke="#73C27A"/>
<path d="M0 181H262" stroke="#73C27A"/>
<path d="M0 201H262" stroke="#73C27A"/>
<path d="M222 0L222 222" stroke="#73C27A"/>
<path d="M242 0L242 222" stroke="#73C27A"/>
<path d="M20 0L20 222" stroke="#73C27A"/>
<path d="M202 0L202 222" stroke="#73C27A"/>
<path d="M181 0L181 222" stroke="#73C27A"/>
<path d="M161 0L161 222" stroke="#73C27A"/>
<path d="M141 0L141 222" stroke="#73C27A"/>
<path d="M121 0L121 222" stroke="#73C27A"/>
<path d="M101 0L101 222" stroke="#73C27A"/>
<path d="M81 0L81 222" stroke="#73C27A"/>
<path d="M61 0L61 222" stroke="#73C27A"/>
<path d="M40 0L40 222" stroke="#73C27A"/>
</g>
<ellipse cx="59.5632" cy="179.091" rx="11.4614" ry="3.38969" fill="#C5905F"/>
<ellipse cx="59.5632" cy="196.61" rx="11.4614" ry="3.38969" fill="#C5905F"/>
<rect x="48.5967" y="179.122" width="21.9955" height="17.711" fill="#C5905F"/>
<ellipse cx="59.5633" cy="179.092" rx="9.41024" ry="2.45432" fill="#4B2B0D"/>
<path fill-rule="evenodd" clip-rule="evenodd" d="M66.1943 163.886C62.1492 170.499 60.6702 178.352 60.4395 181.433L59.3376 181.37C59.575 178.2 61.0789 170.202 65.2205 163.431L66.1943 163.886Z" fill="#397F28"/>
<path fill-rule="evenodd" clip-rule="evenodd" d="M58.7891 181.42C57.1535 176.209 54.005 171.835 52.6449 170.315L52.9209 169.567C54.3595 171.174 57.6494 175.734 59.3778 181.241L58.7891 181.42Z" fill="#397F28"/>
<path d="M61.2244 156.051C66.1072 151.046 66.6058 157.82 66.2448 161.833L64.2317 162.979L59.1873 160.337C55.1694 158.144 58.8712 156.566 61.2244 156.051Z" fill="#4B943A"/>
<path d="M58.8297 166.276C61.194 172.816 64.4734 166.843 65.8176 163.039L64.4605 161.178L58.7602 161.543C54.1826 161.915 56.8992 164.853 58.8297 166.276Z" fill="#4B943A"/>
<path d="M71.8694 158.982C77.1847 163.716 70.0933 164.093 65.8832 163.69L64.6528 161.752L67.3479 156.976C69.5883 153.173 71.2957 156.729 71.8694 158.982Z" fill="#4B943A"/>
<path d="M69.6978 168.584C76.5172 166.423 70.2099 163.206 66.2039 161.867L64.274 163.136L64.7391 168.582C65.1955 172.957 68.2351 170.406 69.6978 168.584Z" fill="#4B943A"/>
<path d="M47.4908 164.805C48.8404 160.588 51.0693 164.314 52.015 166.705L51.1954 167.92L47.5589 167.819C44.6367 167.688 46.2959 165.755 47.4908 164.805Z" fill="#4B943A"/>
<path d="M49.0592 171.307C52.2856 174.38 52.4422 170.057 52.1172 167.512L50.8089 166.828L47.6611 168.626C45.156 170.115 47.5494 171.034 49.0592 171.307Z" fill="#4B943A"/>
<path d="M54.4064 163.51C58.7978 164.729 54.8599 166.921 52.342 167.865L51.0837 167.103L51.2505 163.626C51.4372 160.831 53.4322 162.384 54.4064 163.51Z" fill="#4B943A"/>
<path d="M55.9232 169.594C59.1938 166.459 54.6715 166.382 52.0016 166.736L51.2645 167.998L53.0931 170.976C54.6092 173.344 55.6115 171.042 55.9232 169.594Z" fill="#4B943A"/>
</svg>
