<svg width="239" height="357" viewBox="0 0 239 357" fill="none" xmlns="http://www.w3.org/2000/svg">
<path d="M204.183 343.672C190.916 343.56 177.84 340.493 165.896 334.691C164.35 333.978 162.964 332.957 161.822 331.691C160.679 330.424 159.805 328.938 159.252 327.322C153.916 310.661 165.822 292.177 166.341 291.346L167.218 289.994L198.724 277.75L207.048 287.19C207.826 286.719 208.604 286.26 209.382 285.826C218.752 280.595 229.598 278.673 240.185 280.368C260.106 283.655 268.084 298.157 268.418 298.765L268.998 299.844V301.084C269.134 309.359 260.958 318.923 259.316 320.759L258.994 321.082C240.271 338.524 220.732 343.672 204.183 343.672ZM173.912 298.231C171.676 302.176 165.575 314.259 168.774 324.282C169.086 324.928 169.628 325.433 170.293 325.697C180.865 330.907 217.954 345.446 251.992 313.949C254.561 311.021 258.167 305.836 258.834 302.511C256.414 299.245 253.374 296.494 249.888 294.416C246.403 292.337 242.543 290.974 238.53 290.403C230.168 289.072 221.604 290.601 214.211 294.745C212.438 295.723 210.727 296.808 209.086 297.995L205.381 300.638L195.797 289.771L173.912 298.231Z" fill="#49B75A"/>
<path d="M172.306 299.099C172.306 299.099 157.053 299.608 162.117 288.146C162.117 288.146 164.587 282.166 172.849 278.01C177.79 275.529 183.409 275.095 188.905 275.256C195.686 275.442 202.972 279.735 196.587 288.716" fill="white"/>
<path d="M171.849 304.136C169.169 304.136 161.45 303.652 157.818 298.219C156.262 295.924 154.966 292.016 157.522 286.148C158.004 285.019 161.227 278.221 170.614 273.507C176.962 270.319 183.792 270.058 189.065 270.22C194.08 270.356 200.366 272.366 202.972 277.663C204.417 280.566 205.183 285.342 200.7 291.681L192.536 285.838C193.956 283.828 194.191 282.538 194.006 282.117C193.647 281.397 191.634 280.367 188.794 280.281C182.717 280.119 178.493 280.801 175.097 282.513C168.774 285.689 166.81 289.957 166.723 290.13C165.933 291.941 166.118 292.611 166.118 292.611C166.476 293.306 169.589 294.212 172.133 294.088L172.479 304.148L171.849 304.136Z" fill="#49B75A"/>
<path d="M207.258 292.624C207.258 292.624 197.538 300.315 198.279 308.59Z" fill="white"/>
<path d="M198.279 313.601C197.037 313.588 195.845 313.112 194.932 312.267C194.02 311.421 193.452 310.266 193.339 309.024C192.375 298.343 202.984 289.609 204.195 288.642C205.246 287.932 206.524 287.648 207.775 287.847C209.025 288.045 210.155 288.712 210.936 289.712C211.718 290.712 212.094 291.972 211.989 293.24C211.884 294.507 211.306 295.687 210.37 296.544C208.394 298.119 202.873 303.627 203.269 308.106C203.33 308.764 203.261 309.428 203.066 310.059C202.871 310.691 202.554 311.278 202.133 311.786C201.712 312.294 201.195 312.714 200.612 313.021C200.029 313.329 199.391 313.517 198.736 313.576L198.279 313.601Z" fill="#49B75A"/>
<path d="M177.308 296.122C177.308 296.122 186.843 298.231 191.313 289.597Z" fill="white"/>
<path d="M179.803 301.394C178.599 301.405 177.398 301.285 176.221 301.035C174.964 300.711 173.881 299.911 173.199 298.802C172.517 297.693 172.29 296.362 172.565 295.088C172.84 293.814 173.596 292.697 174.674 291.972C175.752 291.246 177.068 290.968 178.345 291.197C179.997 291.569 181.725 291.387 183.264 290.679C184.803 289.971 186.068 288.776 186.867 287.277C187.51 286.148 188.562 285.312 189.805 284.945C191.047 284.578 192.383 284.708 193.532 285.307C194.681 285.907 195.554 286.93 195.97 288.162C196.385 289.394 196.31 290.739 195.76 291.917C194.257 294.845 191.962 297.287 189.14 298.964C186.317 300.64 183.081 301.483 179.803 301.394Z" fill="#49B75A"/>
<path d="M111.628 356.673H111.368C59.2243 360.952 36.3758 322.074 30.6205 310.066C29.8168 308.498 29.339 306.782 29.2158 305.022C29.0927 303.263 29.3269 301.497 29.9042 299.831C35.956 283.444 56.5937 276.323 57.4705 276.025L59.1503 275.455L91.484 285.379L92.2126 297.673C92.9289 297.76 93.6452 297.859 94.3616 297.983C104.899 299.667 114.567 304.857 121.817 312.72C135.403 327.607 132.784 343.982 132.661 344.677L132.438 346.004L131.623 347.083C126.597 353.745 114.332 356.189 111.862 356.61L111.628 356.673ZM59.4344 287.203C55.2229 288.952 43.7122 294.447 40.2911 303.727C40.2094 304.262 40.3141 304.81 40.5875 305.277C45.5277 315.66 65.2885 349.205 110.207 345.657C113.913 344.962 119.396 343.176 121.891 341.29C122.003 333.472 119.048 325.924 113.665 320.275C108.098 314.243 100.673 310.267 92.5832 308.986C90.645 308.671 88.6904 308.468 86.729 308.379L81.7888 308.168L80.9366 293.79L59.4344 287.203Z" fill="#49B75A"/>
<path d="M57.6436 286.235C57.6436 286.235 45.5401 277.328 56.4086 271.572C56.4086 271.572 61.9046 268.434 70.834 270.332C76.1448 271.423 80.7145 274.512 84.9137 277.998C90.0515 282.278 93.0774 290.031 82.7276 293.096" fill="white"/>
<path d="M84.2466 298.368L81.1218 287.699C82.2354 287.506 83.2645 286.978 84.0736 286.186C84.1354 285.776 83.4315 283.953 81.3442 282.216C76.8363 278.494 73.2298 276.447 69.6852 275.716C63.1271 274.363 59.1749 276.361 59.0144 276.447C58.4155 276.728 57.8717 277.115 57.4089 277.589C58.2097 279.256 59.416 280.694 60.9164 281.769L54.3583 290.726C52.9257 289.671 45.8116 284.04 46.3551 276.683C46.5527 273.805 48.01 269.736 53.7654 266.684C54.9016 266.052 61.6575 262.702 71.9455 264.824C78.8988 266.25 84.4195 270.294 88.4581 273.656C93.4725 277.849 95.9549 283.581 94.9422 288.456C94.2382 291.743 91.8421 296.122 84.2466 298.368Z" fill="#49B75A"/>
<path d="M88.5692 302.548C88.5692 302.548 76.4162 302.548 71.9947 309.409Z" fill="white"/>
<path d="M72.5259 314.954C71.2801 315.082 70.0283 314.776 68.9813 314.085C67.7517 313.281 66.8898 312.02 66.5842 310.578C66.2786 309.136 66.5543 307.632 67.351 306.394C73.2298 297.288 87.0131 297.003 88.5693 297.003C90.0433 297.003 91.4569 297.591 92.4992 298.638C93.5415 299.685 94.127 301.105 94.127 302.586C94.127 304.066 93.5415 305.486 92.4992 306.533C91.4569 307.58 90.0433 308.168 88.5693 308.168C85.5804 308.168 78.6888 309.272 76.6139 312.497C76.1583 313.187 75.5546 313.766 74.8472 314.191C74.1398 314.616 73.3467 314.877 72.5259 314.954Z" fill="#49B75A"/>
<path d="M63.2509 286.979C63.2509 286.979 69.3397 294.423 78.0715 290.478Z" fill="white"/>
<path d="M74.6501 297.102C71.7141 297.311 68.7703 296.824 66.0564 295.68C63.3424 294.536 60.9343 292.766 59.0266 290.515C58.0881 289.38 57.637 287.917 57.7725 286.448C57.908 284.979 58.6191 283.624 59.7492 282.681C60.8793 281.738 62.3357 281.285 63.7984 281.421C65.2611 281.558 66.61 282.272 67.5485 283.407C68.5153 284.598 69.8437 285.44 71.331 285.803C72.8183 286.166 74.383 286.03 75.7864 285.416C76.4491 285.108 77.1662 284.934 77.8963 284.905C78.6264 284.876 79.3549 284.992 80.0398 285.248C80.7248 285.503 81.3527 285.892 81.8871 286.393C82.4216 286.893 82.8523 287.495 83.154 288.163C83.4557 288.831 83.6227 289.553 83.6452 290.287C83.6677 291.02 83.5453 291.751 83.2852 292.437C83.025 293.122 82.6323 293.75 82.1296 294.282C81.6268 294.815 81.024 295.242 80.356 295.539C78.553 296.373 76.6249 296.901 74.6501 297.102Z" fill="#49B75A"/>
<path d="M104.303 130.706C108.935 129.088 111.18 123.412 109.316 118.028C107.453 112.644 102.187 109.591 97.5547 111.208C92.9223 112.826 90.6777 118.502 92.5412 123.886C94.4047 129.27 99.6708 132.324 104.303 130.706Z" fill="#49B75A"/>
<path d="M146.571 117.006C151.204 115.388 153.448 109.712 151.585 104.328C149.721 98.9439 144.455 95.8905 139.823 97.5081C135.19 99.1257 132.946 104.802 134.809 110.186C136.673 115.57 141.939 118.624 146.571 117.006Z" fill="#49B75A"/>
<path d="M140.244 161.512C122.854 168 105.959 160.656 105.662 160.544C104.494 160 103.573 159.034 103.083 157.838C102.593 156.642 102.57 155.305 103.019 154.093C103.238 153.516 103.574 152.99 104.004 152.548C104.434 152.106 104.95 151.758 105.52 151.525C106.09 151.292 106.702 151.18 107.317 151.195C107.932 151.21 108.538 151.352 109.096 151.612C110.479 152.22 139.799 164.625 156.435 133.736C156.725 133.188 157.125 132.707 157.609 132.321C158.093 131.936 158.652 131.655 159.249 131.497C159.846 131.338 160.469 131.306 161.08 131.401C161.69 131.496 162.274 131.716 162.796 132.049C163.889 132.731 164.685 133.803 165.026 135.049C165.367 136.295 165.228 137.625 164.636 138.772C157.757 151.55 148.939 158.261 140.244 161.512Z" fill="#49B75A"/>
<path d="M146.358 222.869C141.766 224.175 137.013 224.818 132.241 224.779H131.599C128.235 224.614 124.89 225.364 121.916 226.95C119.679 228.281 117.347 229.442 114.938 230.423C105.848 234.033 92.7067 237.867 81.8753 235.572C80.7684 235.439 79.6712 235.236 78.5901 234.964C78.0961 234.827 77.4662 234.703 76.7376 234.542C71.7973 233.45 62.5096 231.428 55.0129 225.746C50.3691 222.596 -8.17247 181.509 0.966921 119.569C3.25177 104.038 11.6132 90.6771 23.9019 82.9114C24.8406 82.3035 25.841 81.6709 26.8785 81.1375C34.502 77.0202 42.9363 74.6439 51.5795 74.1781C66.8571 73.1733 78.6641 72.0691 84.1848 71.1387C91.6033 68.3664 98.7212 64.8416 105.428 60.619C114.248 54.9881 124.279 51.5519 134.686 50.5955C148.432 49.5287 160.412 53.2502 169.268 61.3881C169.7 61.7851 170.169 62.1573 170.639 62.5419C171.441 63.1994 172.244 63.7824 172.948 64.5267C187.67 78.5572 195.784 102.983 197.069 137.185C197.069 138.661 198.044 173.086 177.666 200.638C170.044 211.224 159.176 219.006 146.728 222.794L146.358 222.869ZM132.698 210.004C136.08 209.987 139.443 209.494 142.689 208.54C152.023 205.65 160.157 199.768 165.847 191.793C183.137 168.471 182.359 137.979 182.359 137.669C181.581 116.952 177.555 89.2878 162.833 75.2201C162.401 74.8107 161.894 74.4138 161.388 73.9796C160.882 73.5454 160.017 72.8631 159.375 72.2801C153.447 66.8713 145.505 64.5143 135.773 65.2834C127.694 66.0481 119.914 68.7449 113.085 73.1484C105.255 78.1147 96.9003 82.1921 88.1742 85.3057L87.7172 85.4421L87.2479 85.529C79.7141 86.8936 64.1771 88.0969 52.4811 88.8784C46.0024 89.2045 39.6758 90.9669 33.9553 94.0391C33.1772 94.4609 32.4485 94.9074 31.7321 95.354C23.0868 100.825 17.1709 110.414 15.5159 121.678C7.57449 175.43 62.7937 213.13 63.3495 213.478L63.7448 213.751C68.685 217.547 75.6754 219.073 79.8005 219.953C80.7144 220.152 81.5048 220.325 82.1224 220.487C82.5282 220.593 82.9409 220.672 83.3574 220.722C83.8267 220.784 84.259 220.846 84.8394 220.97C90.4713 222.211 99.4378 220.536 109.54 216.542C111.246 215.838 112.897 215.009 114.481 214.061C120.038 210.977 126.363 209.569 132.698 210.004Z" fill="#49B75A"/>
<path d="M84.6666 78.8428C83.0754 79.2926 81.3793 79.1866 79.8559 78.542C78.3325 77.8975 77.072 76.7527 76.2807 75.2949C75.6014 74.0543 59.941 44.1202 89.8663 2.48783C91.0878 1.11271 92.7737 0.241637 94.5979 0.0432601C96.422 -0.155117 98.2546 0.333375 99.7408 1.41403C101.227 2.49468 102.261 4.09072 102.643 5.89324C103.025 7.69577 102.728 9.57651 101.809 11.1716C77.6145 44.8149 88.7671 67.3554 89.2488 68.2982C90.1282 70.0255 90.3015 72.0293 89.7317 73.8831C89.1619 75.7368 87.8939 77.2939 86.1981 78.2225C85.7154 78.4928 85.2009 78.7011 84.6666 78.8428Z" fill="#49B75A"/>
<path d="M76.3915 42.2713C76.3915 42.2713 33.5104 47.4816 28.1503 3.81475C28.1503 3.77754 60.4964 -7.93311 76.3915 42.2713Z" fill="#49B75A"/>
<path d="M100.302 165.965C99.601 165.965 98.9142 165.765 98.3218 165.388C97.7294 165.011 97.2555 164.473 96.9554 163.836C96.6554 163.2 96.5414 162.491 96.6266 161.791C96.7118 161.092 96.9929 160.432 97.437 159.887C101.34 155.111 99.1166 148.114 99.0919 148.052C98.7742 147.118 98.8389 146.095 99.2721 145.208C99.7052 144.322 100.471 143.645 101.401 143.326C102.332 143.006 103.35 143.072 104.232 143.507C105.115 143.942 105.789 144.711 106.107 145.645C106.255 146.092 109.713 156.599 103.167 164.613C102.819 165.037 102.381 165.378 101.886 165.612C101.39 165.846 100.85 165.967 100.302 165.965Z" fill="#49B75A"/>
<path d="M152.385 217.696C152.385 217.696 175.147 249.689 175.233 280.888Z" fill="white"/>
<path d="M175.233 288.332C173.268 288.332 171.383 287.548 169.993 286.152C168.603 284.756 167.823 282.863 167.823 280.889C167.748 252.505 146.567 222.311 146.357 222C145.211 220.393 144.747 218.394 145.068 216.444C145.389 214.493 146.468 212.75 148.068 211.599C149.668 210.447 151.658 209.981 153.6 210.303C155.542 210.626 157.277 211.709 158.424 213.317C159.4 214.706 182.557 247.617 182.643 280.814C182.643 282.788 181.862 284.681 180.473 286.077C179.083 287.473 177.198 288.257 175.233 288.257V288.332Z" fill="#49B75A"/>
<path d="M95.0285 231.155C95.0285 231.155 85.4075 260.271 70.4016 278.06Z" fill="white"/>
<path d="M70.4015 285.912C69.5033 285.886 68.624 285.647 67.8345 285.216C67.045 284.785 66.3673 284.174 65.8565 283.431C64.7073 281.797 64.1132 279.835 64.1622 277.835C64.2111 275.835 64.9005 273.904 66.1281 272.329C79.9484 255.941 89.1742 228.401 89.273 228.128C90.5945 224.121 94.2134 222.236 97.4369 223.898C100.66 225.56 102.118 230.163 100.796 234.17C100.376 235.41 90.4711 265.034 74.6748 283.791C74.162 284.439 73.513 284.965 72.7742 285.332C72.0355 285.698 71.2254 285.897 70.4015 285.912Z" fill="#49B75A"/>
<path d="M83.9091 146.881C89.49 144.875 92.9633 140.299 91.6671 136.661C90.3709 133.023 84.796 131.7 79.2151 133.706C73.6343 135.712 70.1608 140.287 71.457 143.925C72.7532 147.564 78.3282 148.887 83.9091 146.881Z" fill="#F2985C"/>
</svg>
