<svg width="52" height="73" viewBox="0 0 52 73" fill="none" xmlns="http://www.w3.org/2000/svg">
<g id="&#237;&#148;&#140;&#235;&#157;&#188;&#236;&#138;&#164;&#237;&#139;&#177; &#237;&#148;&#189;&#237;&#134;&#160;&#234;&#183;&#184;&#235;&#158;&#168;">
<g id="Vector 14">
<path d="M5.1481 31.2458L11.421 12.4844L14.6005 4.57326C15.4023 2.57825 17.6377 1.57397 19.6617 2.29951L28.4067 5.43431C30.4401 6.16321 31.5274 8.37479 30.863 10.4301L28.2542 18.5L45.0874 31.8984C49.6486 36.9297 48.6169 41.2865 47.5309 42.8359L40.2003 52.1328L44.5649 59.8776C45.4235 61.4013 45.6671 63.1955 45.2458 64.893L45.1241 65.3834C44.749 66.8943 43.8665 68.2307 42.6243 69.1691C41.0513 70.3572 39.1338 71 37.1626 71H12.7073C10.2981 71 7.96595 70.151 6.12057 68.6023C3.80101 66.6555 2.46143 63.7824 2.46143 60.7542V47.7539C2.46143 42.1424 3.36869 36.5677 5.1481 31.2458Z" fill="white"/>
<path d="M11.421 12.4844L5.1481 31.2458C3.36869 36.5678 2.46143 42.1424 2.46143 47.7539V60.7542C2.46143 63.7824 3.80101 66.6555 6.12057 68.6023V68.6023C7.96595 70.151 10.2981 71 12.7073 71H37.1626C39.1338 71 41.0513 70.3572 42.6243 69.1691V69.1691C43.8665 68.2307 44.749 66.8943 45.1241 65.3834L45.2458 64.893C45.6671 63.1956 45.4236 61.4013 44.5649 59.8776L40.2003 52.1328L47.5309 42.8359C48.6169 41.2865 49.6486 36.9297 45.0874 31.8984L28.2542 18.5M11.421 12.4844L28.2542 18.5M11.421 12.4844L14.6005 4.57326C15.4023 2.57825 17.6377 1.57397 19.6617 2.29951L28.4067 5.43431C30.4401 6.16321 31.5274 8.37479 30.863 10.4301L28.2542 18.5M24.7247 25.8828L38.0283 36.2734" stroke="#49B75A" stroke-width="3" stroke-linecap="round"/>
</g>
<path id="Vector 15" d="M32.5386 50.25C31.7101 50.25 31.0386 50.9216 31.0386 51.75C31.0386 52.5784 31.7101 53.25 32.5386 53.25V50.25ZM32.5386 53.25H41.4982V50.25H32.5386V53.25Z" fill="#49B75A"/>
</g>
</svg>
