<svg width="22" height="21" viewBox="0 0 22 21" fill="none" xmlns="http://www.w3.org/2000/svg">
<g clip-path="url(#clip0_1055_727)">
<path fill-rule="evenodd" clip-rule="evenodd" d="M9.19824 1.36445C8.83682 1.23838 8.43763 1.41289 8.29446 1.75955L7.55222 3.55671L11.5259 4.93859L12.1354 3.1041C12.254 2.74695 12.0599 2.36266 11.6968 2.236L9.19824 1.36445ZM11.5866 5.84541L7.25613 4.33948L5.60262 9.15187C5.10887 10.5889 4.85713 12.0941 4.85713 13.6093V17.2236C4.85713 17.9423 5.18383 18.6242 5.74953 19.0862C6.19958 19.4537 6.76834 19.6552 7.3559 19.6552H14.343C14.813 19.6552 15.2702 19.5061 15.6452 19.2304C15.9218 19.0271 16.1182 18.7376 16.2018 18.4102L16.2365 18.2739C16.3306 17.9052 16.2762 17.5156 16.0846 17.1847L14.6966 14.788L16.9602 11.9944C17.1433 11.729 17.4567 10.7511 16.3125 9.50583L11.5866 5.84541ZM12.2969 5.32953L12.951 3.36066C13.212 2.57495 12.7848 1.7295 11.986 1.45086L9.48747 0.579306C8.69235 0.301947 7.81414 0.685863 7.49916 1.44852L6.586 3.65951L4.78972 8.88739C4.26668 10.4096 4 12.0042 4 13.6093V17.2236C4 18.1888 4.43876 19.1046 5.19851 19.725C5.80294 20.2187 6.5668 20.4893 7.3559 20.4893H14.343C14.9994 20.4893 15.638 20.281 16.1618 19.896C16.595 19.5775 16.9028 19.1239 17.0336 18.6111L17.0684 18.4748C17.2151 17.8996 17.1303 17.2915 16.8313 16.7752L15.7253 14.8654L17.6494 12.4909L17.6563 12.4813C18.0936 11.8742 18.3476 10.4483 16.9247 8.92097L16.9013 8.89588L12.2969 5.32953ZM10.4516 7.27189C10.5973 7.09037 10.8666 7.05815 11.0532 7.19992L14.8542 10.0888C15.0407 10.2305 15.0738 10.4926 14.9281 10.6741C14.7824 10.8556 14.5131 10.8879 14.3266 10.7461L10.5256 7.85726C10.339 7.71549 10.3059 7.45341 10.4516 7.27189Z" fill="white"/>
</g>
<defs>
<clipPath id="clip0_1055_727">
<rect width="22" height="20" fill="white" transform="translate(0 0.489258)"/>
</clipPath>
</defs>
</svg>
