<svg width="34" height="31" viewBox="0 0 34 31" fill="none" xmlns="http://www.w3.org/2000/svg">
<g id="tap_flogging">
<path id="Vector 29 (Stroke)" fill-rule="evenodd" clip-rule="evenodd" d="M12.2133 3.12506C13.2847 2.65636 14.5287 3.16393 14.9757 4.25215L18.7853 13.5271C20.7462 12.0384 22.5571 11.1864 24.2325 10.8712C26.2467 10.4922 27.9927 10.9037 29.4509 11.7948C31.3714 12.9685 32.5077 14.526 32.9008 16.3071C33.2878 18.0608 32.924 19.8917 32.1216 21.5921C30.5265 24.9725 27.0705 28.1282 23.2028 29.8268C16.3236 32.848 8.34069 29.4392 5.70316 22.3542L1.15826 10.1457C0.766551 9.09354 1.26172 7.91608 2.284 7.46886L3.1152 9.40377L7.66009 21.6123C9.87699 27.5673 16.5868 30.4324 22.3688 27.8931C25.8559 26.3616 28.8914 23.5317 30.2342 20.686C30.9008 19.2733 31.1175 17.9311 30.8604 16.7659C30.6093 15.6282 29.8768 14.5211 28.3675 13.5987C27.3289 12.9641 26.1024 12.6647 24.6153 12.9445C23.101 13.2294 21.2484 14.1291 19.0289 16.0314L17.9358 16.9683L13.0445 5.05997L3.1152 9.40377L2.284 7.46886L12.2133 3.12506Z" fill="#C0C0C0"/>
<path id="Vector 46 (Stroke)" fill-rule="evenodd" clip-rule="evenodd" d="M12.9122 0.653188C13.1451 1.20267 12.8987 1.84135 12.3618 2.07972L1.48166 6.91014C0.944761 7.14851 0.320707 6.8963 0.0877994 6.34681C-0.145109 5.79733 0.101327 5.15865 0.638228 4.92028L11.5183 0.0898574C12.0552 -0.14851 12.6793 0.103702 12.9122 0.653188Z" fill="#C0C0C0"/>
</g>
</svg>
