<svg width="24" height="24" viewBox="0 0 24 24" fill="none" xmlns="http://www.w3.org/2000/svg">
<path id="Arrow 6" d="M2 13.5C1.17157 13.5 0.5 12.8284 0.5 12C0.5 11.1716 1.17157 10.5 2 10.5L2 13.5ZM23.0607 10.9393C23.6464 11.5251 23.6464 12.4749 23.0607 13.0607L13.5147 22.6066C12.9289 23.1924 11.9792 23.1924 11.3934 22.6066C10.8076 22.0208 10.8076 21.0711 11.3934 20.4853L19.8787 12L11.3934 3.51472C10.8076 2.92893 10.8076 1.97919 11.3934 1.3934C11.9792 0.807611 12.9289 0.807611 13.5147 1.3934L23.0607 10.9393ZM2 10.5L22 10.5V13.5L2 13.5L2 10.5Z" fill="#49B75A"/>
</svg>
