<svg width="110" height="126" viewBox="0 0 110 126" fill="none" xmlns="http://www.w3.org/2000/svg">
<rect width="110" height="126" rx="20" fill="#F9FBF9"/>
<rect x="17" y="92" width="76" height="21" rx="10.5" fill="#27C841"/>
<path d="M47.9108 106.531L47.899 105.254L50.9459 102.453C51.7369 101.697 52.1647 101.229 52.1647 100.555C52.1647 99.7988 51.5963 99.3301 50.817 99.3359C50.0201 99.3301 49.4987 99.834 49.5045 100.648H47.8287C47.8229 98.9902 49.0533 97.9297 50.8405 97.9297C52.6569 97.9297 53.8639 98.9668 53.8639 100.438C53.8639 101.404 53.3951 102.195 51.649 103.777L50.36 105.031V105.078H53.9811V106.531H47.9108Z" fill="white"/>
<path d="M78.1135 106.648C76.2502 106.648 74.9143 105.623 74.8792 104.141H76.6604C76.6897 104.773 77.3049 105.189 78.1252 105.195C78.969 105.189 79.5725 104.721 79.5667 104.035C79.5725 103.344 78.9573 102.857 77.9612 102.852H77.176V101.551H77.9612C78.7991 101.551 79.385 101.094 79.3792 100.426C79.385 99.7754 78.887 99.3301 78.137 99.3359C77.387 99.3301 76.7717 99.752 76.7424 100.402H75.0549C75.0842 98.9434 76.3967 97.9297 78.137 97.9297C79.9065 97.9297 81.0842 98.9785 81.0784 100.32C81.0842 101.27 80.4221 101.943 79.4729 102.113V102.184C80.7209 102.336 81.4065 103.092 81.3948 104.152C81.4065 105.605 80.0295 106.648 78.1135 106.648Z" fill="white"/>
<path d="M54.3135 20.922H53.0739V12.0062H54.3135V20.922ZM53.3259 16.2327H51.6443V15.2141H53.3259V16.2327ZM47.8701 17.8211C48.7173 17.8211 49.432 17.805 50.0145 17.7728C50.5969 17.7406 51.1873 17.6727 51.7859 17.5691L51.886 18.5808C51.2668 18.6844 50.6464 18.7558 50.0248 18.7949C49.4033 18.8317 48.685 18.8501 47.8701 18.8501H47.1381V17.8211H47.8701ZM51.1471 16.0843H48.3812V18.1457H47.1381V15.0932H49.9281V13.7604H47.1174V12.7555H51.1471V16.0843ZM61.5881 13.8294H55.901V12.828H61.5881V13.8294ZM63.1696 19.7307H55.0619V18.7155H63.1696V19.7307ZM62.1682 13.933C62.1659 14.4671 62.159 14.924 62.1475 15.3039C62.1383 15.6814 62.1107 16.1107 62.0646 16.5919C62.0186 17.073 61.9472 17.5967 61.8506 18.163L60.5867 18.0628C60.688 17.538 60.7629 17.0419 60.8112 16.5746C60.8618 16.105 60.8929 15.6814 60.9044 15.3039C60.9182 14.9263 60.9251 14.4786 60.9251 13.9606V13.8916V12.828H62.1682V13.8916V13.933Z" fill="#005A13"/>
<path fill-rule="evenodd" clip-rule="evenodd" d="M29.3936 95.9229H32.8801V98.7551C32.8801 99.6241 33.5688 100.329 34.4183 100.329H36.2642C37.1137 100.329 37.8024 99.6241 37.8024 98.7551V95.9229H41.2889V106.937C41.2889 108.154 40.3248 109.14 39.1355 109.14H31.547C30.3577 109.14 29.3936 108.154 29.3936 106.937V95.9229ZM30.0088 96.5522V106.937C30.0088 107.806 30.6975 108.511 31.547 108.511H39.1355C39.985 108.511 40.6737 107.806 40.6737 106.937V96.5522H38.4176V98.7551C38.4176 99.9717 37.4535 100.958 36.2642 100.958H34.4183C33.229 100.958 32.2649 99.9717 32.2649 98.7551V96.5522H30.0088Z" fill="white"/>
<ellipse cx="55" cy="54.5" rx="36.5" ry="15.5" fill="#BDCA70"/>
<ellipse cx="55" cy="53.836" rx="32.8816" ry="13.3653" fill="#D8EB6E"/>
<path fill-rule="evenodd" clip-rule="evenodd" d="M63.8626 96.1439C63.6303 96.0556 63.3736 96.1778 63.2816 96.4205L62.8044 97.6785L65.359 98.6458L65.7508 97.3616C65.827 97.1116 65.7022 96.8426 65.4688 96.754L63.8626 96.1439ZM65.398 99.2806L62.6141 98.2264L61.5511 101.595C61.2337 102.601 61.0719 103.655 61.0719 104.715V107.245C61.0719 107.748 61.2819 108.226 61.6456 108.549C61.9349 108.806 62.3005 108.947 62.6782 108.947H67.17C67.4721 108.947 67.766 108.843 68.0071 108.65C68.1849 108.508 68.3112 108.305 68.3649 108.076L68.3872 107.98C68.4477 107.722 68.4127 107.45 68.2895 107.218L67.3972 105.54L68.8524 103.585C68.9701 103.399 69.1716 102.715 68.4361 101.843L65.398 99.2806ZM65.8546 98.9194L66.2751 97.5412C66.4429 96.9912 66.1682 96.3994 65.6547 96.2044L64.0485 95.5943C63.5374 95.4001 62.9728 95.6689 62.7703 96.2027L62.1833 97.7504L61.0286 101.41C60.6923 102.476 60.5209 103.592 60.5209 104.715V107.245C60.5209 107.921 60.8029 108.562 61.2913 108.996C61.6799 109.342 62.171 109.531 62.6782 109.531H67.17C67.5919 109.531 68.0024 109.385 68.3392 109.116C68.6177 108.893 68.8155 108.576 68.8996 108.217L68.922 108.121C69.0163 107.718 68.9618 107.293 68.7696 106.931L68.0586 105.595L69.2955 103.932L69.2999 103.926C69.581 103.501 69.7443 102.503 68.8296 101.433L68.8146 101.416L65.8546 98.9194ZM64.6683 100.279C64.762 100.152 64.9351 100.129 65.0551 100.229L67.4985 102.251C67.6185 102.35 67.6397 102.534 67.5461 102.661C67.4524 102.788 67.2793 102.81 67.1594 102.711L64.7159 100.689C64.596 100.59 64.5747 100.406 64.6683 100.279Z" fill="white"/>
</svg>
