<svg width="51" height="51" viewBox="0 0 51 51" fill="none" xmlns="http://www.w3.org/2000/svg">
<circle cx="25.5" cy="25.5" r="25.5" fill="white"/>
<path d="M21.808 11.2265C23.4084 9.10737 26.5916 9.10737 28.192 11.2265L30.9313 14.8536C31.4099 15.4873 32.0663 15.9642 32.8169 16.2236L37.113 17.708C39.623 18.5752 40.6066 21.6026 39.0858 23.7795L36.4827 27.5056C36.0279 28.1566 35.7771 28.9283 35.7624 29.7223L35.6782 34.2668C35.629 36.9219 33.0539 38.7929 30.5135 38.0192L26.1654 36.6949C25.4057 36.4636 24.5943 36.4636 23.8346 36.6949L19.4865 38.0192C16.9461 38.7929 14.371 36.9219 14.3218 34.2668L14.2376 29.7223C14.2229 28.9283 13.9721 28.1566 13.5173 27.5056L10.9142 23.7795C9.3934 21.6026 10.377 18.5753 12.887 17.708L17.1831 16.2236C17.9337 15.9642 18.5901 15.4873 19.0687 14.8536L21.808 11.2265Z" fill="#49B75A"/>
</svg>
