<svg width="22" height="21" viewBox="0 0 22 21" fill="none" xmlns="http://www.w3.org/2000/svg">
<path fill-rule="evenodd" clip-rule="evenodd" d="M9.20152 4.7085C10.6207 4.47116 12.067 4.42626 13.499 4.57507L19.802 5.2301L21.2691 8.93002L21.4496 8.97378C22.1039 9.13244 22.2015 9.99501 21.5983 10.2876L21.3178 10.4236L20.4392 13.8324L13.1347 16.4893L2.57215 14.4402L1.69696 11.0447L1.55042 11.0091C0.896129 10.8505 0.798506 9.98792 1.40173 9.69537L1.67784 9.56146L2.56854 5.81775L9.20152 4.7085ZM2.64267 11.2277L3.28404 13.7161L12.7044 15.5435L12.9214 13.0171L2.64267 11.2277ZM13.7995 12.9784L13.5897 15.4207L19.7046 13.1966L20.3256 10.7873L13.7995 12.9784ZM20.3749 9.03042L19.2238 6.12739L13.2875 7.62946L13.7545 11.2532L20.3749 9.03042ZM12.8828 11.3058L12.4174 7.69514L3.26499 6.65073L2.58403 9.51289L12.8828 11.3058ZM5.96593 6.10759L12.777 6.88481L17.0756 5.79713L13.4061 5.41578C12.0544 5.27531 10.6892 5.3177 9.34963 5.54173L5.96593 6.10759Z" fill="white"/>
</svg>
