<svg width="22" height="20" viewBox="0 0 22 20" fill="none" xmlns="http://www.w3.org/2000/svg">
<path fill-rule="evenodd" clip-rule="evenodd" d="M9.20152 4.21924C10.6207 3.9819 12.067 3.937 13.499 4.08581L19.802 4.74084L21.2691 8.44076L21.4496 8.48452C22.1039 8.64318 22.2015 9.50575 21.5983 9.7983L21.3178 9.9343L20.4392 13.3431L13.1347 16L2.57215 13.951L1.69696 10.5554L1.55042 10.5199C0.896129 10.3612 0.798506 9.49866 1.40173 9.20611L1.67784 9.07221L2.56854 5.32849L9.20152 4.21924ZM2.64267 10.7384L3.28404 13.2268L12.7044 15.0543L12.9214 12.5279L2.64267 10.7384ZM13.7995 12.4891L13.5897 14.9315L19.7046 12.7073L20.3256 10.298L13.7995 12.4891ZM20.3749 8.54116L19.2238 5.63813L13.2875 7.1402L13.7545 10.764L20.3749 8.54116ZM12.8828 10.8166L12.4174 7.20588L3.26499 6.16148L2.58403 9.02363L12.8828 10.8166ZM5.96593 5.61833L12.777 6.39555L17.0756 5.30787L13.4061 4.92652C12.0544 4.78605 10.6892 4.82844 9.34963 5.05247L5.96593 5.61833Z" fill="#49B75A"/>
</svg>
