<svg width="73" height="44" viewBox="0 0 73 44" fill="none" xmlns="http://www.w3.org/2000/svg">
<g id="&#236;&#138;&#164;&#237;&#139;&#176;&#235;&#161;&#156;&#237;&#143;&#188; &#237;&#148;&#189;&#237;&#134;&#160;&#234;&#183;&#184;&#235;&#158;&#168;">
<path d="M4 20L7 7L28.8447 3.23368C33.5919 2.4152 38.4297 2.26033 43.2196 2.77352L64 5L69 18L70.3775 18.3444C71.2781 18.5695 71.4125 19.7937 70.5821 20.2089L69 21L66 33L42 42L7 35L4 23L2.62254 22.6556C1.72186 22.4305 1.58747 21.2063 2.41787 20.7911L4 20Z" fill="white"/>
<path d="M4 20L7 7M4 20L43 27M4 20L2.41787 20.7911C1.58747 21.2063 1.72186 22.4305 2.62254 22.6556L4 23M7 7L41 11M7 7L28.8447 3.23368C33.5919 2.4152 38.4297 2.26033 43.2196 2.77352L64 5M41 11L43 27M41 11L64 5M43 27L69 18M64 5L69 18M69 18L70.3775 18.3444C71.2781 18.5695 71.4125 19.7937 70.5821 20.2089L69 21M43 30L4 23M43 30L69 21M43 30L42 42M4 23L7 35L42 42M42 42L66 33L69 21" stroke="#49B75A" stroke-width="3" stroke-linecap="round"/>
</g>
</svg>
