<svg width="110" height="126" viewBox="0 0 110 126" fill="none" xmlns="http://www.w3.org/2000/svg">
<rect width="110" height="126" rx="20" fill="#F9FBF9"/>
<rect x="17" y="92" width="76" height="21" rx="10.5" fill="#27C841"/>
<path fill-rule="evenodd" clip-rule="evenodd" d="M33.3417 96.1439C33.1094 96.0556 32.8528 96.1778 32.7607 96.4205L32.2836 97.6785L34.8381 98.6458L35.2299 97.3616C35.3062 97.1116 35.1813 96.8426 34.9479 96.754L33.3417 96.1439ZM34.8771 99.2806L32.0932 98.2264L31.0303 101.595C30.7128 102.601 30.551 103.655 30.551 104.715V107.245C30.551 107.748 30.761 108.226 31.1247 108.549C31.414 108.806 31.7796 108.947 32.1574 108.947H36.6491C36.9512 108.947 37.2451 108.843 37.4862 108.65C37.664 108.508 37.7903 108.305 37.844 108.076L37.8663 107.98C37.9268 107.722 37.8918 107.45 37.7687 107.218L36.8764 105.54L38.3316 103.585C38.4493 103.399 38.6507 102.715 37.9152 101.843L34.8771 99.2806ZM35.3337 98.9194L35.7542 97.5412C35.922 96.9912 35.6474 96.3994 35.1339 96.2044L33.5277 95.5943C33.0165 95.4001 32.4519 95.6689 32.2495 96.2027L31.6624 97.7504L30.5077 101.41C30.1714 102.476 30 103.592 30 104.715V107.245C30 107.921 30.2821 108.562 30.7705 108.996C31.159 109.342 31.6501 109.531 32.1574 109.531H36.6491C37.0711 109.531 37.4816 109.385 37.8183 109.116C38.0968 108.893 38.2947 108.576 38.3788 108.217L38.4011 108.121C38.4955 107.718 38.4409 107.293 38.2487 106.931L37.5377 105.595L38.7746 103.932L38.779 103.926C39.0602 103.501 39.2235 102.503 38.3087 101.433L38.2937 101.416L35.3337 98.9194ZM34.1475 100.279C34.2411 100.152 34.4143 100.129 34.5342 100.229L36.9777 102.251C37.0976 102.35 37.1189 102.534 37.0252 102.661C36.9316 102.788 36.7584 102.81 36.6385 102.711L34.195 100.689C34.0751 100.59 34.0538 100.406 34.1475 100.279Z" fill="white"/>
<path d="M47.6123 106.648C45.749 106.648 44.4131 105.623 44.3779 104.141H46.1592C46.1885 104.773 46.8037 105.189 47.624 105.195C48.4678 105.189 49.0713 104.721 49.0654 104.035C49.0713 103.344 48.4561 102.857 47.46 102.852H46.6748V101.551H47.46C48.2979 101.551 48.8838 101.094 48.8779 100.426C48.8838 99.7754 48.3857 99.3301 47.6357 99.3359C46.8857 99.3301 46.2705 99.752 46.2412 100.402H44.5537C44.583 98.9434 45.8955 97.9297 47.6357 97.9297C49.4053 97.9297 50.583 98.9785 50.5771 100.32C50.583 101.27 49.9209 101.943 48.9717 102.113V102.184C50.2197 102.336 50.9053 103.092 50.8936 104.152C50.9053 105.605 49.5283 106.648 47.6123 106.648Z" fill="white"/>
<path d="M73.9132 106.531L73.9015 105.254L76.9484 102.453C77.7394 101.697 78.1671 101.229 78.1671 100.555C78.1671 99.7988 77.5988 99.3301 76.8195 99.3359C76.0226 99.3301 75.5011 99.834 75.507 100.648H73.8312C73.8253 98.9902 75.0558 97.9297 76.8429 97.9297C78.6593 97.9297 79.8663 98.9668 79.8663 100.438C79.8663 101.404 79.3976 102.195 77.6515 103.777L76.3624 105.031V105.078H79.9835V106.531H73.9132Z" fill="white"/>
<path d="M47.9621 16.2535H46.3668V15.2555H47.9621V16.2535ZM43.5733 17.942C44.2501 17.9374 44.8129 17.9213 45.2618 17.8936C45.7107 17.866 46.17 17.8142 46.6396 17.7383L46.7466 18.7362C46.2816 18.8237 45.8258 18.8789 45.3792 18.9019C44.9349 18.925 44.3329 18.9376 43.5733 18.9399H42.9794V17.942H43.5733ZM46.3046 13.9779H44.1637V18.3046H42.9794V12.9938H46.3046V13.9779ZM45.9559 16.3363H43.8219V15.3867H45.9559V16.3363ZM50.4103 20.9012H49.2121V12.0062H50.4103V20.9012ZM48.5284 20.4938H47.3682V12.1651H48.5284V20.4938ZM58.3824 20.922H57.1221V12.0062H58.3824V20.922ZM53.5551 12.6347C54.0017 12.6347 54.4022 12.7647 54.7567 13.0249C55.1113 13.2827 55.3898 13.651 55.5924 14.1298C55.795 14.6087 55.8963 15.1646 55.8963 15.7977C55.8963 16.4353 55.795 16.9947 55.5924 17.4758C55.3921 17.957 55.1147 18.3276 54.7602 18.5877C54.4057 18.8455 54.004 18.9744 53.5551 18.9744C53.1016 18.9744 52.6964 18.8455 52.3396 18.5877C51.9851 18.3276 51.7066 17.9581 51.504 17.4793C51.3014 16.9982 51.2013 16.4376 51.2036 15.7977C51.2013 15.1646 51.3014 14.6087 51.504 14.1298C51.7066 13.651 51.9863 13.2827 52.3431 13.0249C52.6999 12.7647 53.1039 12.6347 53.5551 12.6347ZM53.5551 13.7604C53.3249 13.7604 53.1235 13.8398 52.9508 13.9986C52.7782 14.1552 52.6435 14.3865 52.5468 14.6927C52.4524 14.9988 52.4064 15.3672 52.4087 15.7977C52.4064 16.2327 52.4524 16.6034 52.5468 16.9095C52.6435 17.2157 52.7782 17.4482 52.9508 17.607C53.1235 17.7659 53.3249 17.8453 53.5551 17.8453C53.783 17.8453 53.9821 17.7659 54.1525 17.607C54.3228 17.4482 54.4552 17.2157 54.5496 16.9095C54.644 16.6034 54.6911 16.2327 54.6911 15.7977C54.6911 15.3672 54.644 14.9988 54.5496 14.6927C54.4552 14.3865 54.3217 14.1552 54.149 13.9986C53.9787 13.8398 53.7807 13.7604 53.5551 13.7604ZM61.4409 12.7797H65.0114V12.1581H66.2441V15.1485H60.2151V12.1581H61.4409V12.7797ZM65.0114 14.2162V13.6809H61.4409V14.2162H65.0114ZM67.2869 16.6057H59.1792V15.6354H67.2869V16.6057ZM66.2959 19.3715H61.3442V20.2003H60.1219V18.5083H65.0666V18.0387H60.1149V17.1271H66.2959V19.3715ZM66.5272 20.8391H60.1219V19.8999H66.5272V20.8391Z" fill="#005A13"/>
<rect width="4.68555" height="56.2151" rx="2.34278" transform="matrix(0.787969 -0.615715 0.529674 0.848202 38.4633 34.3184)" fill="#A07013"/>
<rect width="4.68555" height="56.2151" rx="2.34278" transform="matrix(-0.787969 -0.615715 -0.529674 0.848202 71.9309 34.3184)" fill="#A07013"/>
<rect x="30" y="29" width="51" height="5.64745" rx="2.82372" fill="#E8B146"/>
<path d="M56.2715 97.5459L58.2154 108.531H67.5705L69.2715 97.5459" stroke="white" stroke-linecap="round"/>
<rect width="1.54847" height="1.52116" transform="matrix(0.811804 0.583931 -0.637691 0.770293 59.5499 96.5312)" fill="white"/>
<rect width="1.58139" height="1.48691" transform="matrix(0.972671 -0.232189 0.264922 0.96427 61.9818 98.3662)" fill="white"/>
<rect width="1.5854" height="1.48263" transform="matrix(0.989867 0.141997 -0.162894 0.986643 64.6532 103.662)" fill="white"/>
</svg>
