<svg width="32" height="35" viewBox="0 0 32 35" fill="none" xmlns="http://www.w3.org/2000/svg">
<g id="My trab">
<path id="Vector" d="M21.0205 34.93C20.3424 34.9343 19.6671 34.8428 19.0151 34.6582L18.9274 34.6288C18.9274 34.6288 18.2203 34.3746 17.5199 34.5553C17.1633 34.6512 16.7997 34.7199 16.4325 34.761C15.051 34.908 13.1116 34.93 11.7093 34.2136C11.563 34.1533 11.4206 34.0841 11.283 34.0064C11.2198 33.9712 11.1389 33.933 11.0453 33.88C10.4043 33.5457 9.21438 32.9248 8.4018 31.877C7.88187 31.2775 1.41986 23.5336 5.01779 15.523C5.9195 13.5141 7.57065 12.0255 9.54862 11.4398C9.69717 11.3943 9.85909 11.3524 10.024 11.3142C11.1745 11.0453 12.4008 11.0416 13.6635 11.301C15.7945 11.7418 17.4516 12.0358 18.2448 12.1166C18.5345 12.0975 19.8202 11.9917 21.5523 11.4972C23.078 11.0636 24.5538 10.9784 25.9391 11.2459C27.8613 11.6177 29.3602 12.5685 30.2746 14.0042C30.3184 14.0777 30.3689 14.1424 30.4187 14.2107C30.5048 14.329 30.5888 14.448 30.6608 14.5663C32.1463 17.0117 32.332 20.6136 31.2127 25.2736C31.1637 25.4749 29.9886 30.1525 26.1545 33.1034C24.6422 34.2687 22.8395 34.9168 21.0777 34.9286L21.0205 34.93ZM19.6368 32.6816C20.1008 32.8072 20.5804 32.8673 21.0614 32.8602C22.3634 32.8514 23.7153 32.3583 24.8665 31.4714C28.1094 28.9732 29.1656 24.8334 29.1745 24.7923C29.8534 21.9678 30.3503 18.0815 28.8641 15.6347C28.821 15.5612 28.7668 15.4878 28.7155 15.4143C28.6412 15.3136 28.567 15.2115 28.5038 15.1079C27.8963 14.1527 26.898 13.5399 25.5365 13.2768C24.4788 13.0725 23.3335 13.1431 22.1302 13.4855C19.9019 14.1211 18.3251 14.1857 18.2597 14.1879H18.1914L18.1245 14.182C17.0401 14.0821 14.8675 13.6604 13.2357 13.3246C12.2745 13.1269 11.355 13.1269 10.5045 13.3246C10.3827 13.3532 10.2646 13.3841 10.151 13.4186C8.75832 13.8308 7.58625 14.9029 6.93262 16.3577C3.81303 23.3095 9.94748 30.4729 10.0091 30.5441L10.053 30.597C10.5848 31.2936 11.485 31.7639 12.0235 32.0446C12.1408 32.1056 12.2463 32.1585 12.3206 32.2033C12.3703 32.2312 12.422 32.2558 12.4751 32.2768C12.5375 32.3025 12.5954 32.3282 12.6704 32.3664C13.3954 32.7338 14.6848 32.8565 16.2119 32.6948C16.475 32.6651 16.7354 32.616 16.9911 32.5479C18.2307 32.2334 19.3553 32.5817 19.6368 32.6816Z" fill="#BFBEBE"/>
<path id="Vector_2" d="M14.501 22.6672C15.1979 22.6672 15.7629 22.0202 15.7629 21.2219C15.7629 20.4237 15.1979 19.7766 14.501 19.7766C13.804 19.7766 13.239 20.4237 13.239 21.2219C13.239 22.0202 13.804 22.6672 14.501 22.6672Z" fill="#BFBEBE"/>
<path id="Vector_3" d="M21.1115 22.6672C21.8085 22.6672 22.3734 22.0202 22.3734 21.2219C22.3734 20.4237 21.8085 19.7766 21.1115 19.7766C20.4145 19.7766 19.8495 20.4237 19.8495 21.2219C19.8495 22.0202 20.4145 22.6672 21.1115 22.6672Z" fill="#BFBEBE"/>
<path id="Vector_4" d="M17.9778 27.4432C15.1969 27.4432 13.2026 25.6511 13.1721 25.6232C13.0368 25.498 12.9573 25.3247 12.9511 25.1415C12.9449 24.9583 13.0125 24.7802 13.1391 24.6463C13.2657 24.5124 13.4408 24.4338 13.626 24.4276C13.8112 24.4215 13.9913 24.4884 14.1266 24.6136C14.2893 24.7606 17.7661 27.8253 21.7109 24.5879C21.7814 24.53 21.8627 24.4864 21.9502 24.4596C22.0377 24.4328 22.1297 24.4233 22.2209 24.4316C22.3121 24.44 22.4008 24.466 22.4818 24.5083C22.5629 24.5506 22.6347 24.6082 22.6932 24.6779C22.7517 24.7476 22.7958 24.8281 22.8229 24.9146C22.85 25.0012 22.8596 25.0922 22.8512 25.1824C22.8427 25.2726 22.8164 25.3604 22.7737 25.4405C22.7309 25.5207 22.6727 25.5917 22.6022 25.6496C20.96 26.9936 19.3697 27.4432 17.9778 27.4432Z" fill="#BFBEBE"/>
<path id="Vector_5" d="M18.0039 13.1838C17.7731 13.1842 17.5489 13.1217 17.3679 13.0065C17.187 12.8913 17.0599 12.7303 17.0075 12.5496C16.963 12.3943 15.9681 8.70433 21.5387 5.12284C21.7515 4.98603 22.0232 4.92276 22.294 4.94695C22.5649 4.97113 22.8127 5.08079 22.9829 5.2518C23.1531 5.42281 23.2319 5.64116 23.2018 5.85881C23.1717 6.07647 23.0352 6.27561 22.8224 6.41241C18.319 9.3075 18.9806 12.0678 19.0112 12.1838C19.0672 12.3969 19.0166 12.6191 18.8704 12.8025C18.7243 12.9858 18.4943 13.1157 18.23 13.1639C18.1558 13.1774 18.08 13.1841 18.0039 13.1838Z" fill="#BFBEBE"/>
<path id="Vector_6" d="M18.5615 9.08837C18.5615 9.08837 13.4614 8.47611 14.2345 4.37284C14.2345 4.37284 18.3294 4.12754 18.5615 9.08837Z" fill="#BFBEBE"/>
</g>
</svg>
