<svg width="35" height="42" viewBox="0 0 35 42" fill="none" xmlns="http://www.w3.org/2000/svg">
<rect width="35" height="42" fill="#F5F5F5"/>
<g id="1 &#235;&#161;&#156;&#234;&#183;&#184;&#236;&#157;&#184; &#237;&#155;&#132; &#236;&#157;&#180;&#235;&#166;&#132; &#236;&#132;&#164;&#236;&#160;&#149;" clip-path="url(#clip0_0_1)">
<rect width="390" height="844" transform="translate(-178 -287)" fill="#FEFEFE"/>
<path id="Vector 21 (Stroke)" fill-rule="evenodd" clip-rule="evenodd" d="M-187.792 -245.162C-185.168 -242.711 -185.03 -238.596 -187.483 -235.972C-248.537 -170.665 -293.793 -94.2342 -306.648 -11.5371C-319.47 70.9484 -300.176 160.378 -230.861 252.23C-217.616 269.782 -201.545 285.011 -182.433 294.594C-138.865 316.441 -97.7891 317.362 -66.5056 305.876C-75.4001 269.456 -61.4341 236.259 -44.4113 217.072C-35.797 207.363 -25.4821 200.213 -15.9387 199.073C-10.9051 198.471 -5.71844 199.537 -1.61129 203.265C2.36671 206.876 4.44127 212.184 5.13631 218.28C9.73534 258.618 -12.7526 294.079 -49.1857 312.51C-49.6223 312.731 -50.0608 312.949 -50.5014 313.165C-43.8762 329.199 -30.2174 346.461 -10.6958 361.467C11.7841 378.747 41.5981 392.677 76.088 398.085C144.728 408.846 232.875 385.959 319.159 286.084C321.507 283.366 325.615 283.065 328.333 285.411C331.051 287.758 331.351 291.864 329.002 294.583C240.254 397.309 147.819 422.496 74.0673 410.932C37.3612 405.177 5.52659 390.345 -18.6276 371.778C-39.3373 355.859 -54.7319 336.927 -62.4776 318.25C-97.3967 330.925 -142.052 329.394 -188.269 306.219C-209.676 295.486 -227.192 278.689 -241.246 260.065C-312.485 165.665 -332.912 72.7395 -319.502 -13.529C-306.124 -99.5857 -259.193 -178.308 -196.985 -244.85C-194.532 -247.474 -190.416 -247.614 -187.792 -245.162ZM-54.3789 300.561C-22.4478 284.115 -3.92507 253.643 -7.78845 219.758C-8.27033 215.532 -9.51185 213.663 -10.3584 212.895C-11.0759 212.243 -12.2223 211.725 -14.3996 211.986C-19.278 212.569 -26.8962 216.925 -34.681 225.7C-49.1243 241.979 -60.9771 269.94 -54.3789 300.561Z" fill="#C2E6C2" fill-opacity="0.8"/>
<g id="&#235;&#160;&#136;&#236;&#157;&#180;&#236;&#150;&#180;_1" clip-path="url(#clip1_0_1)">
<path id="Vector" d="M13.6354 41.9933C14.4844 41.9988 15.3298 41.8874 16.1459 41.6623L16.2567 41.6267C16.8237 41.4445 17.4313 41.4138 18.015 41.5378C18.4615 41.6548 18.9166 41.7387 19.3764 41.7889C21.1024 41.9667 23.5298 41.9933 25.2812 41.1223C25.4638 41.0487 25.6418 40.9649 25.8142 40.8713C25.8927 40.8268 25.9919 40.7757 26.1096 40.718C26.9126 40.3091 28.3986 39.5559 29.4139 38.2739C30.06 37.5429 38.1408 28.1198 33.6458 18.3723C32.5175 15.9282 30.4546 14.1152 27.9833 13.4019C27.7941 13.3486 27.5956 13.2975 27.3902 13.2509C25.8919 12.9247 24.3373 12.9216 22.8376 13.242C20.1725 13.7752 18.0981 14.1307 17.1105 14.2329C15.7091 14.1215 14.3235 13.8714 12.9755 13.4864C11.1985 12.9656 9.31796 12.8612 7.4906 13.182C5.08621 13.6264 3.21254 14.7928 2.07034 16.537C2.01497 16.6215 1.95266 16.7059 1.89036 16.7881C1.78191 16.9325 1.67807 17.077 1.58808 17.2214C-0.257896 20.1965 -0.502487 24.5803 0.89584 30.2506C0.955833 30.495 2.42569 36.1875 7.21832 39.7781C9.0254 41.1665 11.255 41.9469 13.5662 42L13.6354 41.9933ZM15.366 39.2604C14.786 39.4148 14.1863 39.4896 13.5846 39.4826C11.8498 39.4343 10.179 38.8413 8.82662 37.7939C4.77239 34.7455 3.45483 29.7062 3.44098 29.6551C2.59183 26.2201 1.97112 21.4897 3.82864 18.5123C3.88402 18.4257 3.95094 18.3368 4.01785 18.2479C4.11015 18.1235 4.20014 18.0013 4.28321 17.8746C5.04237 16.7148 6.2884 15.966 7.99132 15.6527C9.41191 15.4099 10.8721 15.4968 12.2509 15.906C13.8277 16.3654 15.4532 16.6523 17.0966 16.7615H17.182H17.2651C18.6219 16.6392 21.3377 16.126 23.3776 15.7194C24.5012 15.477 25.6666 15.477 26.7903 15.7194C26.9449 15.7527 27.0903 15.7927 27.2333 15.8327C28.9755 16.3348 30.4407 17.6391 31.2576 19.4122C35.1595 27.8709 27.4872 36.5875 27.411 36.6741L27.3556 36.7385C26.6911 37.5873 25.565 38.1583 24.8936 38.5005C24.7459 38.5738 24.619 38.6405 24.5198 38.6938C24.4571 38.7286 24.3924 38.7597 24.3259 38.7871C24.2498 38.8182 24.1759 38.8493 24.0952 38.896C23.1883 39.3404 21.5754 39.4915 19.6671 39.2959C19.3383 39.2587 19.0128 39.1978 18.6934 39.1138C17.5926 38.8545 16.4376 38.9054 15.366 39.2604Z" fill="#49AF59"/>
<path id="Vector_2" d="M21.5 27C20.6716 27 20 26.1046 20 25C20 23.8954 20.6716 23 21.5 23C22.3284 23 23 23.8954 23 25C23 26.1046 22.3284 27 21.5 27Z" fill="#49AF59"/>
<path id="Vector_3" d="M13.5 27C12.6716 27 12 26.1046 12 25C12 23.8954 12.6716 23 13.5 23C14.3284 23 15 23.8954 15 25C15 26.1046 14.3284 27 13.5 27Z" fill="#49AF59"/>
<path id="Vector_4" d="M17.9127 33C21.2847 33 23.7013 30.6276 23.7304 30.5816C23.8116 30.5 23.8772 30.4019 23.9234 30.2929C23.9695 30.1839 23.9954 30.0661 23.9994 29.9463C24.0035 29.8265 23.9857 29.707 23.947 29.5946C23.9083 29.4822 23.8495 29.3792 23.774 29.2914C23.6985 29.2036 23.6077 29.1327 23.5069 29.0828C23.406 29.0329 23.297 29.005 23.1862 29.0006C23.0753 28.9962 22.9648 29.0155 22.8608 29.0573C22.7568 29.0991 22.6615 29.1626 22.5803 29.2442C22.3811 29.4377 18.1678 33.4982 13.3838 29.2104C13.2985 29.1338 13.2 29.0762 13.094 29.0408C12.9881 29.0054 12.8767 28.9929 12.7663 29.004C12.6558 29.0151 12.5485 29.0497 12.4504 29.1056C12.3523 29.1616 12.2654 29.2378 12.1946 29.3301C12.1237 29.4224 12.0704 29.5288 12.0377 29.6433C12.0049 29.7578 11.9934 29.8782 12.0036 29.9976C12.0139 30.1169 12.0459 30.2329 12.0976 30.339C12.1494 30.445 12.22 30.5389 12.3053 30.6155C14.2968 32.4051 16.2256 33 17.9127 33Z" fill="#49AF59"/>
<path id="Vector_5" d="M17.6145 15C17.9072 15.0008 18.1915 14.9024 18.421 14.721C18.6504 14.5395 18.8113 14.2858 18.8775 14.0012C18.935 13.7555 20.1979 7.9394 13.1262 2.29094C12.9927 2.18278 12.839 2.10206 12.6741 2.05341C12.5092 2.00475 12.3363 1.98912 12.1653 2.00742C11.9943 2.02573 11.8286 2.07761 11.6778 2.16007C11.5269 2.24253 11.3939 2.35395 11.2864 2.48791C11.1789 2.62187 11.0989 2.77573 11.0512 2.94064C11.0035 3.10556 10.9889 3.27825 11.0083 3.44881C11.0277 3.61936 11.0807 3.78441 11.1643 3.93444C11.2479 4.08446 11.3603 4.21653 11.4952 4.32301C17.2119 8.8877 16.3722 13.2366 16.3262 13.4202C16.2548 13.7562 16.3189 14.1067 16.5044 14.3959C16.69 14.6851 16.9822 14.8897 17.3177 14.9655C17.4149 14.9889 17.5145 15.0005 17.6145 15Z" fill="#49AF59"/>
<path id="Vector_6" d="M17 9C17 9 25.102 7.828 23.8731 0.00375651C23.8731 0.00375651 17.3694 -0.462697 17 9Z" fill="#49AF59"/>
</g>
</g>
<defs>
<clipPath id="clip0_0_1">
<rect width="390" height="844" fill="white" transform="translate(-178 -287)"/>
</clipPath>
<clipPath id="clip1_0_1">
<rect width="35" height="42" fill="white" transform="matrix(-1 0 0 1 35 0)"/>
</clipPath>
</defs>
</svg>
