<svg width="110" height="126" viewBox="0 0 110 126" fill="none" xmlns="http://www.w3.org/2000/svg">
<rect width="110" height="126" rx="20" fill="#F9FBF9"/>
<rect x="17" y="92" width="76" height="21" rx="10.5" fill="#27C841"/>
<path d="M48.2034 105.031V103.637L51.7893 98.0469H54.0042V103.613H55.0823V105.031H54.0042V106.531H52.3284V105.031H48.2034ZM49.9846 103.613H52.3518V99.9805H52.2698L49.9846 103.543V103.613Z" fill="white"/>
<path d="M80.5192 98.0469V106.531H78.7496V99.7227H78.7028L76.7574 100.941V99.3828L78.8551 98.0469H80.5192Z" fill="white"/>
<path d="M41.1894 13.6706C41.1871 14.1954 41.1157 14.6927 40.9753 15.1623C40.8372 15.6296 40.6185 16.0474 40.3192 16.4157C40.02 16.7841 39.6448 17.0672 39.1936 17.2652L38.5513 16.3363C38.9334 16.1729 39.2511 15.9496 39.5043 15.6664C39.7576 15.381 39.9429 15.0679 40.0603 14.7272C40.18 14.3865 40.2398 14.0343 40.2398 13.6706V12.6519H41.1894V13.6706ZM41.4933 13.6706C41.491 14.0343 41.5462 14.3888 41.659 14.7341C41.7741 15.0794 41.9583 15.3994 42.2115 15.6941C42.4647 15.9864 42.7893 16.2189 43.1853 16.3916L42.6397 17.3895C42.1471 17.1892 41.743 16.8946 41.4277 16.5055C41.1146 16.1165 40.8878 15.6791 40.7474 15.1934C40.607 14.7076 40.5379 14.2 40.5402 13.6706V12.6519H41.4933V13.6706ZM44.7391 13.6706C44.7368 14.207 44.6655 14.718 44.525 15.2037C44.3846 15.6895 44.1579 16.1257 43.8448 16.5124C43.5317 16.8969 43.13 17.1892 42.6397 17.3895L42.1045 16.3916C42.4981 16.2235 42.8215 15.9933 43.0748 15.701C43.3303 15.4086 43.5145 15.0886 43.6273 14.741C43.7424 14.3934 43.7999 14.0366 43.7999 13.6706V12.6519H44.7391V13.6706ZM45.0568 13.6706C45.0545 14.0504 45.1109 14.4107 45.226 14.7514C45.3411 15.0921 45.5241 15.4017 45.775 15.6802C46.026 15.9565 46.3483 16.1752 46.7419 16.3363L46.0824 17.2652C45.6243 17.0718 45.2467 16.7944 44.9498 16.433C44.6528 16.0693 44.4353 15.6538 44.2971 15.1865C44.1613 14.7169 44.0946 14.2116 44.0969 13.6706V12.6519H45.0568V13.6706ZM46.7005 19.7963H38.5927V18.7845H46.7005V19.7963ZM47.7044 17.7866C48.151 17.7843 48.532 17.7785 48.8473 17.7693C49.165 17.7601 49.4942 17.7394 49.8349 17.7072C50.1756 17.675 50.5232 17.6266 50.8777 17.5622L50.9848 18.5739C50.4553 18.6729 49.9454 18.7373 49.4551 18.7673C48.9647 18.7972 48.3812 18.8122 47.7044 18.8122H47.0759V17.7866H47.7044ZM50.2216 16.2673H48.2741V18.1975H47.0759V15.2866H49.0234V13.8881H47.0656V12.8971H50.2216V16.2673ZM54.5069 20.9012H53.3294V12.0062H54.5069V20.9012ZM52.0103 16.0532H50.598V15.0449H52.0103V16.0532ZM52.6698 20.4696H51.5027V12.1754H52.6698V20.4696ZM62.5274 20.9012H61.267V12.0062H62.5274V20.9012ZM59.8651 12.942C59.8628 13.895 59.7338 14.7606 59.4783 15.5387C59.2228 16.3145 58.7912 17.0269 58.1834 17.6761C57.578 18.3253 56.7631 18.8916 55.7387 19.375L55.0895 18.384C55.9413 17.9788 56.6261 17.5242 57.1441 17.02C57.6643 16.5159 58.0419 15.9496 58.2767 15.3211C58.5115 14.6904 58.63 13.9687 58.6323 13.1561V12.942H59.8651ZM59.2055 13.9192H55.566V12.942H59.2055V13.9192ZM71.4042 17.5691H63.2757V16.5919H71.4042V17.5691ZM67.9581 16.9544H66.7081V15.6146H67.9581V16.9544ZM70.5306 16.0428H64.2944V15.0932H70.5306V16.0428ZM70.4546 13.1872H65.5375V15.6285H64.2944V12.2238H70.4546V13.1872ZM70.2474 14.5856H65.1818V13.6809H70.2474V14.5856ZM67.3331 17.9731C67.9845 17.9731 68.5416 18.0295 69.0043 18.1423C69.4693 18.2528 69.8227 18.4185 70.0644 18.6395C70.3061 18.8582 70.4281 19.1229 70.4304 19.4337C70.4281 19.7491 70.3061 20.0173 70.0644 20.2383C69.825 20.4593 69.4728 20.625 69.0078 20.7355C68.5451 20.846 67.9868 20.9001 67.3331 20.8978C66.6701 20.9001 66.1061 20.846 65.6411 20.7355C65.1784 20.625 64.8262 20.4593 64.5844 20.2383C64.3427 20.0196 64.2219 19.7514 64.2219 19.4337C64.2219 19.1229 64.3427 18.8582 64.5844 18.6395C64.8285 18.4185 65.183 18.2528 65.648 18.1423C66.113 18.0295 66.6747 17.9731 67.3331 17.9731ZM67.3331 18.895C66.9026 18.895 66.5504 18.9134 66.2764 18.9503C66.0025 18.9871 65.7988 19.0458 65.6652 19.1264C65.5317 19.207 65.4661 19.3094 65.4684 19.4337C65.4661 19.5603 65.5317 19.6639 65.6652 19.7445C65.7988 19.8227 66.0025 19.8814 66.2764 19.9206C66.5504 19.9597 66.9026 19.9781 67.3331 19.9758C67.7566 19.9781 68.1031 19.9597 68.3724 19.9206C68.6441 19.8814 68.8455 19.8227 68.9767 19.7445C69.1102 19.6639 69.1781 19.5603 69.1804 19.4337C69.1781 19.3094 69.1102 19.207 68.9767 19.1264C68.8455 19.0458 68.6441 18.9871 68.3724 18.9503C68.1031 18.9134 67.7566 18.895 67.3331 18.895Z" fill="#005A13"/>
<rect x="33.5" y="32.0693" width="43" height="7.20017" fill="#73C27A"/>
<path d="M35.589 40.6475H74.411V70.9999C74.411 76.5227 69.9338 80.9999 64.411 80.9999H45.589C40.0661 80.9999 35.589 76.5227 35.589 70.9999V40.6475Z" fill="#73C27A"/>
<rect x="53.9298" y="46.625" width="2.14048" height="26.769" rx="1.07024" fill="#D9D9D9"/>
<rect x="62.5345" y="46.625" width="2.14049" height="26.769" rx="1.07024" fill="#D9D9D9"/>
<rect x="45.325" y="46.625" width="2.14048" height="26.769" rx="1.07024" fill="#D9D9D9"/>
<path d="M62.6533 31.9083C62.6533 32.4442 62.2245 33.2736 60.7635 34.057C59.3651 34.8069 57.3301 35.3166 55.0001 35.3166C52.6701 35.3166 50.635 34.8069 49.2366 34.057C47.7756 33.2736 47.3468 32.4442 47.3468 31.9083C47.3468 31.3723 47.7756 30.543 49.2366 29.7595C50.635 29.0097 52.6701 28.5 55.0001 28.5C57.3301 28.5 59.3651 29.0097 60.7635 29.7595C62.2245 30.543 62.6533 31.3723 62.6533 31.9083Z" stroke="#73C27A" stroke-width="3"/>
<path fill-rule="evenodd" clip-rule="evenodd" d="M62.9348 95.5312H68.5502L69.4021 98.9023C69.5863 99.6313 69.7744 100.43 69.8081 101.211C69.842 101.996 69.7212 102.79 69.2664 103.496C68.5947 104.539 67.388 105.432 65.4598 105.322C64.8682 105.289 64.3585 105.186 63.9195 105.026C63.1546 104.749 62.6289 104.254 62.2958 103.622C61.9672 102.998 61.8337 102.255 61.8156 101.481C61.7796 99.9381 62.202 98.1723 62.6009 96.7345L62.9348 95.5312ZM63.4216 96.1904L63.2207 96.9145C62.8219 98.3517 62.4262 100.032 62.4597 101.466C62.4763 102.18 62.5994 102.809 62.8629 103.309C63.1218 103.801 63.5236 104.183 64.1349 104.405C64.5079 104.54 64.9559 104.633 65.4954 104.664C67.1746 104.759 68.1715 103.998 68.7284 103.134C69.0847 102.58 69.1947 101.939 69.1645 101.24C69.1341 100.536 68.9631 99.7984 68.7784 99.0673L68.0513 96.1904H63.4216Z" fill="white"/>
<path fill-rule="evenodd" clip-rule="evenodd" d="M66.0519 104.631C66.2407 104.631 66.3938 104.779 66.3938 104.962V109.57H68.805C68.9938 109.57 69.1469 109.718 69.1469 109.901C69.1469 110.083 68.9938 110.231 68.805 110.231H63.4887C63.2999 110.231 63.1469 110.083 63.1469 109.901C63.1469 109.718 63.2999 109.57 63.4887 109.57H65.7101V104.962C65.7101 104.779 65.8631 104.631 66.0519 104.631Z" fill="white"/>
<path fill-rule="evenodd" clip-rule="evenodd" d="M64.7587 95.5348C64.9366 95.508 65.1019 95.6354 65.1279 95.8196L65.6543 99.5534L66.9158 98.9922L69.1111 103.441C69.1929 103.607 69.1293 103.81 68.9692 103.894C68.809 103.979 68.6129 103.913 68.5312 103.747L66.6131 99.8603L65.1324 100.519L64.4836 95.9168C64.4576 95.7327 64.5808 95.5617 64.7587 95.5348Z" fill="white"/>
<path fill-rule="evenodd" clip-rule="evenodd" d="M33.4338 97.6468L32.2956 96.8091L31.4173 97.8946L32.5555 98.7323L33.4338 97.6468ZM29.6492 97.6935C29.6185 97.5155 29.4493 97.3962 29.2713 97.427C29.0934 97.4578 28.9741 97.627 29.0048 97.8049L30.765 107.982L30.8119 108.253H31.0872H39.5581H39.8394L39.8814 107.975L41.4216 97.7981C41.4486 97.6196 41.3258 97.4529 41.1472 97.4259C40.9687 97.3989 40.802 97.5217 40.775 97.7003L39.2769 107.599H31.3625L29.6492 97.6935ZM34.4976 98.5091L35.8904 98.1689L36.2471 99.4972L34.8543 99.8374L34.4976 98.5091ZM38.3375 103.623L36.9165 103.415L36.6978 104.77L38.1188 104.979L38.3375 103.623Z" fill="white"/>
</svg>
