<svg width="26" height="29" viewBox="0 0 26 29" fill="none" xmlns="http://www.w3.org/2000/svg">
<g id="union">
<path id="Vector 32 (Stroke)" fill-rule="evenodd" clip-rule="evenodd" d="M4.61654 21.5272C2.91132 23.6855 2.25726 26.3576 2.20801 28.0344C2.19188 28.5833 1.72805 29.0154 1.17201 28.9995C0.615968 28.9835 0.178278 28.5256 0.194401 27.9767C0.25373 25.9569 1.01316 22.8545 3.02812 20.3042C5.0845 17.7014 8.41342 15.7267 13.4253 16.031C16.5275 16.2193 19.2133 17.1802 21.2662 19.1637C23.3106 21.139 24.62 24.0251 25.1834 27.8629C25.2632 28.4064 24.8816 28.9108 24.3311 28.9896C23.7806 29.0684 23.2696 28.6916 23.1898 28.1482C22.6675 24.5904 21.4903 22.163 19.8571 20.585C18.2325 19.0152 16.0496 18.1828 13.3017 18.0159C8.97828 17.7534 6.28034 19.4214 4.61654 21.5272Z" fill="#BEBEBE"/>
<path id="Ellipse 35 (Stroke)" fill-rule="evenodd" clip-rule="evenodd" d="M12.194 12.0226C14.9679 12.0226 17.2165 9.77389 17.2165 7C17.2165 4.22611 14.9679 1.97743 12.194 1.97743C9.42008 1.97743 7.1714 4.22611 7.1714 7C7.1714 9.77389 9.42008 12.0226 12.194 12.0226ZM12.194 14C16.06 14 19.194 10.866 19.194 7C19.194 3.13401 16.06 0 12.194 0C8.32798 0 5.19397 3.13401 5.19397 7C5.19397 10.866 8.32798 14 12.194 14Z" fill="#C0C0C0"/>
</g>
</svg>
