<svg width="22" height="21" viewBox="0 0 22 21" fill="none" xmlns="http://www.w3.org/2000/svg">
<path fill-rule="evenodd" clip-rule="evenodd" d="M2.5 1.48926H7.48276V5.3464C7.48276 6.52987 8.46696 7.48926 9.68103 7.48926H12.319C13.533 7.48926 14.5172 6.52987 14.5172 5.3464V1.48926H19.5V16.4893C19.5 18.1461 18.1221 19.4893 16.4224 19.4893H5.57759C3.87788 19.4893 2.5 18.1461 2.5 16.4893V1.48926ZM3.37931 2.3464V16.4893C3.37931 17.6727 4.36351 18.6321 5.57759 18.6321H16.4224C17.6365 18.6321 18.6207 17.6727 18.6207 16.4893V2.3464H15.3966V5.3464C15.3966 7.00326 14.0187 8.3464 12.319 8.3464H9.68103C7.98133 8.3464 6.60345 7.00325 6.60345 5.3464V2.3464H3.37931Z" fill="white"/>
</svg>
