<svg width="110" height="126" viewBox="0 0 110 126" fill="none" xmlns="http://www.w3.org/2000/svg">
<rect width="110" height="126" rx="20" fill="#F9FBF9"/>
<rect x="17" y="92" width="76" height="21" rx="10.5" fill="#27C841"/>
<path d="M50.1493 106.648C48.286 106.648 46.9501 105.623 46.9149 104.141H48.6962C48.7255 104.773 49.3407 105.189 50.161 105.195C51.0048 105.189 51.6083 104.721 51.6024 104.035C51.6083 103.344 50.993 102.857 49.9969 102.852H49.2118V101.551H49.9969C50.8348 101.551 51.4208 101.094 51.4149 100.426C51.4208 99.7754 50.9227 99.3301 50.1727 99.3359C49.4227 99.3301 48.8075 99.752 48.7782 100.402H47.0907C47.12 98.9434 48.4325 97.9297 50.1727 97.9297C51.9423 97.9297 53.12 98.9785 53.1141 100.32C53.12 101.27 52.4579 101.943 51.5087 102.113V102.184C52.7567 102.336 53.4423 103.092 53.4305 104.152C53.4423 105.605 52.0653 106.648 50.1493 106.648Z" fill="white"/>
<path d="M74.785 106.531L74.7733 105.254L77.8202 102.453C78.6112 101.697 79.0389 101.229 79.0389 100.555C79.0389 99.7988 78.4706 99.3301 77.6913 99.3359C76.8944 99.3301 76.3729 99.834 76.3788 100.648H74.703C74.6971 98.9902 75.9276 97.9297 77.7147 97.9297C79.5311 97.9297 80.7382 98.9668 80.7382 100.438C80.7382 101.404 80.2694 102.195 78.5233 103.777L77.2343 105.031V105.078H80.8553V106.531H74.785Z" fill="white"/>
<path d="M53.4399 14.3163H51.1402V13.3218H53.4399V14.3163ZM53.4744 16.1499H51.1402V15.145H53.4744V16.1499ZM48.4537 13.7914H50.2044V12.5345H51.4371V16.8992H47.2037V12.5345H48.4537V13.7914ZM50.2044 15.9012V14.7479H48.4537V15.9012H50.2044ZM54.3169 20.9012H53.0739V18.6878H48.2085V17.6934H54.3169V20.9012ZM54.3169 17.3135H53.0739V12.0062H54.3169V17.3135ZM58.2421 14.4302C58.2398 15.1301 58.1408 15.7977 57.9452 16.433C57.7495 17.0661 57.4606 17.6289 57.0785 18.1215C56.6986 18.6119 56.2405 18.9791 55.7042 19.2231L54.9963 18.2459C55.4705 18.0341 55.8757 17.7256 56.2117 17.3204C56.5501 16.9153 56.8045 16.4629 56.9749 15.9634C57.1452 15.4616 57.2315 14.9505 57.2338 14.4302V13.3978H58.2421V14.4302ZM58.5011 14.4302C58.5011 14.9298 58.5851 15.4144 58.7532 15.884C58.9235 16.3536 59.1756 16.7783 59.5094 17.1581C59.8455 17.5357 60.253 17.8246 60.7318 18.0249L60.0619 19.0021C59.5117 18.7696 59.0455 18.422 58.6634 17.9593C58.2836 17.4942 57.997 16.9602 57.8036 16.357C57.6125 15.7516 57.5181 15.1093 57.5204 14.4302V13.3978H58.5011V14.4302ZM60.3623 13.8847H55.345V12.866H60.3623V13.8847ZM62.4997 20.9012H61.2394V12.0062H62.4997V20.9012Z" fill="#005A13"/>
<path fill-rule="evenodd" clip-rule="evenodd" d="M58.5283 95.9229H62.0149V98.7551C62.0149 99.6241 62.7036 100.329 63.5531 100.329H65.3989C66.2485 100.329 66.9371 99.6241 66.9371 98.7551V95.9229H70.4237V106.937C70.4237 108.154 69.4596 109.14 68.2702 109.14H60.6818C59.4925 109.14 58.5283 108.154 58.5283 106.937V95.9229ZM59.1436 96.5522V106.937C59.1436 107.806 59.8323 108.511 60.6818 108.511H68.2702C69.1198 108.511 69.8084 107.806 69.8084 106.937V96.5522H67.5524V98.7551C67.5524 99.9717 66.5883 100.958 65.3989 100.958H63.5531C62.3638 100.958 61.3996 99.9717 61.3996 98.7551V96.5522H59.1436Z" fill="white"/>
<mask id="path-7-inside-1_2401_5612" fill="white">
<path fill-rule="evenodd" clip-rule="evenodd" d="M56.7308 23.9247C56.2113 23.6924 55.6174 23.6924 55.0979 23.9247L25.2274 37.2818C23.2577 38.1626 23.8862 41.1076 26.0438 41.1076H26.413V84.8705H85.4156V41.1076H85.7849C87.9425 41.1076 88.571 38.1626 86.6013 37.2818L56.7308 23.9247Z"/>
</mask>
<path fill-rule="evenodd" clip-rule="evenodd" d="M56.7308 23.9247C56.2113 23.6924 55.6174 23.6924 55.0979 23.9247L25.2274 37.2818C23.2577 38.1626 23.8862 41.1076 26.0438 41.1076H26.413V84.8705H85.4156V41.1076H85.7849C87.9425 41.1076 88.571 38.1626 86.6013 37.2818L56.7308 23.9247Z" fill="white"/>
<path d="M55.0979 23.9247L54.6897 23.0118V23.0118L55.0979 23.9247ZM56.7308 23.9247L57.139 23.0118V23.0118L56.7308 23.9247ZM25.2274 37.2818L25.6356 38.1947L25.2274 37.2818ZM26.413 41.1076H27.413V40.1076H26.413V41.1076ZM26.413 84.8705H25.413V85.8705H26.413V84.8705ZM85.4156 84.8705V85.8705H86.4156V84.8705H85.4156ZM85.4156 41.1076V40.1076H84.4156V41.1076H85.4156ZM86.6013 37.2818L87.0095 36.3689H87.0095L86.6013 37.2818ZM55.5061 24.8376C55.7659 24.7215 56.0628 24.7215 56.3226 24.8376L57.139 23.0118C56.3597 22.6634 55.4689 22.6634 54.6897 23.0118L55.5061 24.8376ZM25.6356 38.1947L55.5061 24.8376L54.6897 23.0118L24.8192 36.3689L25.6356 38.1947ZM26.0438 40.1076C24.965 40.1076 24.6508 38.6351 25.6356 38.1947L24.8192 36.3689C21.8647 37.6901 22.8073 42.1076 26.0438 42.1076V40.1076ZM26.413 40.1076H26.0438V42.1076H26.413V40.1076ZM27.413 84.8705V41.1076H25.413V84.8705H27.413ZM85.4156 83.8705H26.413V85.8705H85.4156V83.8705ZM84.4156 41.1076V84.8705H86.4156V41.1076H84.4156ZM85.7849 40.1076H85.4156V42.1076H85.7849V40.1076ZM86.1931 38.1947C87.1779 38.6351 86.8637 40.1076 85.7849 40.1076V42.1076C89.0213 42.1076 89.964 37.6901 87.0095 36.3689L86.1931 38.1947ZM56.3226 24.8376L86.1931 38.1947L87.0095 36.3689L57.139 23.0118L56.3226 24.8376Z" fill="#73C27A" mask="url(#path-7-inside-1_2401_5612)"/>
<path d="M70.3373 81.2606C68.9424 78.0563 67.5158 73.3112 74.47 77.8786C72.6182 74.4496 71.022 69.0419 78.5541 73.6919C76.6168 70.4698 75.7291 64.1845 82.7199 69.7026" stroke="#73C27A"/>
<rect width="1.4317" height="11.7788" transform="matrix(0.993641 0.112593 -0.113045 0.99359 32.2078 59.3599)" fill="#73C27A"/>
<rect width="1.41835" height="9.71788" transform="matrix(0.678426 -0.734668 0.73604 0.676938 59.7904 67.1431)" fill="#73C27A"/>
<path d="M48.0326 80.7519L49.6837 75.7263C49.9521 74.9093 49.1296 74.1581 48.3378 74.497L45.8762 75.5508C45.0711 75.8954 44.2422 75.1148 44.5403 74.2928L45.5665 71.4629C45.8519 70.6757 45.0988 69.9083 44.3043 70.1767L41.3992 71.1579C40.569 71.4384 39.8041 70.5939 40.1672 69.7978L41.2167 67.497C41.5799 66.7008 40.815 65.8564 39.9847 66.1368L35.1098 67.7835" stroke="#73C27A"/>
<ellipse cx="35.5435" cy="63.4959" rx="0.712651" ry="0.711207" fill="#73C27A"/>
<ellipse cx="65.2759" cy="76.5686" rx="1.56597" ry="1.56279" fill="#73C27A"/>
<path fill-rule="evenodd" clip-rule="evenodd" d="M43.807 80.4643H30.6576C30.83 76.9895 33.7076 74.2251 37.2323 74.2251C40.7569 74.2251 43.6346 76.9895 43.807 80.4643Z" fill="#73C27A"/>
<path fill-rule="evenodd" clip-rule="evenodd" d="M64.1692 48.2096L72.3168 48.2096C72.21 50.3627 70.427 52.0757 68.243 52.0757C66.059 52.0757 64.2759 50.3627 64.1692 48.2096Z" fill="#73C27A"/>
<rect x="80.3466" y="53.0449" width="1.25457" height="11.2362" transform="rotate(90 80.3466 53.0449)" fill="#73C27A"/>
<ellipse cx="70.1545" cy="41.6524" rx="1.50655" ry="1.5035" fill="#73C27A"/>
<ellipse cx="47.9224" cy="34.4373" rx="1.07959" ry="1.07741" fill="#73C27A"/>
<path d="M47.5197 42.203L45.8599 39.4423C45.4474 38.7562 44.4361 38.8088 44.097 39.534L43.6773 40.4315C43.3318 41.1704 42.2945 41.207 41.8977 40.4943L41.2729 39.3719C40.8953 38.6937 39.9226 38.6855 39.5337 39.3573L38.868 40.5072C38.4589 41.2138 37.4212 41.1589 37.089 40.413L36.7372 39.623C36.405 38.8771 35.3674 38.8222 34.9583 39.5288L33.41 42.203" stroke="#73C27A"/>
<path fill-rule="evenodd" clip-rule="evenodd" d="M31.1288 96.2964C31.1288 96.1324 31.2617 95.9995 31.4257 95.9995H38.2724V96.5933H31.7226V106.407H31.1288V96.2964ZM32.3577 97.476C32.3577 97.312 32.4906 97.1791 32.6546 97.1791H38.8869C38.9668 97.1791 39.0434 97.2113 39.0993 97.2685L41.7326 99.9647C41.7868 100.02 41.8171 100.095 41.8171 100.172V108.766C41.8171 108.93 41.6842 109.063 41.5202 109.063H32.6546C32.4906 109.063 32.3577 108.93 32.3577 108.766V97.476ZM32.9515 97.7729V108.469H41.2233V100.293L38.7618 97.7729H32.9515ZM34.4102 102.066C34.2462 102.066 34.1133 102.199 34.1133 102.363C34.1133 102.527 34.2462 102.66 34.4102 102.66H39.9402C40.1042 102.66 40.2371 102.527 40.2371 102.363C40.2371 102.199 40.1042 102.066 39.9402 102.066H34.4102ZM34.4102 103.161C34.2462 103.161 34.1133 103.294 34.1133 103.458C34.1133 103.622 34.2462 103.755 34.4102 103.755H39.9402C40.1042 103.755 40.2371 103.622 40.2371 103.458C40.2371 103.294 40.1042 103.161 39.9402 103.161H34.4102ZM34.4102 104.341C34.2462 104.341 34.1133 104.474 34.1133 104.638C34.1133 104.802 34.2462 104.935 34.4102 104.935H39.9402C40.1042 104.935 40.2371 104.802 40.2371 104.638C40.2371 104.474 40.1042 104.341 39.9402 104.341H34.4102ZM34.4102 105.436C34.2462 105.436 34.1133 105.569 34.1133 105.733C34.1133 105.897 34.2462 106.03 34.4102 106.03H39.9402C40.1042 106.03 40.2371 105.897 40.2371 105.733C40.2371 105.569 40.1042 105.436 39.9402 105.436H34.4102Z" fill="white"/>
</svg>
